<svg xmlns="http://www.w3.org/2000/svg" width="1400" height="557" viewBox="0 0 1400 557" style="background:#fff">
  <g fill="none" fill-rule="evenodd">
    <g fill-rule="nonzero" transform="translate(621.816 167.342)">
      <path fill="#FF00C0" stroke="#FF00C0" stroke-linecap="round" stroke-linejoin="round" stroke-width="4" d="M118.555127,42.163821 C117.783344,42.163821 117.10209,41.7815872 116.686022,41.1954344 C116.686022,41.1954344 114.685696,38.9134618 113.60712,37.833514 C109.044546,33.2709406 103.732136,29.6895558 97.8180274,27.1876617 C91.6972567,24.5984389 85.1937949,23.2857675 78.4864141,23.2857675 C71.7781189,23.2857675 65.2746571,24.5984389 59.1548008,27.1876617 C53.2402351,29.6895558 47.927825,33.2709406 43.3657087,37.833514 C38.802678,42.397002 35.2208361,47.7089549 32.7193991,53.6230634 C30.1310908,59.7438341 28.8179621,66.2482103 28.8179621,72.9551339 C28.8179621,79.6620575 30.1310908,86.1664337 32.7193991,92.2872044 C35.2208361,98.2013129 38.802678,103.513266 43.3657087,108.075839 C47.9282822,112.63887 53.2406924,116.220255 59.1548008,118.722149 C65.2746571,121.311372 71.7781189,122.624043 78.4864141,122.624043 C85.1937949,122.624043 91.6977139,121.311372 97.8180274,118.722149 C102.125931,116.900137 106.11241,114.502031 109.724428,111.571724 C109.531483,111.003403 109.423579,110.393932 109.423579,109.759771 C109.423579,106.664866 111.932789,104.155656 115.027237,104.155656 C118.1226,104.155656 120.631809,106.664866 120.631809,109.759771 C120.631809,112.855134 118.1226,115.363886 115.027237,115.363886 C114.259112,115.363886 113.526192,115.20889 112.859112,114.928158 C103.501241,122.601182 91.5322012,127.208106 78.4864141,127.208106 C48.5226649,127.208106 24.2325278,102.918426 24.2325278,72.9546767 C24.2325278,42.9909275 48.5226649,18.7007903 78.4864141,18.7007903 C95.2470934,18.7007903 110.226453,26.3070607 120.177335,38.2504964 C120.591574,38.6651927 120.848988,39.2380862 120.848988,39.870418 C120.84853,41.1382822 119.822534,42.163821 118.555127,42.163821 Z" transform="scale(1 -1) rotate(45 248.668 0)"/>
      <polygon fill="#0CC0D8" points="75.441 80.47 75.441 63.096 58.981 70.53"/>
      <polygon fill="#0CC0D8" points="75.441 60.278 75.441 39.321 58.981 67.668"/>
      <polygon fill="#0CC0D8" points="78.184 39.321 78.184 60.091 95.101 67.516"/>
      <polygon fill="#0CC0D8" points="78.184 63.096 78.184 80.47 94.644 70.535"/>
      <polygon fill="#0CC0D8" points="75.441 100.588 75.441 86.653 58.981 76.813"/>
      <polygon fill="#0CC0D8" points="78.641 100.588 95.101 76.813 78.641 86.653"/>
    </g>
    <path fill="#0CC0D8" fill-rule="nonzero" d="M514.125082,346.113651 C513.645003,346.113651 513.388961,345.697583 513.580993,345.281515 L523.598628,323.741999 C523.694644,323.549967 523.918681,323.389941 524.142717,323.389941 L524.462769,323.389941 C524.686806,323.389941 524.910843,323.549967 525.006858,323.741999 L535.024494,345.281515 C535.216525,345.697583 534.960483,346.113651 534.480405,346.113651 L530.927825,346.113651 C530.351731,346.113651 530.095689,345.92162 529.807642,345.313521 L528.655454,342.785108 L519.950033,342.785108 L518.797845,345.345526 C518.637818,345.729589 518.285761,346.113651 517.645656,346.113651 L514.125082,346.113651 Z M521.870346,338.432397 L526.73514,338.432397 L524.302743,333.151535 L524.270738,333.151535 L521.870346,338.432397 Z M537.648922,345.505552 L537.648922,324.318093 C537.648922,323.99804 537.904964,323.709993 538.257022,323.709993 L545.970281,323.709993 C549.906924,323.709993 553.139451,326.910516 553.139451,330.783148 C553.139451,334.751796 549.906924,337.984324 546.002286,337.984324 L542.641737,337.984324 L542.641737,345.505552 C542.641737,345.825604 542.35369,346.113651 542.033638,346.113651 L538.257022,346.113651 C537.904964,346.113651 537.648922,345.825604 537.648922,345.505552 Z M542.641737,333.311561 L545.682234,333.311561 C547.058459,333.311561 548.210647,332.223383 548.210647,330.783148 C548.210647,329.438929 547.058459,328.414762 545.682234,328.414762 L542.641737,328.414762 L542.641737,333.311561 Z M554.867734,334.943828 C554.867734,328.542782 559.956564,323.389941 566.357609,323.389941 C572.758654,323.389941 577.879491,328.542782 577.879491,334.943828 C577.879491,341.344873 572.758654,346.433703 566.357609,346.433703 C559.956564,346.433703 554.867734,341.344873 554.867734,334.943828 Z M559.98857,334.943828 C559.98857,338.432397 562.86904,341.312867 566.357609,341.312867 C569.878184,341.312867 572.758654,338.432397 572.758654,334.943828 C572.758654,331.423253 569.878184,328.510777 566.357609,328.510777 C562.86904,328.510777 559.98857,331.423253 559.98857,334.943828 Z M581.752123,345.505552 L581.752123,324.318093 C581.752123,323.99804 582.008165,323.709993 582.360222,323.709993 L586.168844,323.709993 C586.488896,323.709993 586.776943,323.99804 586.776943,324.318093 L586.776943,341.408883 L594.394187,341.408883 C594.746244,341.408883 595.002286,341.69693 595.002286,342.016982 L595.002286,345.505552 C595.002286,345.825604 594.746244,346.113651 594.394187,346.113651 L582.360222,346.113651 C582.008165,346.113651 581.752123,345.825604 581.752123,345.505552 Z M598.106793,345.505552 L598.106793,324.318093 C598.106793,323.99804 598.362835,323.709993 598.714892,323.709993 L602.523514,323.709993 C602.843566,323.709993 603.131613,323.99804 603.131613,324.318093 L603.131613,341.408883 L610.748857,341.408883 C611.100914,341.408883 611.356956,341.69693 611.356956,342.016982 L611.356956,345.505552 C611.356956,345.825604 611.100914,346.113651 610.748857,346.113651 L598.714892,346.113651 C598.362835,346.113651 598.106793,345.825604 598.106793,345.505552 Z M612.701176,334.943828 C612.701176,328.542782 617.790007,323.389941 624.191052,323.389941 C630.592097,323.389941 635.712933,328.542782 635.712933,334.943828 C635.712933,341.344873 630.592097,346.433703 624.191052,346.433703 C617.790007,346.433703 612.701176,341.344873 612.701176,334.943828 Z M617.822012,334.943828 C617.822012,338.432397 620.702482,341.312867 624.191052,341.312867 C627.711626,341.312867 630.592097,338.432397 630.592097,334.943828 C630.592097,331.423253 627.711626,328.510777 624.191052,328.510777 C620.702482,328.510777 617.822012,331.423253 617.822012,334.943828 Z M653.731875,345.505552 L653.731875,324.318093 C653.731875,323.99804 653.987916,323.709993 654.339974,323.709993 L658.148596,323.709993 C658.468648,323.709993 658.756695,323.99804 658.756695,324.318093 L658.756695,341.408883 L666.373939,341.408883 C666.725996,341.408883 666.982038,341.69693 666.982038,342.016982 L666.982038,345.505552 C666.982038,345.825604 666.725996,346.113651 666.373939,346.113651 L654.339974,346.113651 C653.987916,346.113651 653.731875,345.825604 653.731875,345.505552 Z M670.086545,345.505552 L670.086545,324.318093 C670.086545,323.99804 670.374592,323.709993 670.694644,323.709993 L674.535271,323.709993 C674.855323,323.709993 675.14337,323.99804 675.14337,324.318093 L675.14337,345.505552 C675.14337,345.825604 674.855323,346.113651 674.535271,346.113651 L670.694644,346.113651 C670.374592,346.113651 670.086545,345.825604 670.086545,345.505552 Z M680.648269,345.505552 L680.616264,323.966035 C680.616264,323.645983 680.904311,323.389941 681.224363,323.389941 L682.024494,323.389941 L694.794579,335.679948 L694.826584,335.679948 L694.826584,324.318093 C694.826584,323.99804 695.082626,323.709993 695.434683,323.709993 L699.27531,323.709993 C699.595363,323.709993 699.88341,323.99804 699.88341,324.318093 L699.88341,345.857609 C699.88341,346.177662 699.595363,346.433703 699.27531,346.433703 L698.763227,346.433703 C698.667211,346.433703 698.411169,346.337688 698.347159,346.273677 L685.705095,333.567603 L685.673089,333.567603 L685.673089,345.505552 C685.673089,345.825604 685.417048,346.113651 685.06499,346.113651 L681.256368,346.113651 C680.936316,346.113651 680.648269,345.825604 680.648269,345.505552 Z M705.388308,345.345526 L705.388308,324.478119 C705.388308,324.062051 705.708361,323.709993 706.156434,323.709993 L709.901045,323.709993 C710.317113,323.709993 710.66917,324.062051 710.66917,324.478119 L710.66917,332.895493 L717.774331,324.030046 C717.902351,323.87002 718.190398,323.709993 718.38243,323.709993 L722.415088,323.709993 C723.023187,323.709993 723.34324,324.414108 722.991182,324.894187 L715.50196,334.271718 L723.663292,344.897453 C724.015349,345.377531 723.663292,346.081646 723.055193,346.081646 L718.638472,346.081646 C718.414435,346.081646 718.126388,345.953625 718.062378,345.857609 L710.66917,335.807969 L710.66917,345.345526 C710.66917,345.761594 710.317113,346.113651 709.901045,346.113651 L706.156434,346.113651 C705.708361,346.113651 705.388308,345.761594 705.388308,345.345526 Z M741.074135,345.505552 L741.074135,324.318093 C741.074135,323.99804 741.330176,323.709993 741.682234,323.709993 L754.932397,323.709993 C755.284455,323.709993 755.540496,323.99804 755.540496,324.318093 L755.540496,327.806662 C755.540496,328.126715 755.284455,328.414762 754.932397,328.414762 L746.06695,328.414762 L746.06695,332.38341 L753.364141,332.38341 C753.684193,332.38341 753.97224,332.671457 753.97224,332.991509 L753.97224,336.480078 C753.97224,336.832136 753.684193,337.088178 753.364141,337.088178 L746.06695,337.088178 L746.06695,341.408883 L754.932397,341.408883 C755.284455,341.408883 755.540496,341.69693 755.540496,342.016982 L755.540496,345.505552 C755.540496,345.825604 755.284455,346.113651 754.932397,346.113651 L741.682234,346.113651 C741.330176,346.113651 741.074135,345.825604 741.074135,345.505552 Z M762.709667,345.505552 L762.709667,328.414762 L758.13292,328.414762 C757.780862,328.414762 757.52482,328.126715 757.52482,327.806662 L757.52482,324.318093 C757.52482,323.99804 757.780862,323.709993 758.13292,323.709993 L772.34324,323.709993 C772.695297,323.709993 772.951339,323.99804 772.951339,324.318093 L772.951339,327.806662 C772.951339,328.126715 772.695297,328.414762 772.34324,328.414762 L767.766492,328.414762 L767.766492,345.505552 C767.766492,345.825604 767.478445,346.113651 767.158393,346.113651 L763.317766,346.113651 C762.997714,346.113651 762.709667,345.825604 762.709667,345.505552 Z M776.151862,345.505552 L776.151862,324.318093 C776.151862,323.99804 776.439909,323.709993 776.759961,323.709993 L780.568583,323.709993 C780.92064,323.709993 781.176682,323.99804 781.176682,324.318093 L781.176682,332.38341 L790.330176,332.38341 L790.330176,324.318093 C790.330176,323.99804 790.586218,323.709993 790.938276,323.709993 L794.746897,323.709993 C795.06695,323.709993 795.354997,323.99804 795.354997,324.318093 L795.354997,345.505552 C795.354997,345.825604 795.06695,346.113651 794.746897,346.113651 L790.938276,346.113651 C790.586218,346.113651 790.330176,345.825604 790.330176,345.505552 L790.330176,337.088178 L781.176682,337.088178 L781.176682,345.505552 C781.176682,345.825604 780.92064,346.113651 780.568583,346.113651 L776.759961,346.113651 C776.439909,346.113651 776.151862,345.825604 776.151862,345.505552 Z M800.859895,345.505552 L800.859895,324.318093 C800.859895,323.99804 801.115937,323.709993 801.467995,323.709993 L814.718158,323.709993 C815.070216,323.709993 815.326257,323.99804 815.326257,324.318093 L815.326257,327.806662 C815.326257,328.126715 815.070216,328.414762 814.718158,328.414762 L805.852711,328.414762 L805.852711,332.38341 L813.149902,332.38341 C813.469954,332.38341 813.758001,332.671457 813.758001,332.991509 L813.758001,336.480078 C813.758001,336.832136 813.469954,337.088178 813.149902,337.088178 L805.852711,337.088178 L805.852711,341.408883 L814.718158,341.408883 C815.070216,341.408883 815.326257,341.69693 815.326257,342.016982 L815.326257,345.505552 C815.326257,345.825604 815.070216,346.113651 814.718158,346.113651 L801.467995,346.113651 C801.115937,346.113651 800.859895,345.825604 800.859895,345.505552 Z M819.614958,345.505552 L819.614958,324.318093 C819.614958,323.99804 819.870999,323.709993 820.223057,323.709993 L829.792619,323.709993 C833.633246,323.709993 836.769758,326.8145 836.769758,330.623122 C836.769758,333.567603 834.81744,335.93599 832.032985,337.056172 L836.417701,345.1855 C836.641737,345.601568 836.417701,346.113651 835.873612,346.113651 L831.616917,346.113651 C831.360875,346.113651 831.168844,345.953625 831.104833,345.825604 L826.848138,337.344219 L824.639778,337.344219 L824.639778,345.505552 C824.639778,345.825604 824.351731,346.113651 824.031679,346.113651 L820.223057,346.113651 C819.870999,346.113651 819.614958,345.825604 819.614958,345.505552 Z M824.639778,333.279556 L829.376551,333.279556 C830.688766,333.279556 831.808948,332.063357 831.808948,330.719138 C831.808948,329.374918 830.688766,328.286741 829.376551,328.286741 L824.639778,328.286741 L824.639778,333.279556 Z M841.058459,345.505552 L841.058459,324.318093 C841.058459,323.99804 841.3145,323.709993 841.666558,323.709993 L854.916721,323.709993 C855.268779,323.709993 855.52482,323.99804 855.52482,324.318093 L855.52482,327.806662 C855.52482,328.126715 855.268779,328.414762 854.916721,328.414762 L846.051274,328.414762 L846.051274,332.38341 L853.348465,332.38341 C853.668517,332.38341 853.956564,332.671457 853.956564,332.991509 L853.956564,336.480078 C853.956564,336.832136 853.668517,337.088178 853.348465,337.088178 L846.051274,337.088178 L846.051274,341.408883 L854.916721,341.408883 C855.268779,341.408883 855.52482,341.69693 855.52482,342.016982 L855.52482,345.505552 C855.52482,345.825604 855.268779,346.113651 854.916721,346.113651 L841.666558,346.113651 C841.3145,346.113651 841.058459,345.825604 841.058459,345.505552 Z M859.493468,337.536251 L859.493468,324.318093 C859.493468,323.99804 859.781515,323.709993 860.101568,323.709993 L864.03821,323.709993 C864.390268,323.709993 864.64631,323.99804 864.64631,324.318093 L864.64631,337.280209 C864.64631,339.520575 866.310581,341.312867 868.582952,341.312867 C870.887329,341.312867 872.583605,339.520575 872.583605,337.280209 L872.583605,324.318093 C872.583605,323.99804 872.839647,323.709993 873.191705,323.709993 L877.128347,323.709993 C877.4484,323.709993 877.736447,323.99804 877.736447,324.318093 L877.736447,337.536251 C877.736447,342.401045 873.639778,346.433703 868.582952,346.433703 C863.558132,346.433703 859.493468,342.401045 859.493468,337.536251 Z M881.481058,345.409536 L885.097649,323.902025 C885.129654,323.613978 885.417701,323.389941 885.673743,323.389941 L886.185826,323.389941 C886.345852,323.389941 886.633899,323.517962 886.729915,323.709993 L894.155127,337.536251 L894.219138,337.536251 L901.64435,323.709993 C901.740366,323.517962 902.028413,323.389941 902.188439,323.389941 L902.700523,323.389941 C902.956564,323.389941 903.244611,323.613978 903.276617,323.902025 L906.893207,345.409536 C906.957218,345.825604 906.66917,346.113651 906.285108,346.113651 L902.508491,346.113651 C902.220444,346.113651 901.932397,345.857609 901.900392,345.601568 L900.460157,335.711953 L900.396146,335.711953 L895.019268,346.081646 C894.923253,346.273677 894.635206,346.433703 894.47518,346.433703 L893.899086,346.433703 C893.707054,346.433703 893.451012,346.273677 893.354997,346.081646 L887.946114,335.711953 L887.882103,335.711953 L886.473873,345.601568 C886.441868,345.857609 886.185826,346.113651 885.865774,346.113651 L882.089157,346.113651 C881.705095,346.113651 881.417048,345.825604 881.481058,345.409536 Z"/>
    <path fill="#B1BBBF" fill-rule="nonzero" d="M1029.89157,512.815153 L1026.25669,504.310908 L1028.36904,504.310908 L1030.02874,508.192685 L1031.03005,505.613978 L1030.50882,504.310908 L1032.59373,504.310908 L1034.23971,508.178968 L1035.74853,504.310908 L1037.84716,504.310908 L1034.41803,512.815153 L1034.1437,512.815153 L1032.11365,508.069236 L1030.15219,512.815153 L1029.89157,512.815153 Z M1038.64272,512.540823 L1038.64272,504.310908 L1040.65905,504.310908 L1040.65905,512.540823 L1038.64272,512.540823 Z M1043.42978,512.540823 L1043.42978,506.094056 L1041.59177,506.094056 L1041.59177,504.310908 L1047.32528,504.310908 L1047.32528,506.094056 L1045.45983,506.094056 L1045.45983,512.540823 L1043.42978,512.540823 Z M1048.258,512.540823 L1048.258,504.310908 L1050.27433,504.310908 L1050.27433,507.548008 L1053.49771,507.548008 L1053.49771,504.310908 L1055.50033,504.310908 L1055.50033,512.540823 L1053.49771,512.540823 L1053.49771,509.290007 L1050.27433,509.290007 L1050.27433,512.540823 L1048.258,512.540823 Z M1060.1228,508.425865 C1060.1228,505.970607 1061.97453,504.036577 1064.58067,504.036577 C1066.14435,504.036577 1067.22796,504.626388 1068.10581,505.545395 L1066.72044,506.862182 C1066.14435,506.299804 1065.40366,505.943174 1064.58067,505.943174 C1063.113,505.943174 1062.16656,507.040496 1062.16656,508.425865 C1062.16656,509.811234 1063.113,510.908556 1064.58067,510.908556 C1065.40366,510.908556 1066.14435,510.551927 1066.72044,509.989549 L1068.06466,511.306336 C1067.24167,512.170477 1066.1032,512.815153 1064.58067,512.815153 C1061.97453,512.815153 1060.1228,510.881123 1060.1228,508.425865 Z M1068.75049,508.425865 C1068.75049,505.970607 1070.57479,504.036577 1073.18093,504.036577 C1075.77335,504.036577 1077.61137,505.970607 1077.61137,508.425865 C1077.61137,510.881123 1075.77335,512.815153 1073.18093,512.815153 C1070.57479,512.815153 1068.75049,510.881123 1068.75049,508.425865 Z M1070.79425,508.425865 C1070.79425,509.811234 1071.71326,510.908556 1073.18093,510.908556 C1074.63488,510.908556 1075.5676,509.811234 1075.5676,508.425865 C1075.5676,507.040496 1074.63488,505.943174 1073.18093,505.943174 C1071.71326,505.943174 1070.79425,507.040496 1070.79425,508.425865 Z M1079.01045,512.540823 L1079.01045,504.310908 L1081.13651,504.310908 L1084.33246,509.193991 L1084.33246,504.310908 L1086.33508,504.310908 L1086.33508,512.540823 L1084.23645,512.540823 L1081.02678,507.644024 L1081.02678,512.540823 L1079.01045,512.540823 Z M1089.10581,512.540823 L1089.10581,506.094056 L1087.2678,506.094056 L1087.2678,504.310908 L1093.00131,504.310908 L1093.00131,506.094056 L1091.13586,506.094056 L1091.13586,512.540823 L1089.10581,512.540823 Z M1093.93403,512.540823 L1093.93403,504.310908 L1097.37688,504.310908 C1099.14631,504.310908 1100.2985,505.380797 1100.2985,506.930764 C1100.2985,508.370999 1099.57152,509.180274 1098.35075,509.482038 L1100.57283,512.540823 L1098.04899,512.540823 L1095.95036,509.468321 L1095.95036,512.540823 L1093.93403,512.540823 Z M1095.95036,507.877204 L1097.56891,507.877204 C1098.02155,507.877204 1098.32332,507.410843 1098.32332,506.930764 C1098.32332,506.450686 1097.96669,506.025474 1097.51404,506.025474 L1095.95036,506.025474 L1095.95036,507.877204 Z M1101.28609,512.540823 L1101.28609,504.310908 L1103.30242,504.310908 L1103.30242,512.540823 L1101.28609,512.540823 Z M1104.6192,512.540823 L1104.6192,504.310908 L1107.9386,504.310908 C1109.31025,504.310908 1110.40758,505.325931 1110.40758,506.615284 C1110.40758,507.38341 1110.0921,507.863488 1109.516,508.302417 L1109.516,508.32985 C1110.36643,508.933377 1110.72306,509.509471 1110.72306,510.359895 C1110.72306,511.498367 1109.81777,512.540823 1108.25408,512.540823 L1104.6192,512.540823 Z M1106.62182,507.589157 L1107.58197,507.589157 C1108.04833,507.589157 1108.37753,507.273677 1108.37753,506.821032 C1108.37753,506.39582 1108.04833,506.066623 1107.58197,506.066623 L1106.62182,506.066623 L1106.62182,507.589157 Z M1106.62182,510.743958 L1107.84259,510.743958 C1108.30895,510.743958 1108.61071,510.469628 1108.61071,510.030699 C1108.61071,509.63292 1108.30895,509.303723 1107.84259,509.303723 L1106.62182,509.303723 L1106.62182,510.743958 Z M1111.69693,509.770085 L1111.69693,504.310908 L1113.69954,504.310908 L1113.69954,509.468321 C1113.69954,510.565643 1114.22077,510.949706 1114.92031,510.949706 C1115.68844,510.949706 1116.16852,510.565643 1116.16852,509.468321 L1116.16852,504.310908 L1118.18485,504.310908 L1118.18485,509.770085 C1118.18485,511.717831 1116.73089,512.815153 1114.92031,512.815153 C1113.04115,512.815153 1111.69693,511.662965 1111.69693,509.770085 Z M1120.95558,512.540823 L1120.95558,506.094056 L1119.11757,506.094056 L1119.11757,504.310908 L1124.85108,504.310908 L1124.85108,506.094056 L1122.98563,506.094056 L1122.98563,512.540823 L1120.95558,512.540823 Z M1125.7838,512.540823 L1125.7838,504.310908 L1127.80013,504.310908 L1127.80013,512.540823 L1125.7838,512.540823 Z M1129.19922,508.425865 C1129.19922,505.970607 1131.02351,504.036577 1133.62965,504.036577 C1136.22208,504.036577 1138.06009,505.970607 1138.06009,508.425865 C1138.06009,510.881123 1136.22208,512.815153 1133.62965,512.815153 C1131.02351,512.815153 1129.19922,510.881123 1129.19922,508.425865 Z M1131.24298,508.425865 C1131.24298,509.811234 1132.16199,510.908556 1133.62965,510.908556 C1135.08361,510.908556 1136.01633,509.811234 1136.01633,508.425865 C1136.01633,507.040496 1135.08361,505.943174 1133.62965,505.943174 C1132.16199,505.943174 1131.24298,507.040496 1131.24298,508.425865 Z M1139.45918,512.540823 L1139.45918,504.310908 L1141.58524,504.310908 L1144.78119,509.193991 L1144.78119,504.310908 L1146.7838,504.310908 L1146.7838,512.540823 L1144.68517,512.540823 L1141.47551,507.644024 L1141.47551,512.540823 L1139.45918,512.540823 Z M1148.05944,510.126715 L1150.0209,510.126715 C1150.0209,510.606793 1150.40496,510.990856 1150.87133,510.990856 C1151.37884,510.990856 1151.69432,510.702809 1151.69432,510.277596 C1151.69432,509.660353 1150.88504,509.482038 1150.21293,509.248857 C1148.82756,508.755062 1148.05944,508.110385 1148.05944,506.697583 C1148.05944,505.243632 1149.30764,504.036577 1150.85761,504.036577 C1152.68191,504.036577 1153.54605,505.202482 1153.65578,506.725016 L1151.7629,506.725016 C1151.7629,506.258654 1151.47485,505.874592 1150.91248,505.874592 C1150.47355,505.874592 1150.04833,506.135206 1150.04833,506.67015 C1150.04833,507.287394 1150.80274,507.397126 1151.50229,507.602874 C1152.96995,508.041803 1153.65578,508.864794 1153.65578,510.154148 C1153.65578,511.608099 1152.42129,512.815153 1150.87133,512.815153 C1149.07446,512.815153 1148.05944,511.608099 1148.05944,510.126715 Z M1158.51143,512.540823 L1158.51143,504.310908 L1161.83083,504.310908 C1163.20248,504.310908 1164.2998,505.325931 1164.2998,506.615284 C1164.2998,507.38341 1163.98432,507.863488 1163.40823,508.302417 L1163.40823,508.32985 C1164.25865,508.933377 1164.61528,509.509471 1164.61528,510.359895 C1164.61528,511.498367 1163.70999,512.540823 1162.14631,512.540823 L1158.51143,512.540823 Z M1160.51404,507.589157 L1161.4742,507.589157 C1161.94056,507.589157 1162.26976,507.273677 1162.26976,506.821032 C1162.26976,506.39582 1161.94056,506.066623 1161.4742,506.066623 L1160.51404,506.066623 L1160.51404,507.589157 Z M1160.51404,510.743958 L1161.73481,510.743958 C1162.20118,510.743958 1162.50294,510.469628 1162.50294,510.030699 C1162.50294,509.63292 1162.20118,509.303723 1161.73481,509.303723 L1160.51404,509.303723 L1160.51404,510.743958 Z M1167.39974,512.540823 L1167.39974,508.563031 L1164.47812,504.310908 L1166.75506,504.310908 L1168.40105,506.779882 L1170.06074,504.310908 L1172.32397,504.310908 L1169.40235,508.563031 L1169.40235,512.540823 L1167.39974,512.540823 Z"/>
    <path fill="#1D2E30" d="M1209.79752 517.570216L1209.79752 499.738733 1216.00973 499.738733C1221.27079 499.738733 1225.34291 503.602221 1225.34291 508.624755 1225.34291 513.379817 1221.71665 517.570216 1216.00973 517.570216L1209.79752 517.570216zM1213.91248 513.455258L1215.71086 513.455258C1218.57609 513.455258 1220.77074 511.461625 1220.77074 508.410762 1220.77074 505.601552 1218.85042 503.396473 1215.71086 503.396473L1213.91248 503.396473 1213.91248 513.455258zM1228.54344 517.570216L1228.54344 499.738733 1240.11059 499.738733 1240.11059 503.602221 1232.82649 503.602221 1232.82649 506.811888 1239.557 506.811888 1239.557 510.615937 1232.82649 510.615937 1232.82649 513.825604 1240.43109 513.825604 1240.43109 517.570216 1228.54344 517.570216zM1242.71718 517.570216L1242.71718 499.738733 1247.00023 499.738733 1247.00023 513.825604 1254.60483 513.825604 1254.60483 517.570216 1242.71718 517.570216zM1257.19063 517.570216L1257.19063 503.602221 1253.23318 503.602221 1253.23318 499.738733 1265.57805 499.738733 1265.57805 503.602221 1261.56154 503.602221 1261.56154 517.570216 1257.19063 517.570216zM1263.74918 517.570216L1272.47516 499.281515 1273.25214 499.281515 1282.03788 517.570216 1277.31629 517.570216 1276.41979 515.741346 1269.3374 515.741346 1268.47078 517.570216 1263.74918 517.570216zM1271.06466 512.99804L1275.17962 512.99804 1273.16592 508.425865 1273.10755 508.425865 1271.06466 512.99804zM1177.33508 519.277509L1188.02757 496.238673 1190.73261 492.88047 1203.85369 520.770738 1181.82312 520.770738 1177.33508 519.277509zM1184.19334 514.826911L1194.70934 514.826911 1189.56648 502.939255 1184.19334 514.826911zM1282.03788 508.197257C1282.03788 502.954258 1286.068 498.824298 1291.74001 498.824298 1295.14321 498.824298 1297.50158 500.083789 1299.41215 502.046252L1296.39703 504.85814C1295.14321 503.65723 1293.53117 502.895677 1291.74001 502.895677 1288.54577 502.895677 1286.48593 505.238917 1286.48593 508.197257 1286.48593 511.155597 1288.54577 513.498837 1291.74001 513.498837 1293.53117 513.498837 1295.14321 512.737284 1296.39703 511.536373L1299.32259 514.348261C1297.53143 516.193562 1295.05366 517.570216 1291.74001 517.570216 1286.068 517.570216 1282.03788 513.440256 1282.03788 508.197257zM1283.40954 508.197257C1283.40954 512.918967 1286.95023 516.655781 1291.83697 516.655781 1294.41202 516.655781 1296.34331 515.844689 1297.98197 514.338377L1296.31404 512.658259C1295.26061 513.585221 1293.59268 514.251474 1291.83697 514.251474 1288.06218 514.251474 1285.57492 511.58646 1285.57492 508.197257 1285.57492 504.808054 1288.06218 502.143039 1291.83697 502.143039 1293.5049 502.143039 1295.1143 502.751358 1296.37257 503.707287L1298.0405 502.114072C1296.48961 500.549824 1294.47054 499.738733 1291.83697 499.738733 1286.95023 499.738733 1283.40954 503.475546 1283.40954 508.197257zM1299.86937 517.112998L1308.3772 498.824298 1309.13474 498.824298 1317.70085 517.112998 1313.0973 517.112998 1312.2232 515.284128 1305.31788 515.284128 1304.47292 517.112998 1299.86937 517.112998zM1300.7838 516.198563L1303.13019 516.198563 1308.11998 505.73865 1308.5358 505.73865 1313.46619 516.198563 1315.87198 516.198563 1308.29819 500.653168 1300.7838 516.198563zM1306.72763 512.083605L1310.84259 512.083605 1308.82951 507.51143 1308.77031 507.51143 1306.72763 512.083605zM1305.35598 513.912476L1311.2998 513.912476 1310.66098 512.540823 1305.96702 512.540823 1305.35598 513.912476zM1319.52972 516.980257L1319.52972 499.281515 1323.53254 499.281515 1328.00285 508.838836 1332.50238 499.281515 1336.44677 499.281515 1336.44677 516.980257 1332.18098 516.980257 1332.18098 509.104317 1328.35346 517.570216 1327.65224 517.570216 1323.82472 509.045321 1323.82472 516.980257 1319.52972 516.980257zM1320.90137 516.198563L1323.01634 516.198563 1323.01634 505.461516 1323.50887 505.461516 1328.23134 515.816148 1333.04072 505.461516 1333.44633 505.461516 1333.44633 516.198563 1335.53233 516.198563 1335.53233 500.19595 1333.41736 500.19595 1328.63695 510.521166 1327.82573 510.521166 1323.07429 500.19595 1320.90137 500.19595 1320.90137 516.198563zM1338.73285 517.112998L1338.73285 499.738733 1346.19493 499.738733C1349.85165 499.738733 1351.99216 502.37383 1351.99216 505.298498 1351.99216 508.541694 1349.49489 510.858263 1346.19493 510.858263L1343.07335 510.858263 1343.07335 517.112998 1338.73285 517.112998zM1340.10451 516.198563L1342.22836 516.198563 1342.22836 509.844584 1346.47605 509.844584C1349.16036 509.844584 1351.07773 507.756008 1351.07773 504.932018 1351.07773 502.402193 1349.42584 500.19595 1346.47605 500.19595L1340.10451 500.19595 1340.10451 516.198563zM1342.39059 507.968648L1342.39059 502.482038 1346.21384 502.482038C1347.86479 502.482038 1348.79164 503.745969 1348.79164 505.21098 1348.79164 506.790894 1347.86479 507.968648 1346.21384 507.968648L1342.39059 507.968648zM1343.30503 507.054213L1346.07882 507.054213C1347.2371 507.054213 1347.8772 505.971329 1347.8772 504.888446 1347.8772 503.867441 1347.26758 502.939255 1346.07882 502.939255L1343.30503 502.939255 1343.30503 507.054213z"/>
    <path stroke="#0CC0D8" stroke-linecap="round" stroke-linejoin="round" d="M6.0962647,-0.499999146 L6.0980608,-0.49999924 C8.05470245,-0.496586639 9.6443501,1.05230864 9.6443501,2.97206154 C9.64421609,4.89174122 8.05472266,6.44028295 6.09631358,6.44382699 C5.67551108,6.44318693 5.26336401,6.36930481 4.8727731,6.22803375 L4.21189699,5.98900445 L4.6543889,5.44302537 C4.66025201,5.43579103 4.66442148,5.42830339 4.66689341,5.42106686 L4.82944716,4.9451941 L5.30438162,5.1104692 C5.55924869,5.19916181 5.82540279,5.2451122 6.09711698,5.24520342 C7.39487335,5.24501715 8.44019334,4.22504564 8.44235323,2.97292527 C8.44009944,1.71891753 7.39488071,0.699016403 6.09718874,0.698737 C5.82716979,0.698737 5.56279492,0.744089622 5.31004856,0.831661488 L4.82062185,1.00123865 L4.66842629,0.506131161 C4.66614264,0.498702237 4.66213499,0.490944573 4.65591967,0.482710863 L4.24570952,-0.0607123222 L4.88699968,-0.289465565 C5.27320203,-0.427226978 5.68045266,-0.499230688 6.0962647,-0.499999146 Z M5.0711206,5.78076799 L5.43127955,6.0726609 C5.51057388,5.97482174 5.57238738,5.8638155 5.61320641,5.74431865 L5.14004991,5.58269275 L5.0711206,5.78076799 Z M5.07859478,0.163648988 L5.14635517,0.359216282 L5.62428406,0.212301403 C5.58734206,0.0921253623 5.52952971,-0.0197827185 5.45405271,-0.119770378 L5.07859478,0.163648988 Z M6.09721472,0.500000959 C6.09751407,0.500000304 6.09781342,0.499999699 6.09811279,0.499999146 L6.09631669,0.49999924 C6.09661606,0.499999762 6.09691542,0.500000334 6.09721477,0.500000955 Z M3.04791576,5.2452034 C3.31994737,5.24509859 3.58595746,5.19920813 3.83958468,5.11071578 L4.31275434,4.94562352 L4.47676511,5.41916913 C4.47982268,5.4279972 4.48424791,5.43594729 4.49007584,5.44313822 L4.93280022,5.98940414 L4.27145833,6.22823092 C3.8809989,6.3692354 3.46922877,6.44305901 3.04705843,6.44382674 C1.09010458,6.44028305 -0.499731982,4.89176917 -0.499999995,2.97195683 C-0.499731972,1.05221178 1.09018824,-0.49658688 3.04888876,-0.499999145 C3.4644629,-0.499230404 3.8717531,-0.42719005 4.25768482,-0.289428055 L4.89785078,-0.0609147293 L4.48907364,0.482161737 C4.48235865,0.491082858 4.47819178,0.499126179 4.47603845,0.506131161 L4.32380653,1.00135691 L3.83430342,0.831622406 C3.58202074,0.744143747 3.31790529,0.698849855 3.04803562,0.69884985 C1.75022825,0.699036141 0.704344233,1.71918854 0.701996803,2.97109049 C0.704344161,4.22482613 1.75016385,5.24495432 3.04791576,5.2452034 Z M4.07339552,5.7808392 L4.00430019,5.58280561 L3.53183527,5.74644209 C3.5729901,5.86526776 3.63434631,5.97549655 3.71318518,6.07277376 L4.07339552,5.7808392 Z M4.06592115,0.163652145 L3.69011275,-0.119221253 C3.6148886,-0.0192830165 3.55704921,0.092364383 3.52018068,0.212301403 L3.99810957,0.359216282 L4.06592115,0.163652145 Z M5.46872625,5.50882638 C5.41236501,5.95189948 5.03018708,6.29090954 4.57211773,6.29090954 C4.07594088,6.29090954 3.66898747,5.89343992 3.66846629,5.3960312 C3.66846629,4.89914683 4.075496,4.50238606 4.57314745,4.50137962 C4.63720067,4.50151154 4.70030091,4.50831711 4.76158719,4.52135304 C5.02331076,4.24954735 5.2138574,3.918574 5.31626408,3.54924291 C5.31170716,3.56536837 5.31170716,3.56536837 5.31448937,3.5549084 C5.32361742,3.52148121 5.33219319,3.48674126 5.34014614,3.45108696 C5.34029788,3.45040001 5.34029788,3.45040001 5.34063905,3.44882249 C5.34107164,3.44680815 5.34107164,3.44680815 5.34168867,3.44392526 C5.34320264,3.43686269 5.34320264,3.43686269 5.34363109,3.43515349 C5.35343647,3.3871538 5.35686037,3.36939402 5.36278002,3.33490682 C5.36283727,3.33440194 5.36309608,3.33255109 5.36355149,3.32929435 C5.3636267,3.32873103 5.3636267,3.32873103 5.36370661,3.32813224 C5.36453069,3.32194559 5.36453069,3.32194559 5.36730491,3.30298364 C5.37400065,3.25997139 5.37600025,3.2455996 5.37934954,3.21537024 C5.38012767,3.20816645 5.38012767,3.20816645 5.38177017,3.18822541 C5.38225301,3.18224853 5.38225301,3.18224853 5.38313116,3.17179031 C5.38381453,3.16428395 5.38381453,3.16428395 5.38446789,3.15717205 C5.38520737,3.14912361 5.38520737,3.14912361 5.38589003,3.14160946 C5.38813632,3.11603412 5.38813632,3.11603412 5.3893327,3.09773709 C5.39193337,3.0515521 5.39324216,3.01048153 5.39324216,2.97202664 L5.39335548,2.97191332 C5.39187535,2.3367292 5.12179094,1.74413598 4.65321412,1.316885 L4.25615617,0.954845319 L4.64580263,0.584840753 C4.65255601,0.578427806 4.65892033,0.569853741 4.66445043,0.559047146 L4.96001917,-0.0185356358 L5.44322625,0.414446662 C6.17164635,1.06715442 6.59523984,1.98579769 6.59523984,2.97213949 C6.59523984,3.03663312 6.59318565,3.10232124 6.58908871,3.17403489 C6.58729933,3.1990221 6.58729933,3.1990221 6.58582145,3.21559731 C6.5857811,3.21605376 6.5857811,3.21605376 6.58574151,3.21650168 C6.58485347,3.22664608 6.58485347,3.22664608 6.58427691,3.23440299 C6.57935193,3.29661984 6.57935193,3.29661984 6.57215407,3.3667172 C6.56799031,3.39957383 6.56799031,3.39957383 6.56459193,3.42264922 C6.56453159,3.42306114 6.56453159,3.42306114 6.56447181,3.42346917 C6.5626145,3.43618661 6.5626145,3.43618661 6.56081673,3.44934805 C6.55392469,3.49797688 6.55392469,3.49797688 6.54424456,3.55749797 C6.53531194,3.60643165 6.53531194,3.60643165 6.52658548,3.64913129 C6.51761677,3.69311493 6.51761677,3.69311493 6.5063963,3.74337561 C6.49398525,3.79475704 6.49398525,3.79475704 6.48160664,3.84248915 C6.47109883,3.88183051 6.47109883,3.88183051 6.4595648,3.92248827 C6.44394235,3.97518112 6.44394235,3.97518112 6.42568301,4.03207772 C6.41551283,4.06274257 6.41551283,4.06274257 6.4057904,4.09051467 C6.38444948,4.15102176 6.38444948,4.15102176 6.35802861,4.22027002 C6.35512715,4.22740952 6.35512715,4.22740952 6.3527895,4.23306552 C6.34902616,4.2421361 6.34902616,4.2421361 6.34780741,4.24513199 L6.34743534,4.2460572 C6.1534965,4.72693399 5.85216996,5.15793984 5.46872625,5.50882638 Z M4.57262152,5.09183423 L4.57161445,5.09183423 C4.41020725,5.0919967 4.2743657,5.22456403 4.27400333,5.39751891 C4.27454737,5.56747097 4.41052253,5.70011556 4.57211773,5.70011556 C4.73394497,5.70011556 4.87028169,5.56701351 4.87046369,5.39538426 C4.8702815,5.224821 4.73428416,5.09199712 4.57262152,5.09183423 Z M3.75146095,2.97471513 C3.75373851,3.60453505 4.02034671,4.19229551 4.48324951,4.61893259 L4.86693264,4.97255641 L4.49727495,5.34081683 C4.4903937,5.34767206 4.4848615,5.35551703 4.48075117,5.36423579 L4.1936664,5.9731952 L3.69366617,5.52236375 C2.96999121,4.86985318 2.54956882,3.95455941 2.54956882,2.97213949 C2.54956882,2.90720847 2.55156738,2.84146386 2.5554665,2.77320441 C2.55777836,2.73967683 2.55777836,2.73967683 2.55988705,2.71630922 C2.56085124,2.70551616 2.56085124,2.70551616 2.56163354,2.69609252 C2.5622585,2.68860665 2.5622585,2.68860665 2.56290666,2.68078427 C2.56670494,2.63474854 2.56670494,2.63474854 2.57277467,2.57676724 C2.57735082,2.54074496 2.57735082,2.54074496 2.58136757,2.51284321 C2.58182763,2.50963887 2.58182763,2.50963887 2.58226894,2.50656009 C2.58353425,2.49769974 2.58353425,2.49769974 2.58505179,2.48682261 C2.58565473,2.48263205 2.58565473,2.48263205 2.58627433,2.47832188 C2.58995132,2.45275891 2.58995132,2.45275891 2.59445878,2.4232788 C2.5973745,2.40502263 2.5973745,2.40502263 2.60053603,2.38669428 C2.60872246,2.34199904 2.60872246,2.34199904 2.615986,2.30600285 C2.61766425,2.29767345 2.61766425,2.29767345 2.61962527,2.28790538 C2.62806699,2.24687554 2.62806699,2.24687554 2.63844068,2.20078579 C2.65148624,2.14634095 2.65148624,2.14634095 2.66501634,2.09405241 C2.67511193,2.05673329 2.67511193,2.05673329 2.68540156,2.021686 C2.70182928,1.96578296 2.70182928,1.96578296 2.72062376,1.90699855 C2.72679328,1.88844688 2.72679328,1.88844688 2.73194564,1.87368039 C2.73474549,1.86571726 2.73474549,1.86571726 2.73709068,1.8590728 C2.73852422,1.85500149 2.73852422,1.85500149 2.73935809,1.85262299 C2.76145518,1.78956321 2.77129522,1.76263047 2.79065045,1.71390117 C2.79301475,1.70821173 2.79301475,1.70821173 2.79555222,1.70212107 C2.79817784,1.69583457 2.79817784,1.69583457 2.79801634,1.69635596 C2.99142191,1.21731679 3.29142713,0.788061899 3.6730644,0.43836842 C3.71865033,-0.0158917701 4.1061428,-0.365783348 4.57310934,-0.366492394 C5.0685924,-0.365736955 5.47573793,0.0309019163 5.47599783,0.528833457 C5.47521656,1.02540787 5.06834724,1.42256041 4.57234701,1.4228123 C4.51346474,1.4228123 4.45546127,1.41711259 4.39896162,1.40608195 C4.1298902,1.68015136 3.93435056,2.01485807 3.83322296,2.37857082 C3.83193184,2.38328177 3.83193184,2.38328177 3.83138196,2.38523849 C3.831244,2.38573636 3.831244,2.38573636 3.83112097,2.38618867 C3.82170934,2.42019019 3.81292763,2.45541342 3.80506603,2.49055356 C3.80467627,2.49232112 3.80467627,2.49232112 3.80403008,2.49527841 C3.80388448,2.49594447 3.80388448,2.49594447 3.80372787,2.49666018 C3.80206671,2.50423798 3.80206671,2.50423798 3.80189204,2.50466807 C3.79456811,2.53917898 3.78810902,2.5727623 3.78211446,2.60787668 C3.78206973,2.60819796 3.78190951,2.60925989 3.78161856,2.61118837 C3.78148615,2.61208882 3.78148615,2.61208882 3.78133285,2.61313317 C3.78019669,2.62090613 3.78019669,2.62090613 3.77864981,2.6307563 C3.77088356,2.68155314 3.76845818,2.69883175 3.76576624,2.72233277 C3.7653719,2.72628908 3.7653719,2.72628908 3.7644647,2.73679773 C3.76361828,2.7467492 3.76361828,2.7467492 3.76231195,2.76094762 C3.75764903,2.80994666 3.75626929,2.82613019 3.75498371,2.84848824 L3.75496797,2.84876069 C3.75374329,2.86985857 3.75340704,2.88383832 3.75281099,2.93856422 C3.75236686,2.95382983 3.75236686,2.95382983 3.75191191,2.9642242 C3.75181867,2.96631363 3.75181867,2.96631363 3.75173655,2.9681324 C3.75159978,2.97149303 3.7515124,2.97364026 3.75146095,2.97471513 Z M4.57223237,0.832131171 C4.73376223,0.832131171 4.86950552,0.699660185 4.87023212,0.526330017 C4.86968674,0.356319363 4.73422502,0.224174684 4.57122478,0.223850601 C4.41010852,0.22417528 4.27484524,0.35623023 4.27411996,0.530068029 C4.27484393,0.69968728 4.41061335,0.832131171 4.57223237,0.832131171 Z" transform="translate(726.519 331.94)"/>
    <path stroke="#0CC0D8" stroke-linecap="round" stroke-linejoin="round" d="M6.0962647,-0.499999146 L6.0980608,-0.49999924 C8.05470245,-0.496586639 9.6443501,1.05230864 9.6443501,2.97206154 C9.64421609,4.89174122 8.05472266,6.44028295 6.09631358,6.44382699 C5.67551108,6.44318693 5.26336401,6.36930481 4.8727731,6.22803375 L4.21189699,5.98900445 L4.6543889,5.44302537 C4.66025201,5.43579103 4.66442148,5.42830339 4.66689341,5.42106686 L4.82944716,4.9451941 L5.30438162,5.1104692 C5.55924869,5.19916181 5.82540279,5.2451122 6.09711698,5.24520342 C7.39487335,5.24501715 8.44019334,4.22504564 8.44235323,2.97292527 C8.44009944,1.71891753 7.39488071,0.699016403 6.09718874,0.698737 C5.82716979,0.698737 5.56279492,0.744089622 5.31004856,0.831661488 L4.82062185,1.00123865 L4.66842629,0.506131161 C4.66614264,0.498702237 4.66213499,0.490944573 4.65591967,0.482710863 L4.24570952,-0.0607123222 L4.88699968,-0.289465565 C5.27320203,-0.427226978 5.68045266,-0.499230688 6.0962647,-0.499999146 Z M5.0711206,5.78076799 L5.43127955,6.0726609 C5.51057388,5.97482174 5.57238738,5.8638155 5.61320641,5.74431865 L5.14004991,5.58269275 L5.0711206,5.78076799 Z M5.07859478,0.163648988 L5.14635517,0.359216282 L5.62428406,0.212301403 C5.58734206,0.0921253623 5.52952971,-0.0197827185 5.45405271,-0.119770378 L5.07859478,0.163648988 Z M6.09721472,0.500000959 C6.09751407,0.500000304 6.09781342,0.499999699 6.09811279,0.499999146 L6.09631669,0.49999924 C6.09661606,0.499999762 6.09691542,0.500000334 6.09721477,0.500000955 Z M3.04791576,5.2452034 C3.31994737,5.24509859 3.58595746,5.19920813 3.83958468,5.11071578 L4.31275434,4.94562352 L4.47676511,5.41916913 C4.47982268,5.4279972 4.48424791,5.43594729 4.49007584,5.44313822 L4.93280022,5.98940414 L4.27145833,6.22823092 C3.8809989,6.3692354 3.46922877,6.44305901 3.04705843,6.44382674 C1.09010458,6.44028305 -0.499731982,4.89176917 -0.499999995,2.97195683 C-0.499731972,1.05221178 1.09018824,-0.49658688 3.04888876,-0.499999145 C3.4644629,-0.499230404 3.8717531,-0.42719005 4.25768482,-0.289428055 L4.89785078,-0.0609147293 L4.48907364,0.482161737 C4.48235865,0.491082858 4.47819178,0.499126179 4.47603845,0.506131161 L4.32380653,1.00135691 L3.83430342,0.831622406 C3.58202074,0.744143747 3.31790529,0.698849855 3.04803562,0.69884985 C1.75022825,0.699036141 0.704344233,1.71918854 0.701996803,2.97109049 C0.704344161,4.22482613 1.75016385,5.24495432 3.04791576,5.2452034 Z M4.07339552,5.7808392 L4.00430019,5.58280561 L3.53183527,5.74644209 C3.5729901,5.86526776 3.63434631,5.97549655 3.71318518,6.07277376 L4.07339552,5.7808392 Z M4.06592115,0.163652145 L3.69011275,-0.119221253 C3.6148886,-0.0192830165 3.55704921,0.092364383 3.52018068,0.212301403 L3.99810957,0.359216282 L4.06592115,0.163652145 Z M5.46872625,5.50882638 C5.41236501,5.95189948 5.03018708,6.29090954 4.57211773,6.29090954 C4.07594088,6.29090954 3.66898747,5.89343992 3.66846629,5.3960312 C3.66846629,4.89914683 4.075496,4.50238606 4.57314745,4.50137962 C4.63720067,4.50151154 4.70030091,4.50831711 4.76158719,4.52135304 C5.02331076,4.24954735 5.2138574,3.918574 5.31626408,3.54924291 C5.31170716,3.56536837 5.31170716,3.56536837 5.31448937,3.5549084 C5.32361742,3.52148121 5.33219319,3.48674126 5.34014614,3.45108696 C5.34029788,3.45040001 5.34029788,3.45040001 5.34063905,3.44882249 C5.34107164,3.44680815 5.34107164,3.44680815 5.34168867,3.44392526 C5.34320264,3.43686269 5.34320264,3.43686269 5.34363109,3.43515349 C5.35343647,3.3871538 5.35686037,3.36939402 5.36278002,3.33490682 C5.36283727,3.33440194 5.36309608,3.33255109 5.36355149,3.32929435 C5.3636267,3.32873103 5.3636267,3.32873103 5.36370661,3.32813224 C5.36453069,3.32194559 5.36453069,3.32194559 5.36730491,3.30298364 C5.37400065,3.25997139 5.37600025,3.2455996 5.37934954,3.21537024 C5.38012767,3.20816645 5.38012767,3.20816645 5.38177017,3.18822541 C5.38225301,3.18224853 5.38225301,3.18224853 5.38313116,3.17179031 C5.38381453,3.16428395 5.38381453,3.16428395 5.38446789,3.15717205 C5.38520737,3.14912361 5.38520737,3.14912361 5.38589003,3.14160946 C5.38813632,3.11603412 5.38813632,3.11603412 5.3893327,3.09773709 C5.39193337,3.0515521 5.39324216,3.01048153 5.39324216,2.97202664 L5.39335548,2.97191332 C5.39187535,2.3367292 5.12179094,1.74413598 4.65321412,1.316885 L4.25615617,0.954845319 L4.64580263,0.584840753 C4.65255601,0.578427806 4.65892033,0.569853741 4.66445043,0.559047146 L4.96001917,-0.0185356358 L5.44322625,0.414446662 C6.17164635,1.06715442 6.59523984,1.98579769 6.59523984,2.97213949 C6.59523984,3.03663312 6.59318565,3.10232124 6.58908871,3.17403489 C6.58729933,3.1990221 6.58729933,3.1990221 6.58582145,3.21559731 C6.5857811,3.21605376 6.5857811,3.21605376 6.58574151,3.21650168 C6.58485347,3.22664608 6.58485347,3.22664608 6.58427691,3.23440299 C6.57935193,3.29661984 6.57935193,3.29661984 6.57215407,3.3667172 C6.56799031,3.39957383 6.56799031,3.39957383 6.56459193,3.42264922 C6.56453159,3.42306114 6.56453159,3.42306114 6.56447181,3.42346917 C6.5626145,3.43618661 6.5626145,3.43618661 6.56081673,3.44934805 C6.55392469,3.49797688 6.55392469,3.49797688 6.54424456,3.55749797 C6.53531194,3.60643165 6.53531194,3.60643165 6.52658548,3.64913129 C6.51761677,3.69311493 6.51761677,3.69311493 6.5063963,3.74337561 C6.49398525,3.79475704 6.49398525,3.79475704 6.48160664,3.84248915 C6.47109883,3.88183051 6.47109883,3.88183051 6.4595648,3.92248827 C6.44394235,3.97518112 6.44394235,3.97518112 6.42568301,4.03207772 C6.41551283,4.06274257 6.41551283,4.06274257 6.4057904,4.09051467 C6.38444948,4.15102176 6.38444948,4.15102176 6.35802861,4.22027002 C6.35512715,4.22740952 6.35512715,4.22740952 6.3527895,4.23306552 C6.34902616,4.2421361 6.34902616,4.2421361 6.34780741,4.24513199 L6.34743534,4.2460572 C6.1534965,4.72693399 5.85216996,5.15793984 5.46872625,5.50882638 Z M4.57262152,5.09183423 L4.57161445,5.09183423 C4.41020725,5.0919967 4.2743657,5.22456403 4.27400333,5.39751891 C4.27454737,5.56747097 4.41052253,5.70011556 4.57211773,5.70011556 C4.73394497,5.70011556 4.87028169,5.56701351 4.87046369,5.39538426 C4.8702815,5.224821 4.73428416,5.09199712 4.57262152,5.09183423 Z M3.75146095,2.97471513 C3.75373851,3.60453505 4.02034671,4.19229551 4.48324951,4.61893259 L4.86693264,4.97255641 L4.49727495,5.34081683 C4.4903937,5.34767206 4.4848615,5.35551703 4.48075117,5.36423579 L4.1936664,5.9731952 L3.69366617,5.52236375 C2.96999121,4.86985318 2.54956882,3.95455941 2.54956882,2.97213949 C2.54956882,2.90720847 2.55156738,2.84146386 2.5554665,2.77320441 C2.55777836,2.73967683 2.55777836,2.73967683 2.55988705,2.71630922 C2.56085124,2.70551616 2.56085124,2.70551616 2.56163354,2.69609252 C2.5622585,2.68860665 2.5622585,2.68860665 2.56290666,2.68078427 C2.56670494,2.63474854 2.56670494,2.63474854 2.57277467,2.57676724 C2.57735082,2.54074496 2.57735082,2.54074496 2.58136757,2.51284321 C2.58182763,2.50963887 2.58182763,2.50963887 2.58226894,2.50656009 C2.58353425,2.49769974 2.58353425,2.49769974 2.58505179,2.48682261 C2.58565473,2.48263205 2.58565473,2.48263205 2.58627433,2.47832188 C2.58995132,2.45275891 2.58995132,2.45275891 2.59445878,2.4232788 C2.5973745,2.40502263 2.5973745,2.40502263 2.60053603,2.38669428 C2.60872246,2.34199904 2.60872246,2.34199904 2.615986,2.30600285 C2.61766425,2.29767345 2.61766425,2.29767345 2.61962527,2.28790538 C2.62806699,2.24687554 2.62806699,2.24687554 2.63844068,2.20078579 C2.65148624,2.14634095 2.65148624,2.14634095 2.66501634,2.09405241 C2.67511193,2.05673329 2.67511193,2.05673329 2.68540156,2.021686 C2.70182928,1.96578296 2.70182928,1.96578296 2.72062376,1.90699855 C2.72679328,1.88844688 2.72679328,1.88844688 2.73194564,1.87368039 C2.73474549,1.86571726 2.73474549,1.86571726 2.73709068,1.8590728 C2.73852422,1.85500149 2.73852422,1.85500149 2.73935809,1.85262299 C2.76145518,1.78956321 2.77129522,1.76263047 2.79065045,1.71390117 C2.7954634,1.70231787 2.7954634,1.70231787 2.79801634,1.69635596 C2.99142191,1.21731679 3.29142713,0.788061899 3.6730644,0.43836842 C3.71865033,-0.0158917701 4.1061428,-0.365783348 4.57310934,-0.366492394 C5.0685924,-0.365736955 5.47573793,0.0309019163 5.47599783,0.528833457 C5.47521656,1.02540787 5.06834724,1.42256041 4.57234701,1.4228123 C4.51346474,1.4228123 4.45546127,1.41711259 4.39896162,1.40608195 C4.1298902,1.68015136 3.93435056,2.01485807 3.83322296,2.37857082 C3.83193184,2.38328177 3.83193184,2.38328177 3.83138196,2.38523849 C3.831244,2.38573636 3.831244,2.38573636 3.83112097,2.38618867 C3.82170934,2.42019019 3.81292763,2.45541342 3.80506603,2.49055356 C3.80467627,2.49232112 3.80467627,2.49232112 3.80403008,2.49527841 C3.80388448,2.49594447 3.80388448,2.49594447 3.80372787,2.49666018 C3.80206671,2.50423798 3.80206671,2.50423798 3.80189204,2.50466807 C3.79456811,2.53917898 3.78810902,2.5727623 3.78211446,2.60787668 C3.78206973,2.60819796 3.78190951,2.60925989 3.78161856,2.61118837 C3.78148615,2.61208882 3.78148615,2.61208882 3.78133285,2.61313317 C3.78019669,2.62090613 3.78019669,2.62090613 3.77864981,2.6307563 C3.77088356,2.68155314 3.76845818,2.69883175 3.76576624,2.72233277 C3.7653719,2.72628908 3.7653719,2.72628908 3.7644647,2.73679773 C3.76361828,2.7467492 3.76361828,2.7467492 3.76231195,2.76094762 C3.75764903,2.80994666 3.75626929,2.82613019 3.75498371,2.84848824 L3.75496797,2.84876069 C3.75374329,2.86985857 3.75340704,2.88383832 3.75281099,2.93856422 C3.75236686,2.95382983 3.75236686,2.95382983 3.75191191,2.9642242 C3.75181867,2.96631363 3.75181867,2.96631363 3.75173655,2.9681324 C3.75159978,2.97149303 3.7515124,2.97364026 3.75146095,2.97471513 Z M4.57223237,0.832131171 C4.73376223,0.832131171 4.86950552,0.699660185 4.87023212,0.526330017 C4.86968674,0.356319363 4.73422502,0.224174684 4.57122478,0.223850601 C4.41010852,0.22417528 4.27484524,0.35623023 4.27411996,0.530068029 C4.27484393,0.69968728 4.41061335,0.832131171 4.57223237,0.832131171 Z" transform="translate(640.105 331.94)"/>
  </g>
</svg>
