<svg xmlns="http://www.w3.org/2000/svg" width="1400" height="560" viewBox="0 0 1400 560" style="background:#fff">
  <g fill="none" fill-rule="evenodd">
    <g fill-rule="nonzero" transform="translate(590.973 133.958)">
      <path fill="#FF00C0" stroke="#FF00C0" stroke-linecap="round" stroke-linejoin="round" stroke-width="4" d="M159.784769,56.4952523 C158.745997,56.496883 157.829879,55.9838597 157.271117,55.1958138 C157.271117,55.1958138 154.583624,52.1286481 153.13421,50.677385 C147.002912,44.5460872 139.860308,39.7369924 131.905574,36.3820956 C123.672871,32.9100967 114.922392,31.1570645 105.894678,31.1712367 C96.8657326,31.1854109 88.1097066,32.9659259 79.8672924,36.4637884 C71.9013711,39.8436784 64.7436324,44.6752227 58.5936692,50.8258003 C52.4424732,56.9776107 47.6103145,64.134735 44.2310408,72.1000399 C40.7344072,80.343683 38.9532749,89.1009407 38.9391036,98.1280398 C38.9249324,107.155139 40.678578,115.906848 44.1493462,124.139553 C47.5036276,132.094287 52.3133387,139.236275 58.4452519,145.367572 C64.5765488,151.499485 71.719153,156.30858 79.6738863,159.663477 C87.9053588,163.135477 96.6558376,164.88851 105.684783,164.874335 C114.712497,164.860163 123.469139,163.079647 131.712168,159.581784 C137.514186,157.120368 142.884805,153.884244 147.752547,149.932603 C147.494055,149.168085 147.350112,148.348004 147.351451,147.494463 C147.357991,143.328914 150.740532,139.946374 154.905465,139.939835 C159.071629,139.933295 162.443566,143.305232 162.437027,147.470781 C162.430487,151.636945 159.047947,155.018871 154.881783,155.025411 C153.847934,155.027034 152.861798,154.819967 151.964542,154.443529 C139.353222,164.790712 123.23391,171.016632 105.675097,171.044197 C65.3457669,171.107508 32.7040857,138.466443 32.7673971,98.1371132 C32.8307084,57.807783 65.5750355,25.063456 105.904366,25.0001446 C128.46319,24.9647304 148.608399,35.1706438 161.976427,51.2247348 C162.533091,51.7820147 162.878343,52.5525497 162.877007,53.4036287 C162.873713,55.1100954 161.490619,56.4925744 159.784769,56.4952523 Z" transform="scale(1 -1) rotate(45 334.469 0)"/>
      <polygon fill="#0CC0D8" points="102.027 108.042 102.027 85.042 80.027 94.883"/>
      <polygon fill="#0CC0D8" points="102.027 81.136 102.027 53.042 80.027 91.042"/>
      <polygon fill="#0CC0D8" points="105.027 53.042 105.027 81.036 128.027 91.042"/>
      <polygon fill="#0CC0D8" points="105.027 85.042 105.027 108.042 127.027 94.89"/>
      <polygon fill="#0CC0D8" points="102.027 135.042 102.027 116.288 80.027 103.042"/>
      <polygon fill="#0CC0D8" points="106.027 135.042 128.027 103.042 106.027 116.288"/>
    </g>
    <path fill="#0CC0D8" fill-rule="nonzero" d="M445.817656,375 C445.172263,375 444.828053,374.414085 445.08621,373.828169 L458.553423,343.495775 C458.682501,343.225352 458.983685,343 459.284869,343 L459.715131,343 C460.016315,343 460.317499,343.225352 460.446577,343.495775 L473.91379,373.828169 C474.171947,374.414085 473.827737,375 473.182344,375 L468.406431,375 C467.631959,375 467.287749,374.729577 466.900513,373.873239 L465.351568,370.312676 L453.648432,370.312676 L452.099487,373.91831 C451.884356,374.459155 451.411067,375 450.550542,375 L445.817656,375 Z M456,364 L463,364 L459.5,357 L459.453947,357 L456,364 Z M477,373.158571 L477,343.841429 C477,343.398571 477.347107,343 477.82438,343 L488.280992,343 C493.617769,343 498,347.428571 498,352.787143 C498,358.278571 493.617769,362.751429 488.32438,362.751429 L483.768595,362.751429 L483.768595,373.158571 C483.768595,373.601429 483.378099,374 482.944215,374 L477.82438,374 C477.347107,374 477,373.601429 477,373.158571 Z M484,357 L488.367816,357 C490.344828,357 492,355.444444 492,353.385621 C492,351.464052 490.344828,350 488.367816,350 L484,350 L484,357 Z M501,359.044444 C501,350.155556 507.855355,343 516.478442,343 C525.10153,343 532,350.155556 532,359.044444 C532,367.933333 525.10153,375 516.478442,375 C507.855355,375 501,367.933333 501,359.044444 Z M508,359.045 C508,363.95 511.834586,368 516.478697,368 C521.165414,368 525,363.95 525,359.045 C525,354.095 521.165414,350 516.478697,350 C511.834586,350 508,354.095 508,359.045 Z M537,373.158571 L537,343.841429 C537,343.398571 537.347826,343 537.826087,343 L543,343 C543.434783,343 543.826087,343.398571 543.826087,343.841429 L543.826087,367.49 L554.173913,367.49 C554.652174,367.49 555,367.888571 555,368.331429 L555,373.158571 C555,373.601429 554.652174,374 554.173913,374 L537.826087,374 C537.347826,374 537,373.601429 537,373.158571 Z M559,373.158571 L559,343.841429 C559,343.398571 559.347826,343 559.826087,343 L565,343 C565.434783,343 565.826087,343.398571 565.826087,343.841429 L565.826087,367.49 L576.173913,367.49 C576.652174,367.49 577,367.888571 577,368.331429 L577,373.158571 C577,373.601429 576.652174,374 576.173913,374 L559.826087,374 C559.347826,374 559,373.601429 559,373.158571 Z M579,359.044444 C579,350.155556 585.855355,343 594.478442,343 C603.10153,343 610,350.155556 610,359.044444 C610,367.933333 603.10153,375 594.478442,375 C585.855355,375 579,367.933333 579,359.044444 Z M586,359.045 C586,363.95 589.834586,368 594.478697,368 C599.165414,368 603,363.95 603,359.045 C603,354.095 599.165414,350 594.478697,350 C589.834586,350 586,354.095 586,359.045 Z M634,373.158571 L634,343.841429 C634,343.398571 634.347826,343 634.826087,343 L640,343 C640.434783,343 640.826087,343.398571 640.826087,343.841429 L640.826087,367.49 L651.173913,367.49 C651.652174,367.49 652,367.888571 652,368.331429 L652,373.158571 C652,373.601429 651.652174,374 651.173913,374 L634.826087,374 C634.347826,374 634,373.601429 634,373.158571 Z M656,373.158571 L656,343.841429 C656,343.398571 656.398734,343 656.841772,343 L662.158228,343 C662.601266,343 663,343.398571 663,343.841429 L663,373.158571 C663,373.601429 662.601266,374 662.158228,374 L656.841772,374 C656.398734,374 656,373.601429 656,373.158571 Z M670.043189,373.711111 L670,343.8 C670,343.355556 670.388704,343 670.820598,343 L671.900332,343 L689.13289,360.066667 L689.17608,360.066667 L689.17608,344.288889 C689.17608,343.844444 689.521595,343.444444 689.996678,343.444444 L695.179402,343.444444 C695.611296,343.444444 696,343.844444 696,344.288889 L696,374.2 C696,374.644444 695.611296,375 695.179402,375 L694.488372,375 C694.358804,375 694.013289,374.866667 693.92691,374.777778 L676.86711,357.133333 L676.82392,357.133333 L676.82392,373.711111 C676.82392,374.155556 676.478405,374.555556 676.003322,374.555556 L670.863787,374.555556 C670.431894,374.555556 670.043189,374.155556 670.043189,373.711111 Z M703,372.937143 L703,344.062857 C703,343.487143 703.434499,343 704.042798,343 L709.12644,343 C709.691289,343 710.169238,343.487143 710.169238,344.062857 L710.169238,355.71 L719.815121,343.442857 C719.988921,343.221429 720.37997,343 720.64067,343 L726.11536,343 C726.940909,343 727.375408,343.974286 726.897459,344.638571 L716.730177,357.614286 L727.809908,372.317143 C728.287857,372.981429 727.809908,373.955714 726.984359,373.955714 L720.988269,373.955714 C720.68412,373.955714 720.29307,373.778571 720.206171,373.645714 L710.169238,359.74 L710.169238,372.937143 C710.169238,373.512857 709.691289,374 709.12644,374 L704.042798,374 C703.434499,374 703,373.512857 703,372.937143 Z M752,373.158571 L752,343.841429 C752,343.398571 752.336283,343 752.798673,343 L770.201327,343 C770.663717,343 771,343.398571 771,343.841429 L771,348.668571 C771,349.111429 770.663717,349.51 770.201327,349.51 L758.557522,349.51 L758.557522,355.001429 L768.141593,355.001429 C768.561947,355.001429 768.940265,355.4 768.940265,355.842857 L768.940265,360.67 C768.940265,361.157143 768.561947,361.511429 768.141593,361.511429 L758.557522,361.511429 L758.557522,367.49 L770.201327,367.49 C770.663717,367.49 771,367.888571 771,368.331429 L771,373.158571 C771,373.601429 770.663717,374 770.201327,374 L752.798673,374 C752.336283,374 752,373.601429 752,373.158571 Z M781.058091,373.158571 L781.058091,349.51 L774.827801,349.51 C774.348548,349.51 774,349.111429 774,348.668571 L774,343.841429 C774,343.398571 774.348548,343 774.827801,343 L794.172199,343 C794.651452,343 795,343.398571 795,343.841429 L795,348.668571 C795,349.111429 794.651452,349.51 794.172199,349.51 L787.941909,349.51 L787.941909,373.158571 C787.941909,373.601429 787.549793,374 787.114108,374 L781.885892,374 C781.450207,374 781.058091,373.601429 781.058091,373.158571 Z M799,373.158571 L799,343.841429 C799,343.398571 799.39,343 799.823333,343 L804.98,343 C805.456667,343 805.803333,343.398571 805.803333,343.841429 L805.803333,355.001429 L818.196667,355.001429 L818.196667,343.841429 C818.196667,343.398571 818.543333,343 819.02,343 L824.176667,343 C824.61,343 825,343.398571 825,343.841429 L825,373.158571 C825,373.601429 824.61,374 824.176667,374 L819.02,374 C818.543333,374 818.196667,373.601429 818.196667,373.158571 L818.196667,361.511429 L805.803333,361.511429 L805.803333,373.158571 C805.803333,373.601429 805.456667,374 804.98,374 L799.823333,374 C799.39,374 799,373.601429 799,373.158571 Z M832,373.158571 L832,343.841429 C832,343.398571 832.336283,343 832.798673,343 L850.201327,343 C850.663717,343 851,343.398571 851,343.841429 L851,348.668571 C851,349.111429 850.663717,349.51 850.201327,349.51 L838.557522,349.51 L838.557522,355.001429 L848.141593,355.001429 C848.561947,355.001429 848.940265,355.4 848.940265,355.842857 L848.940265,360.67 C848.940265,361.157143 848.561947,361.511429 848.141593,361.511429 L838.557522,361.511429 L838.557522,367.49 L850.201327,367.49 C850.663717,367.49 851,367.888571 851,368.331429 L851,373.158571 C851,373.601429 850.663717,374 850.201327,374 L832.798673,374 C832.336283,374 832,373.601429 832,373.158571 Z M857,373.158571 L857,343.841429 C857,343.398571 857.343284,343 857.815299,343 L870.645522,343 C875.794776,343 880,347.295714 880,352.565714 C880,356.64 877.382463,359.917143 873.649254,361.467143 L879.527985,372.715714 C879.828358,373.291429 879.527985,374 878.798507,374 L873.091418,374 C872.748134,374 872.490672,373.778571 872.404851,373.601429 L866.697761,361.865714 L863.73694,361.865714 L863.73694,373.158571 C863.73694,373.601429 863.350746,374 862.921642,374 L857.815299,374 C857.343284,374 857,373.601429 857,373.158571 Z M864,357 L870.607143,357 C872.4375,357 874,355.294872 874,353.410256 C874,351.525641 872.4375,350 870.607143,350 L864,350 L864,357 Z M887,373.158571 L887,343.841429 C887,343.398571 887.336283,343 887.798673,343 L905.201327,343 C905.663717,343 906,343.398571 906,343.841429 L906,348.668571 C906,349.111429 905.663717,349.51 905.201327,349.51 L893.557522,349.51 L893.557522,355.001429 L903.141593,355.001429 C903.561947,355.001429 903.940265,355.4 903.940265,355.842857 L903.940265,360.67 C903.940265,361.157143 903.561947,361.511429 903.141593,361.511429 L893.557522,361.511429 L893.557522,367.49 L905.201327,367.49 C905.663717,367.49 906,367.888571 906,368.331429 L906,373.158571 C906,373.601429 905.663717,374 905.201327,374 L887.798673,374 C887.336283,374 887,373.601429 887,373.158571 Z M911,362.470423 L911,343.856338 C911,343.405634 911.394737,343 911.833333,343 L917.22807,343 C917.710526,343 918.061404,343.405634 918.061404,343.856338 L918.061404,362.109859 C918.061404,365.264789 920.342105,367.788732 923.45614,367.788732 C926.614035,367.788732 928.938596,365.264789 928.938596,362.109859 L928.938596,343.856338 C928.938596,343.405634 929.289474,343 929.77193,343 L935.166667,343 C935.605263,343 936,343.405634 936,343.856338 L936,362.470423 C936,369.321127 930.385965,375 923.45614,375 C916.570175,375 911,369.321127 911,362.470423 Z M941.011941,373.577778 L945.847333,343.711111 C945.890124,343.311111 946.275244,343 946.617573,343 L947.30223,343 C947.516185,343 947.901305,343.177778 948.029678,343.444444 L957.957209,362.644444 L958.042791,362.644444 L967.970322,343.444444 C968.098695,343.177778 968.483815,343 968.69777,343 L969.382427,343 C969.724756,343 970.109876,343.311111 970.152667,343.711111 L974.988059,373.577778 C975.073641,374.155556 974.688521,374.555556 974.175028,374.555556 L969.125681,374.555556 C968.740561,374.555556 968.355441,374.2 968.31265,373.844444 L966.387052,360.111111 L966.30147,360.111111 L959.112568,374.511111 C958.984195,374.777778 958.599075,375 958.38512,375 L957.61488,375 C957.358134,375 957.015805,374.777778 956.887432,374.511111 L949.655739,360.111111 L949.570157,360.111111 L947.68735,373.844444 C947.644559,374.2 947.30223,374.555556 946.874319,374.555556 L941.824972,374.555556 C941.311479,374.555556 940.926359,374.155556 941.011941,373.577778 Z"/>
    <path fill="#B1BBBF" fill-rule="nonzero" d="M1029.89157,512.815153 L1026.25669,504.310908 L1028.36904,504.310908 L1030.02874,508.192685 L1031.03005,505.613978 L1030.50882,504.310908 L1032.59373,504.310908 L1034.23971,508.178968 L1035.74853,504.310908 L1037.84716,504.310908 L1034.41803,512.815153 L1034.1437,512.815153 L1032.11365,508.069236 L1030.15219,512.815153 L1029.89157,512.815153 Z M1038.64272,512.540823 L1038.64272,504.310908 L1040.65905,504.310908 L1040.65905,512.540823 L1038.64272,512.540823 Z M1043.42978,512.540823 L1043.42978,506.094056 L1041.59177,506.094056 L1041.59177,504.310908 L1047.32528,504.310908 L1047.32528,506.094056 L1045.45983,506.094056 L1045.45983,512.540823 L1043.42978,512.540823 Z M1048.258,512.540823 L1048.258,504.310908 L1050.27433,504.310908 L1050.27433,507.548008 L1053.49771,507.548008 L1053.49771,504.310908 L1055.50033,504.310908 L1055.50033,512.540823 L1053.49771,512.540823 L1053.49771,509.290007 L1050.27433,509.290007 L1050.27433,512.540823 L1048.258,512.540823 Z M1060.1228,508.425865 C1060.1228,505.970607 1061.97453,504.036577 1064.58067,504.036577 C1066.14435,504.036577 1067.22796,504.626388 1068.10581,505.545395 L1066.72044,506.862182 C1066.14435,506.299804 1065.40366,505.943174 1064.58067,505.943174 C1063.113,505.943174 1062.16656,507.040496 1062.16656,508.425865 C1062.16656,509.811234 1063.113,510.908556 1064.58067,510.908556 C1065.40366,510.908556 1066.14435,510.551927 1066.72044,509.989549 L1068.06466,511.306336 C1067.24167,512.170477 1066.1032,512.815153 1064.58067,512.815153 C1061.97453,512.815153 1060.1228,510.881123 1060.1228,508.425865 Z M1068.75049,508.425865 C1068.75049,505.970607 1070.57479,504.036577 1073.18093,504.036577 C1075.77335,504.036577 1077.61137,505.970607 1077.61137,508.425865 C1077.61137,510.881123 1075.77335,512.815153 1073.18093,512.815153 C1070.57479,512.815153 1068.75049,510.881123 1068.75049,508.425865 Z M1070.79425,508.425865 C1070.79425,509.811234 1071.71326,510.908556 1073.18093,510.908556 C1074.63488,510.908556 1075.5676,509.811234 1075.5676,508.425865 C1075.5676,507.040496 1074.63488,505.943174 1073.18093,505.943174 C1071.71326,505.943174 1070.79425,507.040496 1070.79425,508.425865 Z M1079.01045,512.540823 L1079.01045,504.310908 L1081.13651,504.310908 L1084.33246,509.193991 L1084.33246,504.310908 L1086.33508,504.310908 L1086.33508,512.540823 L1084.23645,512.540823 L1081.02678,507.644024 L1081.02678,512.540823 L1079.01045,512.540823 Z M1089.10581,512.540823 L1089.10581,506.094056 L1087.2678,506.094056 L1087.2678,504.310908 L1093.00131,504.310908 L1093.00131,506.094056 L1091.13586,506.094056 L1091.13586,512.540823 L1089.10581,512.540823 Z M1093.93403,512.540823 L1093.93403,504.310908 L1097.37688,504.310908 C1099.14631,504.310908 1100.2985,505.380797 1100.2985,506.930764 C1100.2985,508.370999 1099.57152,509.180274 1098.35075,509.482038 L1100.57283,512.540823 L1098.04899,512.540823 L1095.95036,509.468321 L1095.95036,512.540823 L1093.93403,512.540823 Z M1095.95036,507.877204 L1097.56891,507.877204 C1098.02155,507.877204 1098.32332,507.410843 1098.32332,506.930764 C1098.32332,506.450686 1097.96669,506.025474 1097.51404,506.025474 L1095.95036,506.025474 L1095.95036,507.877204 Z M1101.28609,512.540823 L1101.28609,504.310908 L1103.30242,504.310908 L1103.30242,512.540823 L1101.28609,512.540823 Z M1104.6192,512.540823 L1104.6192,504.310908 L1107.9386,504.310908 C1109.31025,504.310908 1110.40758,505.325931 1110.40758,506.615284 C1110.40758,507.38341 1110.0921,507.863488 1109.516,508.302417 L1109.516,508.32985 C1110.36643,508.933377 1110.72306,509.509471 1110.72306,510.359895 C1110.72306,511.498367 1109.81777,512.540823 1108.25408,512.540823 L1104.6192,512.540823 Z M1106.62182,507.589157 L1107.58197,507.589157 C1108.04833,507.589157 1108.37753,507.273677 1108.37753,506.821032 C1108.37753,506.39582 1108.04833,506.066623 1107.58197,506.066623 L1106.62182,506.066623 L1106.62182,507.589157 Z M1106.62182,510.743958 L1107.84259,510.743958 C1108.30895,510.743958 1108.61071,510.469628 1108.61071,510.030699 C1108.61071,509.63292 1108.30895,509.303723 1107.84259,509.303723 L1106.62182,509.303723 L1106.62182,510.743958 Z M1111.69693,509.770085 L1111.69693,504.310908 L1113.69954,504.310908 L1113.69954,509.468321 C1113.69954,510.565643 1114.22077,510.949706 1114.92031,510.949706 C1115.68844,510.949706 1116.16852,510.565643 1116.16852,509.468321 L1116.16852,504.310908 L1118.18485,504.310908 L1118.18485,509.770085 C1118.18485,511.717831 1116.73089,512.815153 1114.92031,512.815153 C1113.04115,512.815153 1111.69693,511.662965 1111.69693,509.770085 Z M1120.95558,512.540823 L1120.95558,506.094056 L1119.11757,506.094056 L1119.11757,504.310908 L1124.85108,504.310908 L1124.85108,506.094056 L1122.98563,506.094056 L1122.98563,512.540823 L1120.95558,512.540823 Z M1125.7838,512.540823 L1125.7838,504.310908 L1127.80013,504.310908 L1127.80013,512.540823 L1125.7838,512.540823 Z M1129.19922,508.425865 C1129.19922,505.970607 1131.02351,504.036577 1133.62965,504.036577 C1136.22208,504.036577 1138.06009,505.970607 1138.06009,508.425865 C1138.06009,510.881123 1136.22208,512.815153 1133.62965,512.815153 C1131.02351,512.815153 1129.19922,510.881123 1129.19922,508.425865 Z M1131.24298,508.425865 C1131.24298,509.811234 1132.16199,510.908556 1133.62965,510.908556 C1135.08361,510.908556 1136.01633,509.811234 1136.01633,508.425865 C1136.01633,507.040496 1135.08361,505.943174 1133.62965,505.943174 C1132.16199,505.943174 1131.24298,507.040496 1131.24298,508.425865 Z M1139.45918,512.540823 L1139.45918,504.310908 L1141.58524,504.310908 L1144.78119,509.193991 L1144.78119,504.310908 L1146.7838,504.310908 L1146.7838,512.540823 L1144.68517,512.540823 L1141.47551,507.644024 L1141.47551,512.540823 L1139.45918,512.540823 Z M1148.05944,510.126715 L1150.0209,510.126715 C1150.0209,510.606793 1150.40496,510.990856 1150.87133,510.990856 C1151.37884,510.990856 1151.69432,510.702809 1151.69432,510.277596 C1151.69432,509.660353 1150.88504,509.482038 1150.21293,509.248857 C1148.82756,508.755062 1148.05944,508.110385 1148.05944,506.697583 C1148.05944,505.243632 1149.30764,504.036577 1150.85761,504.036577 C1152.68191,504.036577 1153.54605,505.202482 1153.65578,506.725016 L1151.7629,506.725016 C1151.7629,506.258654 1151.47485,505.874592 1150.91248,505.874592 C1150.47355,505.874592 1150.04833,506.135206 1150.04833,506.67015 C1150.04833,507.287394 1150.80274,507.397126 1151.50229,507.602874 C1152.96995,508.041803 1153.65578,508.864794 1153.65578,510.154148 C1153.65578,511.608099 1152.42129,512.815153 1150.87133,512.815153 C1149.07446,512.815153 1148.05944,511.608099 1148.05944,510.126715 Z M1158.51143,512.540823 L1158.51143,504.310908 L1161.83083,504.310908 C1163.20248,504.310908 1164.2998,505.325931 1164.2998,506.615284 C1164.2998,507.38341 1163.98432,507.863488 1163.40823,508.302417 L1163.40823,508.32985 C1164.25865,508.933377 1164.61528,509.509471 1164.61528,510.359895 C1164.61528,511.498367 1163.70999,512.540823 1162.14631,512.540823 L1158.51143,512.540823 Z M1160.51404,507.589157 L1161.4742,507.589157 C1161.94056,507.589157 1162.26976,507.273677 1162.26976,506.821032 C1162.26976,506.39582 1161.94056,506.066623 1161.4742,506.066623 L1160.51404,506.066623 L1160.51404,507.589157 Z M1160.51404,510.743958 L1161.73481,510.743958 C1162.20118,510.743958 1162.50294,510.469628 1162.50294,510.030699 C1162.50294,509.63292 1162.20118,509.303723 1161.73481,509.303723 L1160.51404,509.303723 L1160.51404,510.743958 Z M1167.39974,512.540823 L1167.39974,508.563031 L1164.47812,504.310908 L1166.75506,504.310908 L1168.40105,506.779882 L1170.06074,504.310908 L1172.32397,504.310908 L1169.40235,508.563031 L1169.40235,512.540823 L1167.39974,512.540823 Z"/>
    <path fill="#1D2E30" d="M1209.79752 517.570216L1209.79752 499.738733 1216.00973 499.738733C1221.27079 499.738733 1225.34291 503.602221 1225.34291 508.624755 1225.34291 513.379817 1221.71665 517.570216 1216.00973 517.570216L1209.79752 517.570216zM1213.91248 513.455258L1215.71086 513.455258C1218.57609 513.455258 1220.77074 511.461625 1220.77074 508.410762 1220.77074 505.601552 1218.85042 503.396473 1215.71086 503.396473L1213.91248 503.396473 1213.91248 513.455258zM1228.54344 517.570216L1228.54344 499.738733 1240.11059 499.738733 1240.11059 503.602221 1232.82649 503.602221 1232.82649 506.811888 1239.557 506.811888 1239.557 510.615937 1232.82649 510.615937 1232.82649 513.825604 1240.43109 513.825604 1240.43109 517.570216 1228.54344 517.570216zM1242.71718 517.570216L1242.71718 499.738733 1247.00023 499.738733 1247.00023 513.825604 1254.60483 513.825604 1254.60483 517.570216 1242.71718 517.570216zM1257.19063 517.570216L1257.19063 503.602221 1253.23318 503.602221 1253.23318 499.738733 1265.57805 499.738733 1265.57805 503.602221 1261.56154 503.602221 1261.56154 517.570216 1257.19063 517.570216zM1263.74918 517.570216L1272.47516 499.281515 1273.25214 499.281515 1282.03788 517.570216 1277.31629 517.570216 1276.41979 515.741346 1269.3374 515.741346 1268.47078 517.570216 1263.74918 517.570216zM1271.06466 512.99804L1275.17962 512.99804 1273.16592 508.425865 1273.10755 508.425865 1271.06466 512.99804zM1177.33508 519.277509L1188.02757 496.238673 1190.73261 492.88047 1203.85369 520.770738 1181.82312 520.770738 1177.33508 519.277509zM1184.19334 514.826911L1194.70934 514.826911 1189.56648 502.939255 1184.19334 514.826911zM1282.03788 508.197257C1282.03788 502.954258 1286.068 498.824298 1291.74001 498.824298 1295.14321 498.824298 1297.50158 500.083789 1299.41215 502.046252L1296.39703 504.85814C1295.14321 503.65723 1293.53117 502.895677 1291.74001 502.895677 1288.54577 502.895677 1286.48593 505.238917 1286.48593 508.197257 1286.48593 511.155597 1288.54577 513.498837 1291.74001 513.498837 1293.53117 513.498837 1295.14321 512.737284 1296.39703 511.536373L1299.32259 514.348261C1297.53143 516.193562 1295.05366 517.570216 1291.74001 517.570216 1286.068 517.570216 1282.03788 513.440256 1282.03788 508.197257zM1283.40954 508.197257C1283.40954 512.918967 1286.95023 516.655781 1291.83697 516.655781 1294.41202 516.655781 1296.34331 515.844689 1297.98197 514.338377L1296.31404 512.658259C1295.26061 513.585221 1293.59268 514.251474 1291.83697 514.251474 1288.06218 514.251474 1285.57492 511.58646 1285.57492 508.197257 1285.57492 504.808054 1288.06218 502.143039 1291.83697 502.143039 1293.5049 502.143039 1295.1143 502.751358 1296.37257 503.707287L1298.0405 502.114072C1296.48961 500.549824 1294.47054 499.738733 1291.83697 499.738733 1286.95023 499.738733 1283.40954 503.475546 1283.40954 508.197257zM1299.86937 517.112998L1308.3772 498.824298 1309.13474 498.824298 1317.70085 517.112998 1313.0973 517.112998 1312.2232 515.284128 1305.31788 515.284128 1304.47292 517.112998 1299.86937 517.112998zM1300.7838 516.198563L1303.13019 516.198563 1308.11998 505.73865 1308.5358 505.73865 1313.46619 516.198563 1315.87198 516.198563 1308.29819 500.653168 1300.7838 516.198563zM1306.72763 512.083605L1310.84259 512.083605 1308.82951 507.51143 1308.77031 507.51143 1306.72763 512.083605zM1305.35598 513.912476L1311.2998 513.912476 1310.66098 512.540823 1305.96702 512.540823 1305.35598 513.912476zM1319.52972 516.980257L1319.52972 499.281515 1323.53254 499.281515 1328.00285 508.838836 1332.50238 499.281515 1336.44677 499.281515 1336.44677 516.980257 1332.18098 516.980257 1332.18098 509.104317 1328.35346 517.570216 1327.65224 517.570216 1323.82472 509.045321 1323.82472 516.980257 1319.52972 516.980257zM1320.90137 516.198563L1323.01634 516.198563 1323.01634 505.461516 1323.50887 505.461516 1328.23134 515.816148 1333.04072 505.461516 1333.44633 505.461516 1333.44633 516.198563 1335.53233 516.198563 1335.53233 500.19595 1333.41736 500.19595 1328.63695 510.521166 1327.82573 510.521166 1323.07429 500.19595 1320.90137 500.19595 1320.90137 516.198563zM1338.73285 517.112998L1338.73285 499.738733 1346.19493 499.738733C1349.85165 499.738733 1351.99216 502.37383 1351.99216 505.298498 1351.99216 508.541694 1349.49489 510.858263 1346.19493 510.858263L1343.07335 510.858263 1343.07335 517.112998 1338.73285 517.112998zM1340.10451 516.198563L1342.22836 516.198563 1342.22836 509.844584 1346.47605 509.844584C1349.16036 509.844584 1351.07773 507.756008 1351.07773 504.932018 1351.07773 502.402193 1349.42584 500.19595 1346.47605 500.19595L1340.10451 500.19595 1340.10451 516.198563zM1342.39059 507.968648L1342.39059 502.482038 1346.21384 502.482038C1347.86479 502.482038 1348.79164 503.745969 1348.79164 505.21098 1348.79164 506.790894 1347.86479 507.968648 1346.21384 507.968648L1342.39059 507.968648zM1343.30503 507.054213L1346.07882 507.054213C1347.2371 507.054213 1347.8772 505.971329 1347.8772 504.888446 1347.8772 503.867441 1347.26758 502.939255 1346.07882 502.939255L1343.30503 502.939255 1343.30503 507.054213z"/>
    <path stroke="#0CC0D8" stroke-linecap="round" stroke-linejoin="round" d="M8.02708583,-0.457543191 L8.02892798,-0.457543289 C10.5141953,-0.453097563 12.5267799,1.55817398 12.5267799,4.04264184 C12.5266108,6.5270284 10.5142239,8.53783838 8.0271031,8.5424553 C7.49165812,8.54161999 6.96735082,8.44522191 6.47051919,8.26091751 L5.82573337,8.0217281 L6.25211536,7.48213684 C6.27225581,7.45664887 6.28766371,7.42826951 6.29761214,7.39839893 L6.4590117,6.91378978 L6.94006846,7.08548786 C7.28978951,7.21030979 7.65507886,7.27499253 8.02795996,7.27512091 C9.81351525,7.27485806 11.2587011,5.82855977 11.261702,4.04348397 C11.2585706,2.25653254 9.81352781,0.810337093 8.02803357,0.80994281 C7.65750661,0.80994281 7.29459951,0.873794598 6.94769353,0.997072966 L6.45226687,1.17313044 L6.30131744,0.669485638 C6.29223254,0.63917377 6.27764806,0.61021852 6.25767462,0.583080391 L5.86252408,0.0461849344 L6.48857505,-0.18285845 C6.97983362,-0.362587471 7.4979424,-0.456540211 8.02708583,-0.457543191 Z M6.67829851,7.81890438 L7.03672303,8.10212943 C7.12833346,7.98619539 7.19951408,7.85508981 7.24637576,7.71438561 L6.77199395,7.55639227 L6.67829851,7.81890438 Z M6.68801987,0.266349906 L6.78026825,0.525937342 L7.25921907,0.382389046 C7.21682871,0.240953045 7.1502877,0.108846092 7.06305746,-0.00967460625 L6.68801987,0.266349906 Z M8.02806022,0.54245688 C8.02836724,0.542456217 8.02867427,0.542455595 8.0289813,0.542455013 L8.02713915,0.542455111 C8.02744619,0.54245566 8.02775323,0.542456249 8.02806025,0.542456877 Z M4.02652998,7.27512089 C4.39978265,7.27497816 4.7649365,7.21037112 5.11310097,7.08577926 L5.59241189,6.91425618 L5.75528502,7.39657504 C5.76595455,7.4281709 5.78157533,7.45695382 5.80159484,7.48228874 L6.22820365,8.02216703 L5.58295386,8.26115731 C5.08625459,8.44512684 4.56240234,8.54145308 4.02565067,8.54245505 C1.53995265,8.53783848 -0.472881931,6.52705137 -0.473220113,4.04253974 C-0.472881917,1.55806285 1.54006237,-0.453097837 4.02752792,-0.457543189 C4.55635046,-0.456539876 5.07450031,-0.362541001 5.56539248,-0.182819336 L6.19035366,0.0459866498 L5.79659031,0.582530298 C5.77608621,0.610469277 5.7613174,0.639708494 5.75239277,0.669485638 L5.60140654,1.17325322 L5.10590199,0.997032194 C4.75958656,0.873868729 4.39700759,0.810094705 4.0266529,0.8100947 C2.24104647,0.810357583 0.795119212,2.25687399 0.791857718,4.04169507 C0.795119137,5.82830063 2.24098011,7.27479164 4.02652998,7.27512089 Z M5.37548574,7.81899776 L5.28156582,7.55654416 L4.80784662,7.71651329 C4.85519639,7.85673095 4.92589964,7.98700901 5.01698718,8.10228132 L5.37548574,7.81899776 Z M5.36576152,0.266349891 L4.9903989,-0.00912451356 C4.90337545,0.109454025 4.83677432,0.241310626 4.79449113,0.382389046 L5.27344195,0.525937342 L5.36576152,0.266349891 Z M7.05454282,7.36947021 C7.02100048,7.90918171 6.57370006,8.33663834 6.02670466,8.33663834 C5.45816951,8.33663834 4.99758109,7.87524891 4.99699865,7.30515812 C4.99699865,6.7357398 5.45768083,6.2751658 6.02776079,6.27398281 C6.12853537,6.27419567 6.22712403,6.28905047 6.32100695,6.31716061 C6.71575969,5.91935269 7.00251464,5.4249435 7.15187324,4.87231323 C7.14780349,4.88709079 7.14780349,4.88709079 7.15070767,4.87576477 C7.1634414,4.82793781 7.17536714,4.77838861 7.18643432,4.72750019 C7.18679348,4.72583122 7.18679348,4.72583122 7.18732952,4.72328822 C7.18795147,4.72031788 7.18795147,4.72031788 7.18874805,4.71650053 C7.19060814,4.70760519 7.19060814,4.70760519 7.19144327,4.70398766 C7.2014458,4.65517518 7.21010055,4.60875899 7.21859979,4.55762418 C7.21825562,4.55983386 7.21825562,4.55983386 7.21984608,4.54799001 C7.21994682,4.54721617 7.21994682,4.54721617 7.22005201,4.54640771 C7.22109858,4.53835316 7.22109858,4.53835316 7.22401321,4.51782643 C7.23088511,4.47456428 7.23632633,4.4344535 7.24089036,4.39212058 C7.24251766,4.37655649 7.24251766,4.37655649 7.24475567,4.34852972 C7.24538384,4.340555 7.24538384,4.340555 7.24639131,4.32820827 C7.24727157,4.31829112 7.24727157,4.31829112 7.24812526,4.30876032 C7.24909956,4.29788445 7.24909956,4.29788445 7.2500167,4.28753055 C7.25312081,4.25135055 7.25312081,4.25135055 7.25498113,4.22223075 C7.2585738,4.15679293 7.26039738,4.09810085 7.26039738,4.04260781 L7.26054656,4.04245863 C7.25860567,3.13540726 6.88300279,2.29002621 6.23369551,1.68280361 L5.85104691,1.32495627 L6.22636074,0.959423518 C6.24887422,0.937496756 6.26862166,0.910210695 6.28457338,0.878239527 L6.58117041,0.283785979 L7.07031229,0.733324679 C7.99126189,1.57970996 8.52547605,2.76796153 8.52547605,4.0427597 C8.52547605,4.12585568 8.52288661,4.21078305 8.51776274,4.30282178 C8.51568448,4.33260146 8.51568448,4.33260146 8.51381835,4.35411435 C8.51376536,4.35472922 8.51376536,4.35472922 8.51371309,4.35533577 C8.51248941,4.36964114 8.51248941,4.36964114 8.51161284,4.38165096 C8.50531386,4.46322475 8.50229224,4.49787882 8.49639722,4.55236493 C8.49148758,4.59211211 8.49148758,4.59211211 8.48716321,4.6222684 C8.48708398,4.62282308 8.48708398,4.62282308 8.48700529,4.62337397 C8.48449733,4.64097564 8.48449733,4.64097564 8.4820936,4.65902448 C8.47317814,4.72349959 8.4683935,4.75625877 8.46127688,4.79857508 C8.45014876,4.86110466 8.45014876,4.86110466 8.43892833,4.91741846 C8.42749755,4.97490457 8.42749755,4.97490457 8.41367151,5.03845267 C8.39805155,5.10478087 8.39805155,5.10478087 8.38221582,5.16741474 C8.36904685,5.21798574 8.36904685,5.21798574 8.35473231,5.26976936 C8.33473216,5.33894274 8.32536129,5.37024019 8.31184033,5.41208309 C8.29919397,5.45119184 8.29919397,5.45119184 8.28681307,5.48746147 C8.26707613,5.54559874 8.24845009,5.59788338 8.22715441,5.65386288 C8.22373999,5.66248026 8.22373999,5.66248026 8.22086258,5.66962124 C8.21598425,5.68167566 8.21598425,5.68167566 8.21358634,5.68772036 L8.21322897,5.68863182 C7.96043703,6.33150842 7.56258918,6.90625935 7.05454282,7.36947021 Z M6.02722137,7.06869602 L6.02618848,7.06869602 C5.8968248,7.06882957 5.791905,7.17384587 5.79163532,7.30656678 C5.7920403,7.43632206 5.89713229,7.54146859 6.02670466,7.54146859 C6.15649148,7.54146859 6.26194143,7.43588081 6.26207705,7.30448549 C6.26194124,7.17408756 6.15686314,7.06883 6.02722137,7.06869602 Z M4.99774527,0.718010522 C5.0163882,0.164706567 5.46986924,-0.276982675 6.02778742,-0.277851824 C6.59560066,-0.276963909 7.05642047,0.183475123 7.05671097,0.753939081 C7.05583781,1.32315097 6.59531253,1.78420441 6.02700555,1.78450042 C5.93316675,1.78450042 5.84136964,1.77164768 5.75351285,1.74712615 C5.34930212,2.14747061 5.05577161,2.64739656 4.90716907,3.195578 C4.90581264,3.20065441 4.90581264,3.20065441 4.90516445,3.20302136 C4.90490999,3.20395812 4.90490999,3.20395812 4.90466975,3.20486074 C4.89151393,3.2536076 4.87926997,3.30397707 4.86823538,3.35456671 C4.86761936,3.35743218 4.86761936,3.35743218 4.86676329,3.36145089 C4.86657647,3.36232743 4.86657647,3.36232743 4.8663791,3.36325248 C4.86436119,3.37268966 4.86436119,3.37268966 4.86372853,3.37517936 C4.85344532,3.42487703 4.84437448,3.47334325 4.83612507,3.52314148 C4.83613832,3.52303163 4.83613832,3.52303163 4.83512436,3.52997438 C4.83494194,3.53124677 4.83494194,3.53124677 4.83473973,3.53265962 C4.83332052,3.54260679 4.83332052,3.54260679 4.83148738,3.55456564 C4.82323203,3.60850773 4.81741765,3.65099189 4.81339796,3.68706482 C4.81258872,3.69542218 4.81258872,3.69542218 4.81134561,3.71023154 C4.81025538,3.72336929 4.81025538,3.72336929 4.80870486,3.74066036 C4.80242744,3.80821096 4.80040479,3.83254376 4.7985466,3.86568882 L4.79853163,3.86595451 C4.79670908,3.89815722 4.7958802,3.93350194 4.79544472,3.99332117 C4.7949442,4.01098477 4.7949442,4.01098477 4.79439498,4.02388954 C4.79427799,4.02657851 4.79427799,4.02657851 4.79417123,4.02900367 C4.79359598,4.0429707 4.79359598,4.0429707 4.79361274,4.04177392 C4.79538952,4.94297619 5.16633776,5.78334281 5.8088796,6.39072994 L6.17859389,6.74021646 L5.82274452,7.10381061 C5.80012058,7.12692694 5.78149762,7.15401245 5.76761479,7.18421554 L5.47979443,7.81038963 L4.97383119,7.34248392 C4.05889092,6.49636358 3.52868548,5.31246572 3.52868548,4.0427597 C3.52868548,3.95901624 3.53120411,3.87403908 3.53611636,3.78583571 C3.53883126,3.74543188 3.53883126,3.74543188 3.54150709,3.71494787 C3.54279646,3.70015272 3.54279646,3.70015272 3.54388644,3.68670216 C3.54471874,3.67647704 3.54471874,3.67647704 3.54557115,3.66592578 C3.55048136,3.60497578 3.55329718,3.57325 3.55787857,3.53246251 C3.56342338,3.48768708 3.56342338,3.48768708 3.56858285,3.45089951 C3.56918776,3.44657824 3.56918776,3.44657824 3.56977453,3.44237966 C3.57147733,3.43015107 3.57147733,3.43015107 3.57340735,3.41595058 C3.57420418,3.41027044 3.57420418,3.41027044 3.57501646,3.40447504 C3.57977733,3.37053602 3.57977733,3.37053602 3.58540416,3.33279379 C3.58900088,3.30969833 3.58900088,3.30969833 3.59289912,3.28652662 C3.60293144,3.23034141 3.60293144,3.23034141 3.61229552,3.18272078 C3.6145053,3.17147218 3.6145053,3.17147218 3.61698138,3.15881743 C3.62776576,3.10507115 3.62776576,3.10507115 3.64064016,3.04641297 C3.65700922,2.9763408 3.65700922,2.9763408 3.67412908,2.90845769 C3.68676113,2.86056998 3.68676113,2.86056998 3.69982494,2.81494666 C3.72073791,2.74196576 3.72980251,2.71154529 3.74432507,2.66631474 C3.75159538,2.64389057 3.75159538,2.64389057 3.75794822,2.6252129 C3.76148783,2.61488769 3.76148783,2.61488769 3.76459716,2.60585208 C3.76654552,2.60017692 3.76654552,2.60017692 3.76791763,2.59615761 C3.78901969,2.53357163 3.80820577,2.47971178 3.83141088,2.41974297 C3.83766714,2.40430057 3.83766714,2.40430057 3.84175184,2.39443871 C4.0942069,1.75310876 4.49106573,1.17999377 4.99774527,0.718010522 Z M6.0268551,0.989482569 C6.15636245,0.989482569 6.26123298,0.884515941 6.26177399,0.751456365 C6.26136775,0.621572894 6.15682689,0.51697702 6.02582168,0.516710795 C5.89670253,0.516977666 5.7923275,0.621489814 5.79178766,0.755100927 C5.7923263,0.884535801 5.89721863,0.989482569 6.0268551,0.989482569 Z" transform="translate(731.973 354.958)"/>
    <path stroke="#0CC0D8" stroke-linecap="round" stroke-linejoin="round" d="M8.02708583,-0.457543191 L8.02892798,-0.457543289 C10.5141953,-0.453097563 12.5267799,1.55817398 12.5267799,4.04264184 C12.5266108,6.5270284 10.5142239,8.53783838 8.0271031,8.5424553 C7.49165812,8.54161999 6.96735082,8.44522191 6.47051919,8.26091751 L5.82573337,8.0217281 L6.25211536,7.48213684 C6.27225581,7.45664887 6.28766371,7.42826951 6.29761214,7.39839893 L6.4590117,6.91378978 L6.94006846,7.08548786 C7.28978951,7.21030979 7.65507886,7.27499253 8.02795996,7.27512091 C9.81351525,7.27485806 11.2587011,5.82855977 11.261702,4.04348397 C11.2585706,2.25653254 9.81352781,0.810337093 8.02803357,0.80994281 C7.65750661,0.80994281 7.29459951,0.873794598 6.94769353,0.997072966 L6.45226687,1.17313044 L6.30131744,0.669485638 C6.29223254,0.63917377 6.27764806,0.61021852 6.25767462,0.583080391 L5.86252408,0.0461849344 L6.48857505,-0.18285845 C6.97983362,-0.362587471 7.4979424,-0.456540211 8.02708583,-0.457543191 Z M6.67829851,7.81890438 L7.03672303,8.10212943 C7.12833346,7.98619539 7.19951408,7.85508981 7.24637576,7.71438561 L6.77199395,7.55639227 L6.67829851,7.81890438 Z M6.68801987,0.266349906 L6.78026825,0.525937342 L7.25921907,0.382389046 C7.21682871,0.240953045 7.1502877,0.108846092 7.06305746,-0.00967460625 L6.68801987,0.266349906 Z M8.02806022,0.54245688 C8.02836724,0.542456217 8.02867427,0.542455595 8.0289813,0.542455013 L8.02713915,0.542455111 C8.02744619,0.54245566 8.02775323,0.542456249 8.02806025,0.542456877 Z M4.02652998,7.27512089 C4.39978265,7.27497816 4.7649365,7.21037112 5.11310097,7.08577926 L5.59241189,6.91425618 L5.75528502,7.39657504 C5.76595455,7.4281709 5.78157533,7.45695382 5.80159484,7.48228874 L6.22820365,8.02216703 L5.58295386,8.26115731 C5.08625459,8.44512684 4.56240234,8.54145308 4.02565067,8.54245505 C1.53995265,8.53783848 -0.472881931,6.52705137 -0.473220113,4.04253974 C-0.472881917,1.55806285 1.54006237,-0.453097837 4.02752792,-0.457543189 C4.55635046,-0.456539876 5.07450031,-0.362541001 5.56539248,-0.182819336 L6.19035366,0.0459866498 L5.79659031,0.582530298 C5.77608621,0.610469277 5.7613174,0.639708494 5.75239277,0.669485638 L5.60140654,1.17325322 L5.10590199,0.997032194 C4.75958656,0.873868729 4.39700759,0.810094705 4.0266529,0.8100947 C2.24104647,0.810357583 0.795119212,2.25687399 0.791857718,4.04169507 C0.795119137,5.82830063 2.24098011,7.27479164 4.02652998,7.27512089 Z M5.37548574,7.81899776 L5.28156582,7.55654416 L4.80784662,7.71651329 C4.85519639,7.85673095 4.92589964,7.98700901 5.01698718,8.10228132 L5.37548574,7.81899776 Z M5.36576152,0.266349891 L4.9903989,-0.00912451356 C4.90337545,0.109454025 4.83677432,0.241310626 4.79449113,0.382389046 L5.27344195,0.525937342 L5.36576152,0.266349891 Z M7.05454282,7.36947021 C7.02100048,7.90918171 6.57370006,8.33663834 6.02670466,8.33663834 C5.45816951,8.33663834 4.99758109,7.87524891 4.99699865,7.30515812 C4.99699865,6.7357398 5.45768083,6.2751658 6.02776079,6.27398281 C6.12853537,6.27419567 6.22712403,6.28905047 6.32100695,6.31716061 C6.71575969,5.91935269 7.00251464,5.4249435 7.15187324,4.87231323 C7.14780349,4.88709079 7.14780349,4.88709079 7.15070767,4.87576477 C7.1634414,4.82793781 7.17536714,4.77838861 7.18643432,4.72750019 C7.18679348,4.72583122 7.18679348,4.72583122 7.18732952,4.72328822 C7.18795147,4.72031788 7.18795147,4.72031788 7.18874805,4.71650053 C7.19060814,4.70760519 7.19060814,4.70760519 7.19144327,4.70398766 C7.2014458,4.65517518 7.21010055,4.60875899 7.21859979,4.55762418 C7.21825562,4.55983386 7.21825562,4.55983386 7.21984608,4.54799001 C7.21994682,4.54721617 7.21994682,4.54721617 7.22005201,4.54640771 C7.22109858,4.53835316 7.22109858,4.53835316 7.22401321,4.51782643 C7.23088511,4.47456428 7.23632633,4.4344535 7.24089036,4.39212058 C7.24251766,4.37655649 7.24251766,4.37655649 7.24475567,4.34852972 C7.24538384,4.340555 7.24538384,4.340555 7.24639131,4.32820827 C7.24727157,4.31829112 7.24727157,4.31829112 7.24812526,4.30876032 C7.24909956,4.29788445 7.24909956,4.29788445 7.2500167,4.28753055 C7.25312081,4.25135055 7.25312081,4.25135055 7.25498113,4.22223075 C7.2585738,4.15679293 7.26039738,4.09810085 7.26039738,4.04260781 L7.26054656,4.04245863 C7.25860567,3.13540726 6.88300279,2.29002621 6.23369551,1.68280361 L5.85104691,1.32495627 L6.22636074,0.959423518 C6.24887422,0.937496756 6.26862166,0.910210695 6.28457338,0.878239527 L6.58117041,0.283785979 L7.07031229,0.733324679 C7.99126189,1.57970996 8.52547605,2.76796153 8.52547605,4.0427597 C8.52547605,4.12585568 8.52288661,4.21078305 8.51776274,4.30282178 C8.51568448,4.33260146 8.51568448,4.33260146 8.51381835,4.35411435 C8.51376536,4.35472922 8.51376536,4.35472922 8.51371309,4.35533577 C8.51248941,4.36964114 8.51248941,4.36964114 8.51161284,4.38165096 C8.50531386,4.46322475 8.50229224,4.49787882 8.49639722,4.55236493 C8.49148758,4.59211211 8.49148758,4.59211211 8.48716321,4.6222684 C8.48708398,4.62282308 8.48708398,4.62282308 8.48700529,4.62337397 C8.48449733,4.64097564 8.48449733,4.64097564 8.4820936,4.65902448 C8.47317814,4.72349959 8.4683935,4.75625877 8.46127688,4.79857508 C8.45014876,4.86110466 8.45014876,4.86110466 8.43892833,4.91741846 C8.42749755,4.97490457 8.42749755,4.97490457 8.41367151,5.03845267 C8.39805155,5.10478087 8.39805155,5.10478087 8.38221582,5.16741474 C8.36904685,5.21798574 8.36904685,5.21798574 8.35473231,5.26976936 C8.33473216,5.33894274 8.32536129,5.37024019 8.31184033,5.41208309 C8.29919397,5.45119184 8.29919397,5.45119184 8.28681307,5.48746147 C8.26707613,5.54559874 8.24845009,5.59788338 8.22715441,5.65386288 C8.22373999,5.66248026 8.22373999,5.66248026 8.22086258,5.66962124 C8.21598425,5.68167566 8.21598425,5.68167566 8.21358634,5.68772036 L8.21322897,5.68863182 C7.96043703,6.33150842 7.56258918,6.90625935 7.05454282,7.36947021 Z M6.02722137,7.06869602 L6.02618848,7.06869602 C5.8968248,7.06882957 5.791905,7.17384587 5.79163532,7.30656678 C5.7920403,7.43632206 5.89713229,7.54146859 6.02670466,7.54146859 C6.15649148,7.54146859 6.26194143,7.43588081 6.26207705,7.30448549 C6.26194124,7.17408756 6.15686314,7.06883 6.02722137,7.06869602 Z M4.79361316,4.04198797 C4.79544826,4.94310926 5.16638863,5.7833909 5.8088796,6.39072994 L6.17859389,6.74021646 L5.82274452,7.10381061 C5.80012058,7.12692694 5.78149762,7.15401245 5.76761479,7.18421554 L5.47979443,7.81038963 L4.97383119,7.34248392 C4.05889092,6.49636358 3.52868548,5.31246572 3.52868548,4.0427597 C3.52868548,3.95901624 3.53120411,3.87403908 3.53611636,3.78583571 C3.53883126,3.74543188 3.53883126,3.74543188 3.54150709,3.71494787 C3.54279646,3.70015272 3.54279646,3.70015272 3.54388644,3.68670216 C3.54471874,3.67647704 3.54471874,3.67647704 3.54557115,3.66592578 C3.55048136,3.60497578 3.55329718,3.57325 3.55787857,3.53246251 C3.56342338,3.48768708 3.56342338,3.48768708 3.56858285,3.45089951 C3.56918776,3.44657824 3.56918776,3.44657824 3.56977453,3.44237966 C3.57147733,3.43015107 3.57147733,3.43015107 3.57340735,3.41595058 C3.57420418,3.41027044 3.57420418,3.41027044 3.57501646,3.40447504 C3.57977733,3.37053602 3.57977733,3.37053602 3.58540416,3.33279379 C3.58900088,3.30969833 3.58900088,3.30969833 3.59289912,3.28652662 C3.60293144,3.23034141 3.60293144,3.23034141 3.61229552,3.18272078 C3.6145053,3.17147218 3.6145053,3.17147218 3.61698138,3.15881743 C3.62776576,3.10507115 3.62776576,3.10507115 3.64064016,3.04641297 C3.65700922,2.9763408 3.65700922,2.9763408 3.67412908,2.90845769 C3.68676113,2.86056998 3.68676113,2.86056998 3.69982494,2.81494666 C3.72073791,2.74196576 3.72980251,2.71154529 3.74432507,2.66631474 C3.75159538,2.64389057 3.75159538,2.64389057 3.75794822,2.6252129 C3.76148783,2.61488769 3.76148783,2.61488769 3.76459716,2.60585208 C3.76654552,2.60017692 3.76654552,2.60017692 3.76791763,2.59615761 C3.78901969,2.53357163 3.80820577,2.47971178 3.83141088,2.41974297 C3.83766714,2.40430057 3.83766714,2.40430057 3.84175184,2.39443871 C4.0942069,1.75310876 4.49106573,1.17999377 4.99774527,0.718010522 C5.0163882,0.164706567 5.46986924,-0.276982675 6.02778742,-0.277851824 C6.59560066,-0.276963909 7.05642047,0.183475123 7.05671097,0.753939081 C7.05583781,1.32315097 6.59531253,1.78420441 6.02700555,1.78450042 C5.93316675,1.78450042 5.84136964,1.77164768 5.75351285,1.74712615 C5.34930212,2.14747061 5.05577161,2.64739656 4.90716907,3.195578 C4.90581264,3.20065441 4.90581264,3.20065441 4.90516445,3.20302136 C4.90490999,3.20395812 4.90490999,3.20395812 4.90466975,3.20486074 C4.89151393,3.2536076 4.87926997,3.30397707 4.86823538,3.35456671 C4.86761936,3.35743218 4.86761936,3.35743218 4.86676329,3.36145089 C4.86657647,3.36232743 4.86657647,3.36232743 4.8663791,3.36325248 C4.86436119,3.37268966 4.86436119,3.37268966 4.86372853,3.37517936 C4.85344532,3.42487703 4.84437448,3.47334325 4.83612507,3.52314148 C4.83613832,3.52303163 4.83613832,3.52303163 4.83512436,3.52997438 C4.83494194,3.53124677 4.83494194,3.53124677 4.83473973,3.53265962 C4.83332052,3.54260679 4.83332052,3.54260679 4.83148738,3.55456564 C4.82323203,3.60850773 4.81741765,3.65099189 4.81339796,3.68706482 C4.81258872,3.69542218 4.81258872,3.69542218 4.81134561,3.71023154 C4.81025538,3.72336929 4.81025538,3.72336929 4.80870486,3.74066036 C4.80242744,3.80821096 4.80040479,3.83254376 4.7985466,3.86568882 L4.79853163,3.86595451 C4.79670908,3.89815722 4.7958802,3.93350194 4.79544472,3.99332117 C4.7949442,4.01098477 4.7949442,4.01098477 4.79439498,4.02388954 C4.79427799,4.02657851 4.79427799,4.02657851 4.79417123,4.02900367 C4.79366112,4.04138907 4.79360336,4.04279159 4.7936085,4.0421159 Z M6.0268551,0.989482569 C6.15636245,0.989482569 6.26123298,0.884515941 6.26177399,0.751456365 C6.26136775,0.621572894 6.15682689,0.51697702 6.02582168,0.516710795 C5.89670253,0.516977666 5.7923275,0.621489814 5.79178766,0.755100927 C5.7923263,0.884535801 5.89721863,0.989482569 6.0268551,0.989482569 Z" transform="translate(615.973 354.958)"/>
  </g>
</svg>
