<svg xmlns="http://www.w3.org/2000/svg" width="118" height="122" viewBox="0 0 118 122" style="background:#fff">
  <g fill="none" transform="translate(-17.184 -6.658)">
    <path fill="#FF00C0" stroke="#FF00C0" stroke-linecap="round" stroke-linejoin="round" stroke-width="4" d="M118.555127,42.163821 C117.783344,42.163821 117.10209,41.7815872 116.686022,41.1954344 C116.686022,41.1954344 114.685696,38.9134618 113.60712,37.833514 C109.044546,33.2709406 103.732136,29.6895558 97.8180274,27.1876617 C91.6972567,24.5984389 85.1937949,23.2857675 78.4864141,23.2857675 C71.7781189,23.2857675 65.2746571,24.5984389 59.1548008,27.1876617 C53.2402351,29.6895558 47.927825,33.2709406 43.3657087,37.833514 C38.802678,42.397002 35.2208361,47.7089549 32.7193991,53.6230634 C30.1310908,59.7438341 28.8179621,66.2482103 28.8179621,72.9551339 C28.8179621,79.6620575 30.1310908,86.1664337 32.7193991,92.2872044 C35.2208361,98.2013129 38.802678,103.513266 43.3657087,108.075839 C47.9282822,112.63887 53.2406924,116.220255 59.1548008,118.722149 C65.2746571,121.311372 71.7781189,122.624043 78.4864141,122.624043 C85.1937949,122.624043 91.6977139,121.311372 97.8180274,118.722149 C102.125931,116.900137 106.11241,114.502031 109.724428,111.571724 C109.531483,111.003403 109.423579,110.393932 109.423579,109.759771 C109.423579,106.664866 111.932789,104.155656 115.027237,104.155656 C118.1226,104.155656 120.631809,106.664866 120.631809,109.759771 C120.631809,112.855134 118.1226,115.363886 115.027237,115.363886 C114.259112,115.363886 113.526192,115.20889 112.859112,114.928158 C103.501241,122.601182 91.5322012,127.208106 78.4864141,127.208106 C48.5226649,127.208106 24.2325278,102.918426 24.2325278,72.9546767 C24.2325278,42.9909275 48.5226649,18.7007903 78.4864141,18.7007903 C95.2470934,18.7007903 110.226453,26.3070607 120.177335,38.2504964 C120.591574,38.6651927 120.848988,39.2380862 120.848988,39.870418 C120.84853,41.1382822 119.822534,42.163821 118.555127,42.163821 Z" transform="scale(1 -1) rotate(45 248.668 0)"/>
    <polygon fill="#0CC0D8" points="75.441 80.47 75.441 63.096 58.981 70.53"/>
    <polygon fill="#0CC0D8" points="75.441 60.278 75.441 39.321 58.981 67.668"/>
    <polygon fill="#0CC0D8" points="78.184 39.321 78.184 60.091 95.101 67.516"/>
    <polygon fill="#0CC0D8" points="78.184 63.096 78.184 80.47 94.644 70.535"/>
    <polygon fill="#0CC0D8" points="75.441 100.588 75.441 86.653 58.981 76.813"/>
    <polygon fill="#0CC0D8" points="78.641 100.588 95.101 76.813 78.641 86.653"/>
  </g>
</svg>
