<svg xmlns="http://www.w3.org/2000/svg" width="399" height="29" viewBox="0 0 399 29" style="background:#fff">
  <g fill="none" transform="translate(-510 -320)">
    <path fill="#0CC0D8" d="M514.125082,346.113651 C513.645003,346.113651 513.388961,345.697583 513.580993,345.281515 L523.598628,323.741999 C523.694644,323.549967 523.918681,323.389941 524.142717,323.389941 L524.462769,323.389941 C524.686806,323.389941 524.910843,323.549967 525.006858,323.741999 L535.024494,345.281515 C535.216525,345.697583 534.960483,346.113651 534.480405,346.113651 L530.927825,346.113651 C530.351731,346.113651 530.095689,345.92162 529.807642,345.313521 L528.655454,342.785108 L519.950033,342.785108 L518.797845,345.345526 C518.637818,345.729589 518.285761,346.113651 517.645656,346.113651 L514.125082,346.113651 Z M521.870346,338.432397 L526.73514,338.432397 L524.302743,333.151535 L524.270738,333.151535 L521.870346,338.432397 Z M537.648922,345.505552 L537.648922,324.318093 C537.648922,323.99804 537.904964,323.709993 538.257022,323.709993 L545.970281,323.709993 C549.906924,323.709993 553.139451,326.910516 553.139451,330.783148 C553.139451,334.751796 549.906924,337.984324 546.002286,337.984324 L542.641737,337.984324 L542.641737,345.505552 C542.641737,345.825604 542.35369,346.113651 542.033638,346.113651 L538.257022,346.113651 C537.904964,346.113651 537.648922,345.825604 537.648922,345.505552 Z M542.641737,333.311561 L545.682234,333.311561 C547.058459,333.311561 548.210647,332.223383 548.210647,330.783148 C548.210647,329.438929 547.058459,328.414762 545.682234,328.414762 L542.641737,328.414762 L542.641737,333.311561 Z M554.867734,334.943828 C554.867734,328.542782 559.956564,323.389941 566.357609,323.389941 C572.758654,323.389941 577.879491,328.542782 577.879491,334.943828 C577.879491,341.344873 572.758654,346.433703 566.357609,346.433703 C559.956564,346.433703 554.867734,341.344873 554.867734,334.943828 Z M559.98857,334.943828 C559.98857,338.432397 562.86904,341.312867 566.357609,341.312867 C569.878184,341.312867 572.758654,338.432397 572.758654,334.943828 C572.758654,331.423253 569.878184,328.510777 566.357609,328.510777 C562.86904,328.510777 559.98857,331.423253 559.98857,334.943828 Z M581.752123,345.505552 L581.752123,324.318093 C581.752123,323.99804 582.008165,323.709993 582.360222,323.709993 L586.168844,323.709993 C586.488896,323.709993 586.776943,323.99804 586.776943,324.318093 L586.776943,341.408883 L594.394187,341.408883 C594.746244,341.408883 595.002286,341.69693 595.002286,342.016982 L595.002286,345.505552 C595.002286,345.825604 594.746244,346.113651 594.394187,346.113651 L582.360222,346.113651 C582.008165,346.113651 581.752123,345.825604 581.752123,345.505552 Z M598.106793,345.505552 L598.106793,324.318093 C598.106793,323.99804 598.362835,323.709993 598.714892,323.709993 L602.523514,323.709993 C602.843566,323.709993 603.131613,323.99804 603.131613,324.318093 L603.131613,341.408883 L610.748857,341.408883 C611.100914,341.408883 611.356956,341.69693 611.356956,342.016982 L611.356956,345.505552 C611.356956,345.825604 611.100914,346.113651 610.748857,346.113651 L598.714892,346.113651 C598.362835,346.113651 598.106793,345.825604 598.106793,345.505552 Z M612.701176,334.943828 C612.701176,328.542782 617.790007,323.389941 624.191052,323.389941 C630.592097,323.389941 635.712933,328.542782 635.712933,334.943828 C635.712933,341.344873 630.592097,346.433703 624.191052,346.433703 C617.790007,346.433703 612.701176,341.344873 612.701176,334.943828 Z M617.822012,334.943828 C617.822012,338.432397 620.702482,341.312867 624.191052,341.312867 C627.711626,341.312867 630.592097,338.432397 630.592097,334.943828 C630.592097,331.423253 627.711626,328.510777 624.191052,328.510777 C620.702482,328.510777 617.822012,331.423253 617.822012,334.943828 Z M653.731875,345.505552 L653.731875,324.318093 C653.731875,323.99804 653.987916,323.709993 654.339974,323.709993 L658.148596,323.709993 C658.468648,323.709993 658.756695,323.99804 658.756695,324.318093 L658.756695,341.408883 L666.373939,341.408883 C666.725996,341.408883 666.982038,341.69693 666.982038,342.016982 L666.982038,345.505552 C666.982038,345.825604 666.725996,346.113651 666.373939,346.113651 L654.339974,346.113651 C653.987916,346.113651 653.731875,345.825604 653.731875,345.505552 Z M670.086545,345.505552 L670.086545,324.318093 C670.086545,323.99804 670.374592,323.709993 670.694644,323.709993 L674.535271,323.709993 C674.855323,323.709993 675.14337,323.99804 675.14337,324.318093 L675.14337,345.505552 C675.14337,345.825604 674.855323,346.113651 674.535271,346.113651 L670.694644,346.113651 C670.374592,346.113651 670.086545,345.825604 670.086545,345.505552 Z M680.648269,345.505552 L680.616264,323.966035 C680.616264,323.645983 680.904311,323.389941 681.224363,323.389941 L682.024494,323.389941 L694.794579,335.679948 L694.826584,335.679948 L694.826584,324.318093 C694.826584,323.99804 695.082626,323.709993 695.434683,323.709993 L699.27531,323.709993 C699.595363,323.709993 699.88341,323.99804 699.88341,324.318093 L699.88341,345.857609 C699.88341,346.177662 699.595363,346.433703 699.27531,346.433703 L698.763227,346.433703 C698.667211,346.433703 698.411169,346.337688 698.347159,346.273677 L685.705095,333.567603 L685.673089,333.567603 L685.673089,345.505552 C685.673089,345.825604 685.417048,346.113651 685.06499,346.113651 L681.256368,346.113651 C680.936316,346.113651 680.648269,345.825604 680.648269,345.505552 Z M705.388308,345.345526 L705.388308,324.478119 C705.388308,324.062051 705.708361,323.709993 706.156434,323.709993 L709.901045,323.709993 C710.317113,323.709993 710.66917,324.062051 710.66917,324.478119 L710.66917,332.895493 L717.774331,324.030046 C717.902351,323.87002 718.190398,323.709993 718.38243,323.709993 L722.415088,323.709993 C723.023187,323.709993 723.34324,324.414108 722.991182,324.894187 L715.50196,334.271718 L723.663292,344.897453 C724.015349,345.377531 723.663292,346.081646 723.055193,346.081646 L718.638472,346.081646 C718.414435,346.081646 718.126388,345.953625 718.062378,345.857609 L710.66917,335.807969 L710.66917,345.345526 C710.66917,345.761594 710.317113,346.113651 709.901045,346.113651 L706.156434,346.113651 C705.708361,346.113651 705.388308,345.761594 705.388308,345.345526 Z M741.074135,345.505552 L741.074135,324.318093 C741.074135,323.99804 741.330176,323.709993 741.682234,323.709993 L754.932397,323.709993 C755.284455,323.709993 755.540496,323.99804 755.540496,324.318093 L755.540496,327.806662 C755.540496,328.126715 755.284455,328.414762 754.932397,328.414762 L746.06695,328.414762 L746.06695,332.38341 L753.364141,332.38341 C753.684193,332.38341 753.97224,332.671457 753.97224,332.991509 L753.97224,336.480078 C753.97224,336.832136 753.684193,337.088178 753.364141,337.088178 L746.06695,337.088178 L746.06695,341.408883 L754.932397,341.408883 C755.284455,341.408883 755.540496,341.69693 755.540496,342.016982 L755.540496,345.505552 C755.540496,345.825604 755.284455,346.113651 754.932397,346.113651 L741.682234,346.113651 C741.330176,346.113651 741.074135,345.825604 741.074135,345.505552 Z M762.709667,345.505552 L762.709667,328.414762 L758.13292,328.414762 C757.780862,328.414762 757.52482,328.126715 757.52482,327.806662 L757.52482,324.318093 C757.52482,323.99804 757.780862,323.709993 758.13292,323.709993 L772.34324,323.709993 C772.695297,323.709993 772.951339,323.99804 772.951339,324.318093 L772.951339,327.806662 C772.951339,328.126715 772.695297,328.414762 772.34324,328.414762 L767.766492,328.414762 L767.766492,345.505552 C767.766492,345.825604 767.478445,346.113651 767.158393,346.113651 L763.317766,346.113651 C762.997714,346.113651 762.709667,345.825604 762.709667,345.505552 Z M776.151862,345.505552 L776.151862,324.318093 C776.151862,323.99804 776.439909,323.709993 776.759961,323.709993 L780.568583,323.709993 C780.92064,323.709993 781.176682,323.99804 781.176682,324.318093 L781.176682,332.38341 L790.330176,332.38341 L790.330176,324.318093 C790.330176,323.99804 790.586218,323.709993 790.938276,323.709993 L794.746897,323.709993 C795.06695,323.709993 795.354997,323.99804 795.354997,324.318093 L795.354997,345.505552 C795.354997,345.825604 795.06695,346.113651 794.746897,346.113651 L790.938276,346.113651 C790.586218,346.113651 790.330176,345.825604 790.330176,345.505552 L790.330176,337.088178 L781.176682,337.088178 L781.176682,345.505552 C781.176682,345.825604 780.92064,346.113651 780.568583,346.113651 L776.759961,346.113651 C776.439909,346.113651 776.151862,345.825604 776.151862,345.505552 Z M800.859895,345.505552 L800.859895,324.318093 C800.859895,323.99804 801.115937,323.709993 801.467995,323.709993 L814.718158,323.709993 C815.070216,323.709993 815.326257,323.99804 815.326257,324.318093 L815.326257,327.806662 C815.326257,328.126715 815.070216,328.414762 814.718158,328.414762 L805.852711,328.414762 L805.852711,332.38341 L813.149902,332.38341 C813.469954,332.38341 813.758001,332.671457 813.758001,332.991509 L813.758001,336.480078 C813.758001,336.832136 813.469954,337.088178 813.149902,337.088178 L805.852711,337.088178 L805.852711,341.408883 L814.718158,341.408883 C815.070216,341.408883 815.326257,341.69693 815.326257,342.016982 L815.326257,345.505552 C815.326257,345.825604 815.070216,346.113651 814.718158,346.113651 L801.467995,346.113651 C801.115937,346.113651 800.859895,345.825604 800.859895,345.505552 Z M819.614958,345.505552 L819.614958,324.318093 C819.614958,323.99804 819.870999,323.709993 820.223057,323.709993 L829.792619,323.709993 C833.633246,323.709993 836.769758,326.8145 836.769758,330.623122 C836.769758,333.567603 834.81744,335.93599 832.032985,337.056172 L836.417701,345.1855 C836.641737,345.601568 836.417701,346.113651 835.873612,346.113651 L831.616917,346.113651 C831.360875,346.113651 831.168844,345.953625 831.104833,345.825604 L826.848138,337.344219 L824.639778,337.344219 L824.639778,345.505552 C824.639778,345.825604 824.351731,346.113651 824.031679,346.113651 L820.223057,346.113651 C819.870999,346.113651 819.614958,345.825604 819.614958,345.505552 Z M824.639778,333.279556 L829.376551,333.279556 C830.688766,333.279556 831.808948,332.063357 831.808948,330.719138 C831.808948,329.374918 830.688766,328.286741 829.376551,328.286741 L824.639778,328.286741 L824.639778,333.279556 Z M841.058459,345.505552 L841.058459,324.318093 C841.058459,323.99804 841.3145,323.709993 841.666558,323.709993 L854.916721,323.709993 C855.268779,323.709993 855.52482,323.99804 855.52482,324.318093 L855.52482,327.806662 C855.52482,328.126715 855.268779,328.414762 854.916721,328.414762 L846.051274,328.414762 L846.051274,332.38341 L853.348465,332.38341 C853.668517,332.38341 853.956564,332.671457 853.956564,332.991509 L853.956564,336.480078 C853.956564,336.832136 853.668517,337.088178 853.348465,337.088178 L846.051274,337.088178 L846.051274,341.408883 L854.916721,341.408883 C855.268779,341.408883 855.52482,341.69693 855.52482,342.016982 L855.52482,345.505552 C855.52482,345.825604 855.268779,346.113651 854.916721,346.113651 L841.666558,346.113651 C841.3145,346.113651 841.058459,345.825604 841.058459,345.505552 Z M859.493468,337.536251 L859.493468,324.318093 C859.493468,323.99804 859.781515,323.709993 860.101568,323.709993 L864.03821,323.709993 C864.390268,323.709993 864.64631,323.99804 864.64631,324.318093 L864.64631,337.280209 C864.64631,339.520575 866.310581,341.312867 868.582952,341.312867 C870.887329,341.312867 872.583605,339.520575 872.583605,337.280209 L872.583605,324.318093 C872.583605,323.99804 872.839647,323.709993 873.191705,323.709993 L877.128347,323.709993 C877.4484,323.709993 877.736447,323.99804 877.736447,324.318093 L877.736447,337.536251 C877.736447,342.401045 873.639778,346.433703 868.582952,346.433703 C863.558132,346.433703 859.493468,342.401045 859.493468,337.536251 Z M881.481058,345.409536 L885.097649,323.902025 C885.129654,323.613978 885.417701,323.389941 885.673743,323.389941 L886.185826,323.389941 C886.345852,323.389941 886.633899,323.517962 886.729915,323.709993 L894.155127,337.536251 L894.219138,337.536251 L901.64435,323.709993 C901.740366,323.517962 902.028413,323.389941 902.188439,323.389941 L902.700523,323.389941 C902.956564,323.389941 903.244611,323.613978 903.276617,323.902025 L906.893207,345.409536 C906.957218,345.825604 906.66917,346.113651 906.285108,346.113651 L902.508491,346.113651 C902.220444,346.113651 901.932397,345.857609 901.900392,345.601568 L900.460157,335.711953 L900.396146,335.711953 L895.019268,346.081646 C894.923253,346.273677 894.635206,346.433703 894.47518,346.433703 L893.899086,346.433703 C893.707054,346.433703 893.451012,346.273677 893.354997,346.081646 L887.946114,335.711953 L887.882103,335.711953 L886.473873,345.601568 C886.441868,345.857609 886.185826,346.113651 885.865774,346.113651 L882.089157,346.113651 C881.705095,346.113651 881.417048,345.825604 881.481058,345.409536 Z"/>
    <path stroke="#0CC0D8" stroke-linecap="round" stroke-linejoin="round" d="M6.0962647,-0.499999146 L6.0980608,-0.49999924 C8.05470245,-0.496586639 9.6443501,1.05230864 9.6443501,2.97206154 C9.64421609,4.89174122 8.05472266,6.44028295 6.09631358,6.44382699 C5.67551108,6.44318693 5.26336401,6.36930481 4.8727731,6.22803375 L4.21189699,5.98900445 L4.6543889,5.44302537 C4.66025201,5.43579103 4.66442148,5.42830339 4.66689341,5.42106686 L4.82944716,4.9451941 L5.30438162,5.1104692 C5.55924869,5.19916181 5.82540279,5.2451122 6.09711698,5.24520342 C7.39487335,5.24501715 8.44019334,4.22504564 8.44235323,2.97292527 C8.44009944,1.71891753 7.39488071,0.699016403 6.09718874,0.698737 C5.82716979,0.698737 5.56279492,0.744089622 5.31004856,0.831661488 L4.82062185,1.00123865 L4.66842629,0.506131161 C4.66614264,0.498702237 4.66213499,0.490944573 4.65591967,0.482710863 L4.24570952,-0.0607123222 L4.88699968,-0.289465565 C5.27320203,-0.427226978 5.68045266,-0.499230688 6.0962647,-0.499999146 Z M5.0711206,5.78076799 L5.43127955,6.0726609 C5.51057388,5.97482174 5.57238738,5.8638155 5.61320641,5.74431865 L5.14004991,5.58269275 L5.0711206,5.78076799 Z M5.07859478,0.163648988 L5.14635517,0.359216282 L5.62428406,0.212301403 C5.58734206,0.0921253623 5.52952971,-0.0197827185 5.45405271,-0.119770378 L5.07859478,0.163648988 Z M6.09721472,0.500000959 C6.09751407,0.500000304 6.09781342,0.499999699 6.09811279,0.499999146 L6.09631669,0.49999924 C6.09661606,0.499999762 6.09691542,0.500000334 6.09721477,0.500000955 Z M3.04791576,5.2452034 C3.31994737,5.24509859 3.58595746,5.19920813 3.83958468,5.11071578 L4.31275434,4.94562352 L4.47676511,5.41916913 C4.47982268,5.4279972 4.48424791,5.43594729 4.49007584,5.44313822 L4.93280022,5.98940414 L4.27145833,6.22823092 C3.8809989,6.3692354 3.46922877,6.44305901 3.04705843,6.44382674 C1.09010458,6.44028305 -0.499731982,4.89176917 -0.499999995,2.97195683 C-0.499731972,1.05221178 1.09018824,-0.49658688 3.04888876,-0.499999145 C3.4644629,-0.499230404 3.8717531,-0.42719005 4.25768482,-0.289428055 L4.89785078,-0.0609147293 L4.48907364,0.482161737 C4.48235865,0.491082858 4.47819178,0.499126179 4.47603845,0.506131161 L4.32380653,1.00135691 L3.83430342,0.831622406 C3.58202074,0.744143747 3.31790529,0.698849855 3.04803562,0.69884985 C1.75022825,0.699036141 0.704344233,1.71918854 0.701996803,2.97109049 C0.704344161,4.22482613 1.75016385,5.24495432 3.04791576,5.2452034 Z M4.07339552,5.7808392 L4.00430019,5.58280561 L3.53183527,5.74644209 C3.5729901,5.86526776 3.63434631,5.97549655 3.71318518,6.07277376 L4.07339552,5.7808392 Z M4.06592115,0.163652145 L3.69011275,-0.119221253 C3.6148886,-0.0192830165 3.55704921,0.092364383 3.52018068,0.212301403 L3.99810957,0.359216282 L4.06592115,0.163652145 Z M5.46872625,5.50882638 C5.41236501,5.95189948 5.03018708,6.29090954 4.57211773,6.29090954 C4.07594088,6.29090954 3.66898747,5.89343992 3.66846629,5.3960312 C3.66846629,4.89914683 4.075496,4.50238606 4.57314745,4.50137962 C4.63720067,4.50151154 4.70030091,4.50831711 4.76158719,4.52135304 C5.02331076,4.24954735 5.2138574,3.918574 5.31626408,3.54924291 C5.31170716,3.56536837 5.31170716,3.56536837 5.31448937,3.5549084 C5.32361742,3.52148121 5.33219319,3.48674126 5.34014614,3.45108696 C5.34029788,3.45040001 5.34029788,3.45040001 5.34063905,3.44882249 C5.34107164,3.44680815 5.34107164,3.44680815 5.34168867,3.44392526 C5.34320264,3.43686269 5.34320264,3.43686269 5.34363109,3.43515349 C5.35343647,3.3871538 5.35686037,3.36939402 5.36278002,3.33490682 C5.36283727,3.33440194 5.36309608,3.33255109 5.36355149,3.32929435 C5.3636267,3.32873103 5.3636267,3.32873103 5.36370661,3.32813224 C5.36453069,3.32194559 5.36453069,3.32194559 5.36730491,3.30298364 C5.37400065,3.25997139 5.37600025,3.2455996 5.37934954,3.21537024 C5.38012767,3.20816645 5.38012767,3.20816645 5.38177017,3.18822541 C5.38225301,3.18224853 5.38225301,3.18224853 5.38313116,3.17179031 C5.38381453,3.16428395 5.38381453,3.16428395 5.38446789,3.15717205 C5.38520737,3.14912361 5.38520737,3.14912361 5.38589003,3.14160946 C5.38813632,3.11603412 5.38813632,3.11603412 5.3893327,3.09773709 C5.39193337,3.0515521 5.39324216,3.01048153 5.39324216,2.97202664 L5.39335548,2.97191332 C5.39187535,2.3367292 5.12179094,1.74413598 4.65321412,1.316885 L4.25615617,0.954845319 L4.64580263,0.584840753 C4.65255601,0.578427806 4.65892033,0.569853741 4.66445043,0.559047146 L4.96001917,-0.0185356358 L5.44322625,0.414446662 C6.17164635,1.06715442 6.59523984,1.98579769 6.59523984,2.97213949 C6.59523984,3.03663312 6.59318565,3.10232124 6.58908871,3.17403489 C6.58729933,3.1990221 6.58729933,3.1990221 6.58582145,3.21559731 C6.5857811,3.21605376 6.5857811,3.21605376 6.58574151,3.21650168 C6.58485347,3.22664608 6.58485347,3.22664608 6.58427691,3.23440299 C6.57935193,3.29661984 6.57935193,3.29661984 6.57215407,3.3667172 C6.56799031,3.39957383 6.56799031,3.39957383 6.56459193,3.42264922 C6.56453159,3.42306114 6.56453159,3.42306114 6.56447181,3.42346917 C6.5626145,3.43618661 6.5626145,3.43618661 6.56081673,3.44934805 C6.55392469,3.49797688 6.55392469,3.49797688 6.54424456,3.55749797 C6.53531194,3.60643165 6.53531194,3.60643165 6.52658548,3.64913129 C6.51761677,3.69311493 6.51761677,3.69311493 6.5063963,3.74337561 C6.49398525,3.79475704 6.49398525,3.79475704 6.48160664,3.84248915 C6.47109883,3.88183051 6.47109883,3.88183051 6.4595648,3.92248827 C6.44394235,3.97518112 6.44394235,3.97518112 6.42568301,4.03207772 C6.41551283,4.06274257 6.41551283,4.06274257 6.4057904,4.09051467 C6.38444948,4.15102176 6.38444948,4.15102176 6.35802861,4.22027002 C6.35512715,4.22740952 6.35512715,4.22740952 6.3527895,4.23306552 C6.34902616,4.2421361 6.34902616,4.2421361 6.34780741,4.24513199 L6.34743534,4.2460572 C6.1534965,4.72693399 5.85216996,5.15793984 5.46872625,5.50882638 Z M4.57262152,5.09183423 L4.57161445,5.09183423 C4.41020725,5.0919967 4.2743657,5.22456403 4.27400333,5.39751891 C4.27454737,5.56747097 4.41052253,5.70011556 4.57211773,5.70011556 C4.73394497,5.70011556 4.87028169,5.56701351 4.87046369,5.39538426 C4.8702815,5.224821 4.73428416,5.09199712 4.57262152,5.09183423 Z M3.75146095,2.97471513 C3.75373851,3.60453505 4.02034671,4.19229551 4.48324951,4.61893259 L4.86693264,4.97255641 L4.49727495,5.34081683 C4.4903937,5.34767206 4.4848615,5.35551703 4.48075117,5.36423579 L4.1936664,5.9731952 L3.69366617,5.52236375 C2.96999121,4.86985318 2.54956882,3.95455941 2.54956882,2.97213949 C2.54956882,2.90720847 2.55156738,2.84146386 2.5554665,2.77320441 C2.55777836,2.73967683 2.55777836,2.73967683 2.55988705,2.71630922 C2.56085124,2.70551616 2.56085124,2.70551616 2.56163354,2.69609252 C2.5622585,2.68860665 2.5622585,2.68860665 2.56290666,2.68078427 C2.56670494,2.63474854 2.56670494,2.63474854 2.57277467,2.57676724 C2.57735082,2.54074496 2.57735082,2.54074496 2.58136757,2.51284321 C2.58182763,2.50963887 2.58182763,2.50963887 2.58226894,2.50656009 C2.58353425,2.49769974 2.58353425,2.49769974 2.58505179,2.48682261 C2.58565473,2.48263205 2.58565473,2.48263205 2.58627433,2.47832188 C2.58995132,2.45275891 2.58995132,2.45275891 2.59445878,2.4232788 C2.5973745,2.40502263 2.5973745,2.40502263 2.60053603,2.38669428 C2.60872246,2.34199904 2.60872246,2.34199904 2.615986,2.30600285 C2.61766425,2.29767345 2.61766425,2.29767345 2.61962527,2.28790538 C2.62806699,2.24687554 2.62806699,2.24687554 2.63844068,2.20078579 C2.65148624,2.14634095 2.65148624,2.14634095 2.66501634,2.09405241 C2.67511193,2.05673329 2.67511193,2.05673329 2.68540156,2.021686 C2.70182928,1.96578296 2.70182928,1.96578296 2.72062376,1.90699855 C2.72679328,1.88844688 2.72679328,1.88844688 2.73194564,1.87368039 C2.73474549,1.86571726 2.73474549,1.86571726 2.73709068,1.8590728 C2.73852422,1.85500149 2.73852422,1.85500149 2.73935809,1.85262299 C2.76145518,1.78956321 2.77129522,1.76263047 2.79065045,1.71390117 C2.79301475,1.70821173 2.79301475,1.70821173 2.79555222,1.70212107 C2.79817784,1.69583457 2.79817784,1.69583457 2.79801634,1.69635596 C2.99142191,1.21731679 3.29142713,0.788061899 3.6730644,0.43836842 C3.71865033,-0.0158917701 4.1061428,-0.365783348 4.57310934,-0.366492394 C5.0685924,-0.365736955 5.47573793,0.0309019163 5.47599783,0.528833457 C5.47521656,1.02540787 5.06834724,1.42256041 4.57234701,1.4228123 C4.51346474,1.4228123 4.45546127,1.41711259 4.39896162,1.40608195 C4.1298902,1.68015136 3.93435056,2.01485807 3.83322296,2.37857082 C3.83193184,2.38328177 3.83193184,2.38328177 3.83138196,2.38523849 C3.831244,2.38573636 3.831244,2.38573636 3.83112097,2.38618867 C3.82170934,2.42019019 3.81292763,2.45541342 3.80506603,2.49055356 C3.80467627,2.49232112 3.80467627,2.49232112 3.80403008,2.49527841 C3.80388448,2.49594447 3.80388448,2.49594447 3.80372787,2.49666018 C3.80206671,2.50423798 3.80206671,2.50423798 3.80189204,2.50466807 C3.79456811,2.53917898 3.78810902,2.5727623 3.78211446,2.60787668 C3.78206973,2.60819796 3.78190951,2.60925989 3.78161856,2.61118837 C3.78148615,2.61208882 3.78148615,2.61208882 3.78133285,2.61313317 C3.78019669,2.62090613 3.78019669,2.62090613 3.77864981,2.6307563 C3.77088356,2.68155314 3.76845818,2.69883175 3.76576624,2.72233277 C3.7653719,2.72628908 3.7653719,2.72628908 3.7644647,2.73679773 C3.76361828,2.7467492 3.76361828,2.7467492 3.76231195,2.76094762 C3.75764903,2.80994666 3.75626929,2.82613019 3.75498371,2.84848824 L3.75496797,2.84876069 C3.75374329,2.86985857 3.75340704,2.88383832 3.75281099,2.93856422 C3.75236686,2.95382983 3.75236686,2.95382983 3.75191191,2.9642242 C3.75181867,2.96631363 3.75181867,2.96631363 3.75173655,2.9681324 C3.75159978,2.97149303 3.7515124,2.97364026 3.75146095,2.97471513 Z M4.57223237,0.832131171 C4.73376223,0.832131171 4.86950552,0.699660185 4.87023212,0.526330017 C4.86968674,0.356319363 4.73422502,0.224174684 4.57122478,0.223850601 C4.41010852,0.22417528 4.27484524,0.35623023 4.27411996,0.530068029 C4.27484393,0.69968728 4.41061335,0.832131171 4.57223237,0.832131171 Z" transform="translate(726.519 331.94)"/>
    <path stroke="#0CC0D8" stroke-linecap="round" stroke-linejoin="round" d="M6.0962647,-0.499999146 L6.0980608,-0.49999924 C8.05470245,-0.496586639 9.6443501,1.05230864 9.6443501,2.97206154 C9.64421609,4.89174122 8.05472266,6.44028295 6.09631358,6.44382699 C5.67551108,6.44318693 5.26336401,6.36930481 4.8727731,6.22803375 L4.21189699,5.98900445 L4.6543889,5.44302537 C4.66025201,5.43579103 4.66442148,5.42830339 4.66689341,5.42106686 L4.82944716,4.9451941 L5.30438162,5.1104692 C5.55924869,5.19916181 5.82540279,5.2451122 6.09711698,5.24520342 C7.39487335,5.24501715 8.44019334,4.22504564 8.44235323,2.97292527 C8.44009944,1.71891753 7.39488071,0.699016403 6.09718874,0.698737 C5.82716979,0.698737 5.56279492,0.744089622 5.31004856,0.831661488 L4.82062185,1.00123865 L4.66842629,0.506131161 C4.66614264,0.498702237 4.66213499,0.490944573 4.65591967,0.482710863 L4.24570952,-0.0607123222 L4.88699968,-0.289465565 C5.27320203,-0.427226978 5.68045266,-0.499230688 6.0962647,-0.499999146 Z M5.0711206,5.78076799 L5.43127955,6.0726609 C5.51057388,5.97482174 5.57238738,5.8638155 5.61320641,5.74431865 L5.14004991,5.58269275 L5.0711206,5.78076799 Z M5.07859478,0.163648988 L5.14635517,0.359216282 L5.62428406,0.212301403 C5.58734206,0.0921253623 5.52952971,-0.0197827185 5.45405271,-0.119770378 L5.07859478,0.163648988 Z M6.09721472,0.500000959 C6.09751407,0.500000304 6.09781342,0.499999699 6.09811279,0.499999146 L6.09631669,0.49999924 C6.09661606,0.499999762 6.09691542,0.500000334 6.09721477,0.500000955 Z M3.04791576,5.2452034 C3.31994737,5.24509859 3.58595746,5.19920813 3.83958468,5.11071578 L4.31275434,4.94562352 L4.47676511,5.41916913 C4.47982268,5.4279972 4.48424791,5.43594729 4.49007584,5.44313822 L4.93280022,5.98940414 L4.27145833,6.22823092 C3.8809989,6.3692354 3.46922877,6.44305901 3.04705843,6.44382674 C1.09010458,6.44028305 -0.499731982,4.89176917 -0.499999995,2.97195683 C-0.499731972,1.05221178 1.09018824,-0.49658688 3.04888876,-0.499999145 C3.4644629,-0.499230404 3.8717531,-0.42719005 4.25768482,-0.289428055 L4.89785078,-0.0609147293 L4.48907364,0.482161737 C4.48235865,0.491082858 4.47819178,0.499126179 4.47603845,0.506131161 L4.32380653,1.00135691 L3.83430342,0.831622406 C3.58202074,0.744143747 3.31790529,0.698849855 3.04803562,0.69884985 C1.75022825,0.699036141 0.704344233,1.71918854 0.701996803,2.97109049 C0.704344161,4.22482613 1.75016385,5.24495432 3.04791576,5.2452034 Z M4.07339552,5.7808392 L4.00430019,5.58280561 L3.53183527,5.74644209 C3.5729901,5.86526776 3.63434631,5.97549655 3.71318518,6.07277376 L4.07339552,5.7808392 Z M4.06592115,0.163652145 L3.69011275,-0.119221253 C3.6148886,-0.0192830165 3.55704921,0.092364383 3.52018068,0.212301403 L3.99810957,0.359216282 L4.06592115,0.163652145 Z M5.46872625,5.50882638 C5.41236501,5.95189948 5.03018708,6.29090954 4.57211773,6.29090954 C4.07594088,6.29090954 3.66898747,5.89343992 3.66846629,5.3960312 C3.66846629,4.89914683 4.075496,4.50238606 4.57314745,4.50137962 C4.63720067,4.50151154 4.70030091,4.50831711 4.76158719,4.52135304 C5.02331076,4.24954735 5.2138574,3.918574 5.31626408,3.54924291 C5.31170716,3.56536837 5.31170716,3.56536837 5.31448937,3.5549084 C5.32361742,3.52148121 5.33219319,3.48674126 5.34014614,3.45108696 C5.34029788,3.45040001 5.34029788,3.45040001 5.34063905,3.44882249 C5.34107164,3.44680815 5.34107164,3.44680815 5.34168867,3.44392526 C5.34320264,3.43686269 5.34320264,3.43686269 5.34363109,3.43515349 C5.35343647,3.3871538 5.35686037,3.36939402 5.36278002,3.33490682 C5.36283727,3.33440194 5.36309608,3.33255109 5.36355149,3.32929435 C5.3636267,3.32873103 5.3636267,3.32873103 5.36370661,3.32813224 C5.36453069,3.32194559 5.36453069,3.32194559 5.36730491,3.30298364 C5.37400065,3.25997139 5.37600025,3.2455996 5.37934954,3.21537024 C5.38012767,3.20816645 5.38012767,3.20816645 5.38177017,3.18822541 C5.38225301,3.18224853 5.38225301,3.18224853 5.38313116,3.17179031 C5.38381453,3.16428395 5.38381453,3.16428395 5.38446789,3.15717205 C5.38520737,3.14912361 5.38520737,3.14912361 5.38589003,3.14160946 C5.38813632,3.11603412 5.38813632,3.11603412 5.3893327,3.09773709 C5.39193337,3.0515521 5.39324216,3.01048153 5.39324216,2.97202664 L5.39335548,2.97191332 C5.39187535,2.3367292 5.12179094,1.74413598 4.65321412,1.316885 L4.25615617,0.954845319 L4.64580263,0.584840753 C4.65255601,0.578427806 4.65892033,0.569853741 4.66445043,0.559047146 L4.96001917,-0.0185356358 L5.44322625,0.414446662 C6.17164635,1.06715442 6.59523984,1.98579769 6.59523984,2.97213949 C6.59523984,3.03663312 6.59318565,3.10232124 6.58908871,3.17403489 C6.58729933,3.1990221 6.58729933,3.1990221 6.58582145,3.21559731 C6.5857811,3.21605376 6.5857811,3.21605376 6.58574151,3.21650168 C6.58485347,3.22664608 6.58485347,3.22664608 6.58427691,3.23440299 C6.57935193,3.29661984 6.57935193,3.29661984 6.57215407,3.3667172 C6.56799031,3.39957383 6.56799031,3.39957383 6.56459193,3.42264922 C6.56453159,3.42306114 6.56453159,3.42306114 6.56447181,3.42346917 C6.5626145,3.43618661 6.5626145,3.43618661 6.56081673,3.44934805 C6.55392469,3.49797688 6.55392469,3.49797688 6.54424456,3.55749797 C6.53531194,3.60643165 6.53531194,3.60643165 6.52658548,3.64913129 C6.51761677,3.69311493 6.51761677,3.69311493 6.5063963,3.74337561 C6.49398525,3.79475704 6.49398525,3.79475704 6.48160664,3.84248915 C6.47109883,3.88183051 6.47109883,3.88183051 6.4595648,3.92248827 C6.44394235,3.97518112 6.44394235,3.97518112 6.42568301,4.03207772 C6.41551283,4.06274257 6.41551283,4.06274257 6.4057904,4.09051467 C6.38444948,4.15102176 6.38444948,4.15102176 6.35802861,4.22027002 C6.35512715,4.22740952 6.35512715,4.22740952 6.3527895,4.23306552 C6.34902616,4.2421361 6.34902616,4.2421361 6.34780741,4.24513199 L6.34743534,4.2460572 C6.1534965,4.72693399 5.85216996,5.15793984 5.46872625,5.50882638 Z M4.57262152,5.09183423 L4.57161445,5.09183423 C4.41020725,5.0919967 4.2743657,5.22456403 4.27400333,5.39751891 C4.27454737,5.56747097 4.41052253,5.70011556 4.57211773,5.70011556 C4.73394497,5.70011556 4.87028169,5.56701351 4.87046369,5.39538426 C4.8702815,5.224821 4.73428416,5.09199712 4.57262152,5.09183423 Z M3.75146095,2.97471513 C3.75373851,3.60453505 4.02034671,4.19229551 4.48324951,4.61893259 L4.86693264,4.97255641 L4.49727495,5.34081683 C4.4903937,5.34767206 4.4848615,5.35551703 4.48075117,5.36423579 L4.1936664,5.9731952 L3.69366617,5.52236375 C2.96999121,4.86985318 2.54956882,3.95455941 2.54956882,2.97213949 C2.54956882,2.90720847 2.55156738,2.84146386 2.5554665,2.77320441 C2.55777836,2.73967683 2.55777836,2.73967683 2.55988705,2.71630922 C2.56085124,2.70551616 2.56085124,2.70551616 2.56163354,2.69609252 C2.5622585,2.68860665 2.5622585,2.68860665 2.56290666,2.68078427 C2.56670494,2.63474854 2.56670494,2.63474854 2.57277467,2.57676724 C2.57735082,2.54074496 2.57735082,2.54074496 2.58136757,2.51284321 C2.58182763,2.50963887 2.58182763,2.50963887 2.58226894,2.50656009 C2.58353425,2.49769974 2.58353425,2.49769974 2.58505179,2.48682261 C2.58565473,2.48263205 2.58565473,2.48263205 2.58627433,2.47832188 C2.58995132,2.45275891 2.58995132,2.45275891 2.59445878,2.4232788 C2.5973745,2.40502263 2.5973745,2.40502263 2.60053603,2.38669428 C2.60872246,2.34199904 2.60872246,2.34199904 2.615986,2.30600285 C2.61766425,2.29767345 2.61766425,2.29767345 2.61962527,2.28790538 C2.62806699,2.24687554 2.62806699,2.24687554 2.63844068,2.20078579 C2.65148624,2.14634095 2.65148624,2.14634095 2.66501634,2.09405241 C2.67511193,2.05673329 2.67511193,2.05673329 2.68540156,2.021686 C2.70182928,1.96578296 2.70182928,1.96578296 2.72062376,1.90699855 C2.72679328,1.88844688 2.72679328,1.88844688 2.73194564,1.87368039 C2.73474549,1.86571726 2.73474549,1.86571726 2.73709068,1.8590728 C2.73852422,1.85500149 2.73852422,1.85500149 2.73935809,1.85262299 C2.76145518,1.78956321 2.77129522,1.76263047 2.79065045,1.71390117 C2.7954634,1.70231787 2.7954634,1.70231787 2.79801634,1.69635596 C2.99142191,1.21731679 3.29142713,0.788061899 3.6730644,0.43836842 C3.71865033,-0.0158917701 4.1061428,-0.365783348 4.57310934,-0.366492394 C5.0685924,-0.365736955 5.47573793,0.0309019163 5.47599783,0.528833457 C5.47521656,1.02540787 5.06834724,1.42256041 4.57234701,1.4228123 C4.51346474,1.4228123 4.45546127,1.41711259 4.39896162,1.40608195 C4.1298902,1.68015136 3.93435056,2.01485807 3.83322296,2.37857082 C3.83193184,2.38328177 3.83193184,2.38328177 3.83138196,2.38523849 C3.831244,2.38573636 3.831244,2.38573636 3.83112097,2.38618867 C3.82170934,2.42019019 3.81292763,2.45541342 3.80506603,2.49055356 C3.80467627,2.49232112 3.80467627,2.49232112 3.80403008,2.49527841 C3.80388448,2.49594447 3.80388448,2.49594447 3.80372787,2.49666018 C3.80206671,2.50423798 3.80206671,2.50423798 3.80189204,2.50466807 C3.79456811,2.53917898 3.78810902,2.5727623 3.78211446,2.60787668 C3.78206973,2.60819796 3.78190951,2.60925989 3.78161856,2.61118837 C3.78148615,2.61208882 3.78148615,2.61208882 3.78133285,2.61313317 C3.78019669,2.62090613 3.78019669,2.62090613 3.77864981,2.6307563 C3.77088356,2.68155314 3.76845818,2.69883175 3.76576624,2.72233277 C3.7653719,2.72628908 3.7653719,2.72628908 3.7644647,2.73679773 C3.76361828,2.7467492 3.76361828,2.7467492 3.76231195,2.76094762 C3.75764903,2.80994666 3.75626929,2.82613019 3.75498371,2.84848824 L3.75496797,2.84876069 C3.75374329,2.86985857 3.75340704,2.88383832 3.75281099,2.93856422 C3.75236686,2.95382983 3.75236686,2.95382983 3.75191191,2.9642242 C3.75181867,2.96631363 3.75181867,2.96631363 3.75173655,2.9681324 C3.75159978,2.97149303 3.7515124,2.97364026 3.75146095,2.97471513 Z M4.57223237,0.832131171 C4.73376223,0.832131171 4.86950552,0.699660185 4.87023212,0.526330017 C4.86968674,0.356319363 4.73422502,0.224174684 4.57122478,0.223850601 C4.41010852,0.22417528 4.27484524,0.35623023 4.27411996,0.530068029 C4.27484393,0.69968728 4.41061335,0.832131171 4.57223237,0.832131171 Z" transform="translate(640.105 331.94)"/>
  </g>
</svg>
