<svg xmlns="http://www.w3.org/2000/svg" width="256" height="264" viewBox="0 0 256 264" style="background:#fff">
  <g fill="none" transform="translate(-39 -16)">
    <path fill="#FF00C0" stroke="#FF00C0" stroke-linecap="round" stroke-linejoin="round" stroke-width="4" d="M259.297,92.2183 C257.609,92.2183 256.119,91.3823 255.209,90.1003 C255.209,90.1003 250.834,85.1093 248.475,82.7473 C238.496,72.7683 226.877,64.9353 213.942,59.4633 C200.555,53.8003 186.331,50.9293 171.661,50.9293 C156.989,50.9293 142.765,53.8003 129.38,59.4633 C116.444,64.9353 104.825,72.7683 94.847,82.7473 C84.867,92.7283 77.033,104.3463 71.562,117.2813 C65.901,130.6683 63.029,144.8943 63.029,159.5633 C63.029,174.2323 65.901,188.4583 71.562,201.8453 C77.033,214.7803 84.867,226.3983 94.847,236.3773 C104.826,246.3573 116.445,254.1903 129.38,259.6623 C142.765,265.3253 156.989,268.1963 171.661,268.1963 C186.331,268.1963 200.556,265.3253 213.942,259.6623 C223.364,255.6773 232.083,250.4323 239.983,244.0233 C239.561,242.7803 239.325,241.4473 239.325,240.0603 C239.325,233.2913 244.813,227.8033 251.581,227.8033 C258.351,227.8033 263.839,233.2913 263.839,240.0603 C263.839,246.8303 258.351,252.3173 251.581,252.3173 C249.901,252.3173 248.298,251.9783 246.839,251.3643 C226.372,268.1463 200.194,278.2223 171.661,278.2223 C106.126,278.2223 53,225.0973 53,159.5623 C53,94.0273 106.126,40.9013 171.661,40.9013 C208.319,40.9013 241.081,57.5373 262.845,83.6593 C263.751,84.5663 264.314,85.8193 264.314,87.2023 C264.313,89.9753 262.069,92.2183 259.297,92.2183 Z" transform="scale(1 -1) rotate(45 543.873 0)"/>
    <polygon fill="#0CC0D8" points="165 176 165 138 129 154.259"/>
    <polygon fill="#0CC0D8" points="165 131.837 165 86 129 148"/>
    <polygon fill="#0CC0D8" points="171 86 171 131.428 208 147.667"/>
    <polygon fill="#0CC0D8" points="171 138 171 176 207 154.269"/>
    <polygon fill="#0CC0D8" points="165 220 165 189.523 129 168"/>
    <polygon fill="#0CC0D8" points="172 220 208 168 172 189.523"/>
  </g>
</svg>
