<svg xmlns="http://www.w3.org/2000/svg" width="1012" height="481" viewBox="0 0 1012 481" style="background:#fff">
  <g fill="none" transform="translate(-1049 -339)">
    <g transform="translate(1360 366)">
      <path fill="#FF00C0" stroke="#FF00C0" stroke-linecap="round" stroke-linejoin="round" stroke-width="4" d="M259.297,92.2183 C257.609,92.2183 256.119,91.3823 255.209,90.1003 C255.209,90.1003 250.834,85.1093 248.475,82.7473 C238.496,72.7683 226.877,64.9353 213.942,59.4633 C200.555,53.8003 186.331,50.9293 171.661,50.9293 C156.989,50.9293 142.765,53.8003 129.38,59.4633 C116.444,64.9353 104.825,72.7683 94.847,82.7473 C84.867,92.7283 77.033,104.3463 71.562,117.2813 C65.901,130.6683 63.029,144.8943 63.029,159.5633 C63.029,174.2323 65.901,188.4583 71.562,201.8453 C77.033,214.7803 84.867,226.3983 94.847,236.3773 C104.826,246.3573 116.445,254.1903 129.38,259.6623 C142.765,265.3253 156.989,268.1963 171.661,268.1963 C186.331,268.1963 200.556,265.3253 213.942,259.6623 C223.364,255.6773 232.083,250.4323 239.983,244.0233 C239.561,242.7803 239.325,241.4473 239.325,240.0603 C239.325,233.2913 244.813,227.8033 251.581,227.8033 C258.351,227.8033 263.839,233.2913 263.839,240.0603 C263.839,246.8303 258.351,252.3173 251.581,252.3173 C249.901,252.3173 248.298,251.9783 246.839,251.3643 C226.372,268.1463 200.194,278.2223 171.661,278.2223 C106.126,278.2223 53,225.0973 53,159.5623 C53,94.0273 106.126,40.9013 171.661,40.9013 C208.319,40.9013 241.081,57.5373 262.845,83.6593 C263.751,84.5663 264.314,85.8193 264.314,87.2023 C264.313,89.9753 262.069,92.2183 259.297,92.2183 Z" transform="scale(1 -1) rotate(45 543.873 0)"/>
      <polygon fill="#0CC0D8" points="165 176 165 138 129 154.259"/>
      <polygon fill="#0CC0D8" points="165 131.837 165 86 129 148"/>
      <polygon fill="#0CC0D8" points="171 86 171 131.428 208 147.667"/>
      <polygon fill="#0CC0D8" points="171 138 171 176 207 154.269"/>
      <polygon fill="#0CC0D8" points="165 220 165 189.523 129 168"/>
      <polygon fill="#0CC0D8" points="172 220 208 168 172 189.523"/>
    </g>
    <path fill="#0CC0D8" d="M1124.465,757 C1123.415,757 1122.855,756.09 1123.275,755.18 L1145.185,708.07 C1145.395,707.65 1145.885,707.3 1146.375,707.3 L1147.075,707.3 C1147.565,707.3 1148.055,707.65 1148.265,708.07 L1170.175,755.18 C1170.595,756.09 1170.035,757 1168.985,757 L1161.215,757 C1159.955,757 1159.395,756.58 1158.765,755.25 L1156.245,749.72 L1137.205,749.72 L1134.685,755.32 C1134.335,756.16 1133.565,757 1132.165,757 L1124.465,757 Z M1141.405,740.2 L1152.045,740.2 L1146.725,728.65 L1146.655,728.65 L1141.405,740.2 Z M1175.915,755.67 L1175.915,709.33 C1175.915,708.63 1176.475,708 1177.245,708 L1194.115,708 C1202.725,708 1209.795,715 1209.795,723.47 C1209.795,732.15 1202.725,739.22 1194.185,739.22 L1186.835,739.22 L1186.835,755.67 C1186.835,756.37 1186.205,757 1185.505,757 L1177.245,757 C1176.475,757 1175.915,756.37 1175.915,755.67 Z M1186.835,729 L1193.485,729 C1196.495,729 1199.015,726.62 1199.015,723.47 C1199.015,720.53 1196.495,718.29 1193.485,718.29 L1186.835,718.29 L1186.835,729 Z M1213.575,732.57 C1213.575,718.57 1224.705,707.3 1238.705,707.3 C1252.705,707.3 1263.905,718.57 1263.905,732.57 C1263.905,746.57 1252.705,757.7 1238.705,757.7 C1224.705,757.7 1213.575,746.57 1213.575,732.57 Z M1224.775,732.57 C1224.775,740.2 1231.075,746.5 1238.705,746.5 C1246.405,746.5 1252.705,740.2 1252.705,732.57 C1252.705,724.87 1246.405,718.5 1238.705,718.5 C1231.075,718.5 1224.775,724.87 1224.775,732.57 Z M1272.375,755.67 L1272.375,709.33 C1272.375,708.63 1272.935,708 1273.705,708 L1282.035,708 C1282.735,708 1283.365,708.63 1283.365,709.33 L1283.365,746.71 L1300.025,746.71 C1300.795,746.71 1301.355,747.34 1301.355,748.04 L1301.355,755.67 C1301.355,756.37 1300.795,757 1300.025,757 L1273.705,757 C1272.935,757 1272.375,756.37 1272.375,755.67 Z M1308.145,755.67 L1308.145,709.33 C1308.145,708.63 1308.705,708 1309.475,708 L1317.805,708 C1318.505,708 1319.135,708.63 1319.135,709.33 L1319.135,746.71 L1335.795,746.71 C1336.565,746.71 1337.125,747.34 1337.125,748.04 L1337.125,755.67 C1337.125,756.37 1336.565,757 1335.795,757 L1309.475,757 C1308.705,757 1308.145,756.37 1308.145,755.67 Z M1340.065,732.57 C1340.065,718.57 1351.195,707.3 1365.195,707.3 C1379.195,707.3 1390.395,718.57 1390.395,732.57 C1390.395,746.57 1379.195,757.7 1365.195,757.7 C1351.195,757.7 1340.065,746.57 1340.065,732.57 Z M1351.265,732.57 C1351.265,740.2 1357.565,746.5 1365.195,746.5 C1372.895,746.5 1379.195,740.2 1379.195,732.57 C1379.195,724.87 1372.895,718.5 1365.195,718.5 C1357.565,718.5 1351.265,724.87 1351.265,732.57 Z M1429.805,755.67 L1429.805,709.33 C1429.805,708.63 1430.365,708 1431.135,708 L1439.465,708 C1440.165,708 1440.795,708.63 1440.795,709.33 L1440.795,746.71 L1457.455,746.71 C1458.225,746.71 1458.785,747.34 1458.785,748.04 L1458.785,755.67 C1458.785,756.37 1458.225,757 1457.455,757 L1431.135,757 C1430.365,757 1429.805,756.37 1429.805,755.67 Z M1465.575,755.67 L1465.575,709.33 C1465.575,708.63 1466.205,708 1466.905,708 L1475.305,708 C1476.005,708 1476.635,708.63 1476.635,709.33 L1476.635,755.67 C1476.635,756.37 1476.005,757 1475.305,757 L1466.905,757 C1466.205,757 1465.575,756.37 1465.575,755.67 Z M1488.675,755.67 L1488.605,708.56 C1488.605,707.86 1489.235,707.3 1489.935,707.3 L1491.685,707.3 L1519.615,734.18 L1519.685,734.18 L1519.685,709.33 C1519.685,708.63 1520.245,708 1521.015,708 L1529.415,708 C1530.115,708 1530.745,708.63 1530.745,709.33 L1530.745,756.44 C1530.745,757.14 1530.115,757.7 1529.415,757.7 L1528.295,757.7 C1528.085,757.7 1527.525,757.49 1527.385,757.35 L1499.735,729.56 L1499.665,729.56 L1499.665,755.67 C1499.665,756.37 1499.105,757 1498.335,757 L1490.005,757 C1489.305,757 1488.675,756.37 1488.675,755.67 Z M1542.785,755.32 L1542.785,709.68 C1542.785,708.77 1543.485,708 1544.465,708 L1552.655,708 C1553.565,708 1554.335,708.77 1554.335,709.68 L1554.335,728.09 L1569.875,708.7 C1570.155,708.35 1570.785,708 1571.205,708 L1580.025,708 C1581.355,708 1582.055,709.54 1581.285,710.59 L1564.905,731.1 L1582.755,754.34 C1583.525,755.39 1582.755,756.93 1581.425,756.93 L1571.765,756.93 C1571.275,756.93 1570.645,756.65 1570.505,756.44 L1554.335,734.46 L1554.335,755.32 C1554.335,756.23 1553.565,757 1552.655,757 L1544.465,757 C1543.485,757 1542.785,756.23 1542.785,755.32 Z M1620.835,755.67 L1620.835,709.33 C1620.835,708.63 1621.395,708 1622.165,708 L1651.145,708 C1651.915,708 1652.475,708.63 1652.475,709.33 L1652.475,716.96 C1652.475,717.66 1651.915,718.29 1651.145,718.29 L1631.755,718.29 L1631.755,726.97 L1647.715,726.97 C1648.415,726.97 1649.045,727.6 1649.045,728.3 L1649.045,735.93 C1649.045,736.7 1648.415,737.26 1647.715,737.26 L1631.755,737.26 L1631.755,746.71 L1651.145,746.71 C1651.915,746.71 1652.475,747.34 1652.475,748.04 L1652.475,755.67 C1652.475,756.37 1651.915,757 1651.145,757 L1622.165,757 C1621.395,757 1620.835,756.37 1620.835,755.67 Z M1668.155,755.67 L1668.155,718.29 L1658.145,718.29 C1657.375,718.29 1656.815,717.66 1656.815,716.96 L1656.815,709.33 C1656.815,708.63 1657.375,708 1658.145,708 L1689.225,708 C1689.995,708 1690.555,708.63 1690.555,709.33 L1690.555,716.96 C1690.555,717.66 1689.995,718.29 1689.225,718.29 L1679.215,718.29 L1679.215,755.67 C1679.215,756.37 1678.585,757 1677.885,757 L1669.485,757 C1668.785,757 1668.155,756.37 1668.155,755.67 Z M1697.555,755.67 L1697.555,709.33 C1697.555,708.63 1698.185,708 1698.885,708 L1707.215,708 C1707.985,708 1708.545,708.63 1708.545,709.33 L1708.545,726.97 L1728.565,726.97 L1728.565,709.33 C1728.565,708.63 1729.125,708 1729.895,708 L1738.225,708 C1738.925,708 1739.555,708.63 1739.555,709.33 L1739.555,755.67 C1739.555,756.37 1738.925,757 1738.225,757 L1729.895,757 C1729.125,757 1728.565,756.37 1728.565,755.67 L1728.565,737.26 L1708.545,737.26 L1708.545,755.67 C1708.545,756.37 1707.985,757 1707.215,757 L1698.885,757 C1698.185,757 1697.555,756.37 1697.555,755.67 Z M1751.595,755.67 L1751.595,709.33 C1751.595,708.63 1752.155,708 1752.925,708 L1781.905,708 C1782.675,708 1783.235,708.63 1783.235,709.33 L1783.235,716.96 C1783.235,717.66 1782.675,718.29 1781.905,718.29 L1762.515,718.29 L1762.515,726.97 L1778.475,726.97 C1779.175,726.97 1779.805,727.6 1779.805,728.3 L1779.805,735.93 C1779.805,736.7 1779.175,737.26 1778.475,737.26 L1762.515,737.26 L1762.515,746.71 L1781.905,746.71 C1782.675,746.71 1783.235,747.34 1783.235,748.04 L1783.235,755.67 C1783.235,756.37 1782.675,757 1781.905,757 L1752.925,757 C1752.155,757 1751.595,756.37 1751.595,755.67 Z M1792.615,755.67 L1792.615,709.33 C1792.615,708.63 1793.175,708 1793.945,708 L1814.875,708 C1823.275,708 1830.135,714.79 1830.135,723.12 C1830.135,729.56 1825.865,734.74 1819.775,737.19 L1829.365,754.97 C1829.855,755.88 1829.365,757 1828.175,757 L1818.865,757 C1818.305,757 1817.885,756.65 1817.745,756.37 L1808.435,737.82 L1803.605,737.82 L1803.605,755.67 C1803.605,756.37 1802.975,757 1802.275,757 L1793.945,757 C1793.175,757 1792.615,756.37 1792.615,755.67 Z M1803.605,728.93 L1813.965,728.93 C1816.835,728.93 1819.285,726.27 1819.285,723.33 C1819.285,720.39 1816.835,718.01 1813.965,718.01 L1803.605,718.01 L1803.605,728.93 Z M1839.515,755.67 L1839.515,709.33 C1839.515,708.63 1840.075,708 1840.845,708 L1869.825,708 C1870.595,708 1871.155,708.63 1871.155,709.33 L1871.155,716.96 C1871.155,717.66 1870.595,718.29 1869.825,718.29 L1850.435,718.29 L1850.435,726.97 L1866.395,726.97 C1867.095,726.97 1867.725,727.6 1867.725,728.3 L1867.725,735.93 C1867.725,736.7 1867.095,737.26 1866.395,737.26 L1850.435,737.26 L1850.435,746.71 L1869.825,746.71 C1870.595,746.71 1871.155,747.34 1871.155,748.04 L1871.155,755.67 C1871.155,756.37 1870.595,757 1869.825,757 L1840.845,757 C1840.075,757 1839.515,756.37 1839.515,755.67 Z M1879.835,738.24 L1879.835,709.33 C1879.835,708.63 1880.465,708 1881.165,708 L1889.775,708 C1890.545,708 1891.105,708.63 1891.105,709.33 L1891.105,737.68 C1891.105,742.58 1894.745,746.5 1899.715,746.5 C1904.755,746.5 1908.465,742.58 1908.465,737.68 L1908.465,709.33 C1908.465,708.63 1909.025,708 1909.795,708 L1918.405,708 C1919.105,708 1919.735,708.63 1919.735,709.33 L1919.735,738.24 C1919.735,748.88 1910.775,757.7 1899.715,757.7 C1888.725,757.7 1879.835,748.88 1879.835,738.24 Z M1927.925,755.46 L1935.835,708.42 C1935.905,707.79 1936.535,707.3 1937.095,707.3 L1938.215,707.3 C1938.565,707.3 1939.195,707.58 1939.405,708 L1955.645,738.24 L1955.785,738.24 L1972.025,708 C1972.235,707.58 1972.865,707.3 1973.215,707.3 L1974.335,707.3 C1974.895,707.3 1975.525,707.79 1975.595,708.42 L1983.505,755.46 C1983.645,756.37 1983.015,757 1982.175,757 L1973.915,757 C1973.285,757 1972.655,756.44 1972.585,755.88 L1969.435,734.25 L1969.295,734.25 L1957.535,756.93 C1957.325,757.35 1956.695,757.7 1956.345,757.7 L1955.085,757.7 C1954.665,757.7 1954.105,757.35 1953.895,756.93 L1942.065,734.25 L1941.925,734.25 L1938.845,755.88 C1938.775,756.44 1938.215,757 1937.515,757 L1929.255,757 C1928.415,757 1927.785,756.37 1927.925,755.46 Z"/>
    <path stroke="#0CC0D8" stroke-linecap="round" stroke-linejoin="round" d="M13.3344988,-0.499999146 L13.3362949,-0.49999924 C17.2919568,-0.493100126 20.5,2.63270134 20.5,6.50028173 C20.49973,10.3677577 17.2920093,13.4928347 13.3344115,13.4999994 C12.4832237,13.4987047 11.6497402,13.3492932 10.8593377,13.0634161 L10.1984616,12.8243868 L10.6409535,12.2784077 C10.6973637,12.2088048 10.7406987,12.1309825 10.7688669,12.0485207 L10.9314207,11.5726479 L11.4063552,11.737923 C12.0258267,11.9534964 12.6737556,12.0653586 13.335351,12.0655806 C16.498107,12.0651267 19.0529099,9.57227647 19.058203,6.50114546 C19.0526798,3.4280141 16.4981359,0.93534715 13.3354228,0.934666211 C12.6780685,0.934666211 12.0342193,1.04511638 11.4195073,1.25810253 L10.9300806,1.4276797 L10.7778851,0.932572204 C10.7523182,0.849400619 10.711616,0.770612788 10.6569104,0.698141965 L10.2467003,0.15471878 L10.8879904,-0.074034463 C11.6695198,-0.352812126 12.493211,-0.49844437 13.3344988,-0.499999146 Z M11.0912652,12.6433654 L11.1837707,12.718337 C11.2853867,12.7518863 11.3876642,12.7830656 11.4905519,12.8118483 C11.5858018,12.6765161 11.661651,12.5284775 11.7151799,12.3717725 L11.2420234,12.2101466 L11.0912652,12.6433654 Z M11.515944,0.181391882 C11.418893,0.208191643 11.322396,0.237128674 11.2264992,0.268180367 L11.1076123,0.357923715 L11.255814,0.785657325 L11.7337428,0.638742446 C11.6838009,0.476276385 11.6102849,0.322736458 11.515944,0.181391882 Z M13.3354488,0.500000869 C13.3357481,0.500000274 13.3360475,0.499999699 13.3363468,0.499999146 L13.3345508,0.49999924 C13.3348501,0.499999762 13.3351495,0.500000304 13.3354488,0.500000868 Z M6.66628427,12.0655806 C7.32838503,12.0653448 7.97621992,11.9535936 8.59326105,11.7383036 L9.0664307,11.5732113 L9.23044148,12.0467569 C9.25974227,12.1313566 9.30321348,12.2094543 9.35929721,12.2786545 L9.80202159,12.8249205 L9.14067969,13.0637473 C8.35040481,13.3491349 7.51758307,13.4984461 6.66542694,13.4999992 C2.70899704,13.4928348 -0.499460045,10.3677712 -0.499999995,6.50017702 C-0.499460021,2.63255274 2.70918119,-0.49310046 6.66725726,-0.499999145 C7.50798926,-0.498443935 8.33172291,-0.352744223 9.11261616,-0.0739969529 L9.75278213,0.154516373 L9.34400498,0.697592839 C9.28865327,0.771129764 9.24768125,0.850218078 9.22236567,0.932572204 L9.07013375,1.42779795 L8.58063063,1.25806345 C7.96686168,1.04523994 7.32352903,0.93491304 6.66640412,0.934913035 C3.5035986,0.935367033 0.947549805,3.42853003 0.941796905,6.49931069 C0.947549732,9.57192481 3.50353403,12.0650636 6.66628427,12.0655806 Z M8.50980168,12.812199 C8.61269774,12.7833882 8.71494573,12.7521721 8.8164883,12.7185772 L8.90909792,12.6435212 L8.75797656,12.2103934 L8.28551163,12.3740299 C8.33969272,12.530466 8.41520273,12.6777119 8.50980168,12.812199 Z M8.89275041,0.357930621 L8.77326841,0.267995757 C8.6776374,0.237021492 8.58140177,0.208154842 8.48460794,0.181417981 C8.39009455,0.323055575 8.31636393,0.476555776 8.2665079,0.638742446 L8.74443678,0.785657325 L8.89275041,0.357930621 Z M11.3824733,11.767964 C11.3828024,11.7794846 11.3829682,11.7910531 11.3829681,11.8026777 C11.381779,12.5584789 10.7601057,13.1655464 9.99987463,13.1655464 C9.23928755,13.1655464 8.61782425,12.558566 8.61703128,11.8018911 C8.61703128,11.0462013 9.23864088,10.4402743 10.0009044,10.4387305 C10.2017131,10.439144 10.396142,10.4821157 10.5731644,10.561884 L10.5979215,10.5390854 C11.3640498,9.83356832 11.918067,8.93610063 12.1961589,7.93262276 C12.1925547,7.94539885 12.1925547,7.94539885 12.1961535,7.93145555 C12.2186277,7.8491541 12.2396146,7.76413745 12.2591004,7.67677875 C12.2599624,7.67287221 12.2599624,7.67287221 12.261001,7.66806675 C12.2621269,7.66282446 12.2621269,7.66282446 12.2634329,7.65672199 C12.2663248,7.64324538 12.2663248,7.64324538 12.2681652,7.63525613 C12.2855988,7.55230726 12.3007384,7.47314202 12.3149581,7.38960271 C12.3162156,7.38214102 12.3162156,7.38214102 12.3192011,7.36021688 C12.3193723,7.35893457 12.3193723,7.35893457 12.3195482,7.3576168 C12.3212358,7.34495998 12.3212358,7.34495998 12.3249102,7.31954113 C12.337142,7.24446139 12.346902,7.17431218 12.3547834,7.10291022 C12.3584794,7.06833275 12.3584794,7.06833275 12.362343,7.02091513 C12.3633811,7.00806642 12.3633811,7.00806642 12.3648254,6.99073531 C12.3662657,6.97491381 12.3662657,6.97491381 12.3676825,6.95949164 C12.3693127,6.94175005 12.3693127,6.94175005 12.3708758,6.92454507 C12.3763026,6.86297523 12.378059,6.84070984 12.3798731,6.80856461 C12.3861517,6.69706336 12.3893625,6.59630844 12.3893625,6.50024683 L12.3896118,6.49999755 C12.3863703,4.94142717 11.7236903,3.48700073 10.5771749,2.44160148 L10.1801169,2.0795618 L10.5697634,1.70955723 C10.6337136,1.6488307 10.6878864,1.57584871 10.7302226,1.49311782 L11.0257913,0.915535038 L11.5089984,1.34851734 C12.9783733,2.66516468 13.8311603,4.51459589 13.8311603,6.50049366 C13.8311603,6.62968187 13.8270163,6.76219717 13.8188849,6.90469065 C13.8158581,6.94700259 13.8158581,6.94700259 13.8128667,6.98070234 C13.8127783,6.98170233 13.8127783,6.98170233 13.8126907,6.98269378 C13.8105567,7.00697002 13.8105567,7.00697002 13.8089014,7.02896462 C13.8012787,7.12891742 13.7938804,7.21164418 13.7846661,7.2947175 C13.7773849,7.35221107 13.7773849,7.35221107 13.7703981,7.39978162 C13.770266,7.40068341 13.770266,7.40068341 13.7701344,7.40158132 C13.7658394,7.43095447 13.7658394,7.43095447 13.7617607,7.4608145 C13.7471162,7.56400416 13.7396307,7.61397423 13.7285848,7.67801972 C13.7179207,7.7387028 13.7059584,7.80034539 13.692689,7.86397113 C13.6787016,7.93341679 13.666236,7.99211676 13.6526299,8.05132778 C13.6377897,8.11438953 13.6216101,8.17878925 13.6019821,8.25373571 C13.581063,8.33206367 13.581063,8.33206367 13.5585733,8.41144007 C13.5320708,8.50148063 13.5113624,8.56891463 13.489715,8.63423804 C13.469814,8.69424331 13.469814,8.69424331 13.4498163,8.75135585 C13.4180343,8.8426327 13.388201,8.92428326 13.3555099,9.00811909 C13.3504914,9.0204687 13.3504914,9.0204687 13.3460216,9.0312852 C13.3379939,9.05061725 13.3379939,9.05061725 13.333629,9.0612889 L13.3326318,9.0637952 L13.3322598,9.06472041 C12.9120917,10.106539 12.241119,11.0330451 11.3824733,11.767964 Z M10.0003784,11.73014 L9.99937135,11.73014 C9.97039487,11.7301692 9.94151302,11.7583549 9.94142424,11.8032448 C9.94155783,11.8449771 9.97068991,11.8733956 9.99987463,11.8733956 C10.0292491,11.8733956 10.0587835,11.8445619 10.0588288,11.8011102 C10.0587833,11.7585703 10.029704,11.7301695 10.0003784,11.73014 Z M8.61974185,1.23250302 C8.61811055,1.20673213 8.61728207,1.18079534 8.61728208,1.15465172 C8.61767829,0.398778788 9.23934205,-0.206842528 10.0011384,-0.208000482 C10.7610346,-0.206841905 11.3828233,0.398901111 11.3832188,1.15570045 C11.38203,1.91133537 10.760588,2.51793623 10.0003761,2.51832232 C9.81138639,2.51832232 9.62839553,2.48001373 9.45996452,2.40842121 L9.42343928,2.44174554 C8.64866763,3.14861958 8.08786781,4.0508214 7.81088334,5.04707623 C7.80918393,5.05327764 7.80918393,5.05327764 7.80822577,5.05669133 C7.80767951,5.05864618 7.80767951,5.05864618 7.8071482,5.06058896 C7.78388695,5.1446252 7.76228987,5.23125052 7.74271436,5.31875665 C7.74151558,5.32419362 7.74151558,5.32419362 7.74007551,5.33078559 C7.73977113,5.33217799 7.73977113,5.33217799 7.73945561,5.33361984 C7.73635893,5.34773293 7.73635893,5.34773293 7.73464093,5.35484299 C7.71668718,5.4394424 7.70081355,5.52213611 7.68663602,5.60560617 C7.68565238,5.61147716 7.68565238,5.61147716 7.68369495,5.62461129 C7.6833768,5.62677493 7.6833768,5.62677493 7.6830381,5.62908228 C7.68078957,5.6444291 7.68078957,5.6444291 7.67805533,5.66179687 C7.66370643,5.75321154 7.65347328,5.82611319 7.64598231,5.89176908 C7.64416035,5.91014542 7.64416035,5.91014542 7.6420033,5.9352616 C7.64021948,5.95620563 7.64021948,5.95620563 7.63790077,5.98142823 C7.62826176,6.0810607 7.62346719,6.13729822 7.62009318,6.19597675 L7.62007744,6.19624919 C7.61669147,6.25458031 7.61520229,6.31649313 7.61451808,6.41346253 C7.61381688,6.43762257 7.61381688,6.43762257 7.61297884,6.45688159 C7.61279254,6.46105682 7.61279254,6.46105682 7.61261623,6.46496178 C7.61153107,6.48992821 7.61153107,6.48992821 7.61138869,6.4994826 C7.61451956,8.04779144 8.26895242,9.49331507 9.40323446,10.5387328 L9.78691759,10.8923566 L9.4172599,11.260617 C9.35352335,11.3241126 9.30148793,11.3979017 9.26314367,11.4792369 L8.97605889,12.0881963 L8.47605866,11.6373649 C7.01623059,10.3210926 6.16984266,8.47843721 6.16984266,6.50049366 C6.16984266,6.37016072 6.17387219,6.23760574 6.18172854,6.10006083 C6.18573707,6.041858 6.18573707,6.041858 6.19004864,5.99385074 C6.19223665,5.96938437 6.19223665,5.96938437 6.19415596,5.94631549 C6.19556287,5.92946329 6.19556287,5.92946329 6.19698653,5.91228141 C6.20505008,5.81483384 6.20941584,5.76687462 6.21645692,5.70574322 C6.2249496,5.63886214 6.2249496,5.63886214 6.23336677,5.58030006 C6.23437687,5.57326458 6.23437687,5.57326458 6.23536729,5.56635496 C6.23827425,5.54600211 6.23827425,5.54600211 6.24139091,5.5236241 C6.24272809,5.51433045 6.24272809,5.51433045 6.24408056,5.50492214 C6.2519105,5.45051277 6.2519105,5.45051277 6.26081856,5.39225939 C6.26643854,5.35707776 6.26643854,5.35707776 6.27252612,5.32180907 C6.28073539,5.27463659 6.28808348,5.23684643 6.30341476,5.16078863 C6.30710994,5.14244919 6.30710994,5.14244919 6.311077,5.12267322 C6.32856908,5.03769972 6.33656222,5.00036673 6.34880968,4.94780029 C6.36388502,4.88293331 6.38017578,4.81781745 6.40233223,4.73281546 C6.42236278,4.65878731 6.43046342,4.63000838 6.44340395,4.58716496 C6.46871551,4.49995506 6.49147328,4.42549011 6.51469143,4.35498182 C6.52542015,4.3227145 6.52542015,4.3227145 6.53531884,4.29433285 C6.54099098,4.27820062 6.54099098,4.27820062 6.54622683,4.26336535 C6.54958749,4.25382145 6.54958749,4.25382145 6.55234302,4.24594464 C6.58619722,4.14804765 6.61674385,4.06443982 6.65062212,3.97888818 L6.65167706,3.97632967 C6.6567973,3.96400848 6.6567973,3.96400848 6.6620907,3.95130283 C6.66747225,3.93841808 6.66747225,3.93841808 6.67006668,3.93239146 C7.09040078,2.89128133 7.76127813,1.96605932 8.61974185,1.23250302 Z M10.0001254,1.22641832 C10.029224,1.22641832 10.0581462,1.19819336 10.058325,1.15306304 C10.0581901,1.11100448 10.0297092,1.08322099 9.99911778,1.08316347 C9.97024848,1.08322164 9.94185486,1.11094179 9.94167697,1.15680105 C9.94185366,1.19819979 9.97078073,1.22641832 10.0001254,1.22641832 Z" transform="translate(1589 726)"/>
    <path stroke="#0CC0D8" stroke-linecap="round" stroke-linejoin="round" d="M13.3344988,-0.499999146 L13.3362949,-0.49999924 C17.2919568,-0.493100126 20.5,2.63270134 20.5,6.50028173 C20.49973,10.3677577 17.2920093,13.4928347 13.3344115,13.4999994 C12.4832237,13.4987047 11.6497402,13.3492932 10.8593377,13.0634161 L10.1984616,12.8243868 L10.6409535,12.2784077 C10.6973637,12.2088048 10.7406987,12.1309825 10.7688669,12.0485207 L10.9314207,11.5726479 L11.4063552,11.737923 C12.0258267,11.9534964 12.6737556,12.0653586 13.335351,12.0655806 C16.498107,12.0651267 19.0529099,9.57227647 19.058203,6.50114546 C19.0526798,3.4280141 16.4981359,0.93534715 13.3354228,0.934666211 C12.6780685,0.934666211 12.0342193,1.04511638 11.4195073,1.25810253 L10.9300806,1.4276797 L10.7778851,0.932572204 C10.7523182,0.849400619 10.711616,0.770612788 10.6569104,0.698141965 L10.2467003,0.15471878 L10.8879904,-0.074034463 C11.6695198,-0.352812126 12.493211,-0.49844437 13.3344988,-0.499999146 Z M11.0912652,12.6433654 L11.1837707,12.718337 C11.2853867,12.7518863 11.3876642,12.7830656 11.4905519,12.8118483 C11.5858018,12.6765161 11.661651,12.5284775 11.7151799,12.3717725 L11.2420234,12.2101466 L11.0912652,12.6433654 Z M11.515944,0.181391882 C11.418893,0.208191643 11.322396,0.237128674 11.2264992,0.268180367 L11.1076123,0.357923715 L11.255814,0.785657325 L11.7337428,0.638742446 C11.6838009,0.476276385 11.6102849,0.322736458 11.515944,0.181391882 Z M13.3354488,0.500000869 C13.3357481,0.500000274 13.3360475,0.499999699 13.3363468,0.499999146 L13.3345508,0.49999924 C13.3348501,0.499999762 13.3351495,0.500000304 13.3354488,0.500000868 Z M6.66628427,12.0655806 C7.32838503,12.0653448 7.97621992,11.9535936 8.59326105,11.7383036 L9.0664307,11.5732113 L9.23044148,12.0467569 C9.25974227,12.1313566 9.30321348,12.2094543 9.35929721,12.2786545 L9.80202159,12.8249205 L9.14067969,13.0637473 C8.35040481,13.3491349 7.51758307,13.4984461 6.66542694,13.4999992 C2.70899704,13.4928348 -0.499460045,10.3677712 -0.499999995,6.50017702 C-0.499460021,2.63255274 2.70918119,-0.49310046 6.66725726,-0.499999145 C7.50798926,-0.498443935 8.33172291,-0.352744223 9.11261616,-0.0739969529 L9.75278213,0.154516373 L9.34400498,0.697592839 C9.28865327,0.771129764 9.24768125,0.850218078 9.22236567,0.932572204 L9.07013375,1.42779795 L8.58063063,1.25806345 C7.96686168,1.04523994 7.32352903,0.93491304 6.66640412,0.934913035 C3.5035986,0.935367033 0.947549805,3.42853003 0.941796905,6.49931069 C0.947549732,9.57192481 3.50353403,12.0650636 6.66628427,12.0655806 Z M8.50980168,12.812199 C8.61269774,12.7833882 8.71494573,12.7521721 8.8164883,12.7185772 L8.90909792,12.6435212 L8.75797656,12.2103934 L8.28551163,12.3740299 C8.33969272,12.530466 8.41520273,12.6777119 8.50980168,12.812199 Z M8.89275041,0.357930621 L8.77326841,0.267995757 C8.6776374,0.237021492 8.58140177,0.208154842 8.48460794,0.181417981 C8.39009455,0.323055575 8.31636393,0.476555776 8.2665079,0.638742446 L8.74443678,0.785657325 L8.89275041,0.357930621 Z M11.3824733,11.767964 C11.3828024,11.7794846 11.3829682,11.7910531 11.3829681,11.8026777 C11.381779,12.5584789 10.7601057,13.1655464 9.99987463,13.1655464 C9.23928755,13.1655464 8.61782425,12.558566 8.61703128,11.8018911 C8.61703128,11.0462013 9.23864088,10.4402743 10.0009044,10.4387305 C10.2017131,10.439144 10.396142,10.4821157 10.5731644,10.561884 L10.5979215,10.5390854 C11.3640498,9.83356832 11.918067,8.93610063 12.1961589,7.93262276 C12.1925547,7.94539885 12.1925547,7.94539885 12.1961535,7.93145555 C12.2186277,7.8491541 12.2396146,7.76413745 12.2591004,7.67677875 C12.2599624,7.67287221 12.2599624,7.67287221 12.261001,7.66806675 C12.2621269,7.66282446 12.2621269,7.66282446 12.2634329,7.65672199 C12.2663248,7.64324538 12.2663248,7.64324538 12.2681652,7.63525613 C12.2855988,7.55230726 12.3007384,7.47314202 12.3149581,7.38960271 C12.3162156,7.38214102 12.3162156,7.38214102 12.3192011,7.36021688 C12.3193723,7.35893457 12.3193723,7.35893457 12.3195482,7.3576168 C12.3212358,7.34495998 12.3212358,7.34495998 12.3249102,7.31954113 C12.337142,7.24446139 12.346902,7.17431218 12.3547834,7.10291022 C12.3584794,7.06833275 12.3584794,7.06833275 12.362343,7.02091513 C12.3633811,7.00806642 12.3633811,7.00806642 12.3648254,6.99073531 C12.3662657,6.97491381 12.3662657,6.97491381 12.3676825,6.95949164 C12.3693127,6.94175005 12.3693127,6.94175005 12.3708758,6.92454507 C12.3763026,6.86297523 12.378059,6.84070984 12.3798731,6.80856461 C12.3861517,6.69706336 12.3893625,6.59630844 12.3893625,6.50024683 L12.3896118,6.49999755 C12.3863703,4.94142717 11.7236903,3.48700073 10.5771749,2.44160148 L10.1801169,2.0795618 L10.5697634,1.70955723 C10.6337136,1.6488307 10.6878864,1.57584871 10.7302226,1.49311782 L11.0257913,0.915535038 L11.5089984,1.34851734 C12.9783733,2.66516468 13.8311603,4.51459589 13.8311603,6.50049366 C13.8311603,6.62968187 13.8270163,6.76219717 13.8188849,6.90469065 C13.8158581,6.94700259 13.8158581,6.94700259 13.8128667,6.98070234 C13.8127783,6.98170233 13.8127783,6.98170233 13.8126907,6.98269378 C13.8105567,7.00697002 13.8105567,7.00697002 13.8089014,7.02896462 C13.8012787,7.12891742 13.7938804,7.21164418 13.7846661,7.2947175 C13.7773849,7.35221107 13.7773849,7.35221107 13.7703981,7.39978162 C13.770266,7.40068341 13.770266,7.40068341 13.7701344,7.40158132 C13.7658394,7.43095447 13.7658394,7.43095447 13.7617607,7.4608145 C13.7471162,7.56400416 13.7396307,7.61397423 13.7285848,7.67801972 C13.7179207,7.7387028 13.7059584,7.80034539 13.692689,7.86397113 C13.6787016,7.93341679 13.666236,7.99211676 13.6526299,8.05132778 C13.6377897,8.11438953 13.6216101,8.17878925 13.6019821,8.25373571 C13.581063,8.33206367 13.581063,8.33206367 13.5585733,8.41144007 C13.5320708,8.50148063 13.5113624,8.56891463 13.489715,8.63423804 C13.469814,8.69424331 13.469814,8.69424331 13.4498163,8.75135585 C13.4180343,8.8426327 13.388201,8.92428326 13.3555099,9.00811909 C13.3504914,9.0204687 13.3504914,9.0204687 13.3460216,9.0312852 C13.3379939,9.05061725 13.3379939,9.05061725 13.333629,9.0612889 L13.3326318,9.0637952 L13.3322598,9.06472041 C12.9120917,10.106539 12.241119,11.0330451 11.3824733,11.767964 Z M10.0003784,11.73014 L9.99937135,11.73014 C9.97039487,11.7301692 9.94151302,11.7583549 9.94142424,11.8032448 C9.94155783,11.8449771 9.97068991,11.8733956 9.99987463,11.8733956 C10.0292491,11.8733956 10.0587835,11.8445619 10.0588288,11.8011102 C10.0587833,11.7585703 10.029704,11.7301695 10.0003784,11.73014 Z M8.61974185,1.23250302 C8.61811055,1.20673213 8.61728207,1.18079534 8.61728208,1.15465172 C8.61767829,0.398778788 9.23934205,-0.206842528 10.0011384,-0.208000482 C10.7610346,-0.206841905 11.3828233,0.398901111 11.3832188,1.15570045 C11.38203,1.91133537 10.760588,2.51793623 10.0003761,2.51832232 C9.81138639,2.51832232 9.62839553,2.48001373 9.45996452,2.40842121 L9.42343928,2.44174554 C8.64866763,3.14861958 8.08786781,4.0508214 7.81088334,5.04707623 C7.80918393,5.05327764 7.80918393,5.05327764 7.80822577,5.05669133 C7.80767951,5.05864618 7.80767951,5.05864618 7.8071482,5.06058896 C7.78388695,5.1446252 7.76228987,5.23125052 7.74271436,5.31875665 C7.74151558,5.32419362 7.74151558,5.32419362 7.74007551,5.33078559 C7.73977113,5.33217799 7.73977113,5.33217799 7.73945561,5.33361984 C7.73635893,5.34773293 7.73635893,5.34773293 7.73464093,5.35484299 C7.71668718,5.4394424 7.70081355,5.52213611 7.68663602,5.60560617 C7.68565238,5.61147716 7.68565238,5.61147716 7.68369495,5.62461129 C7.6833768,5.62677493 7.6833768,5.62677493 7.6830381,5.62908228 C7.68078957,5.6444291 7.68078957,5.6444291 7.67805533,5.66179687 C7.66370643,5.75321154 7.65347328,5.82611319 7.64598231,5.89176908 C7.64416035,5.91014542 7.64416035,5.91014542 7.6420033,5.9352616 C7.64021948,5.95620563 7.64021948,5.95620563 7.63790077,5.98142823 C7.62826176,6.0810607 7.62346719,6.13729822 7.62009318,6.19597675 L7.62007744,6.19624919 C7.61669147,6.25458031 7.61520229,6.31649313 7.61451808,6.41346253 C7.61381688,6.43762257 7.61381688,6.43762257 7.61297884,6.45688159 C7.61279254,6.46105682 7.61279254,6.46105682 7.61261623,6.46496178 C7.61153107,6.48992821 7.61153107,6.48992821 7.61138869,6.4994826 C7.61451956,8.04779144 8.26895242,9.49331507 9.40323446,10.5387328 L9.78691759,10.8923566 L9.4172599,11.260617 C9.35352335,11.3241126 9.30148793,11.3979017 9.26314367,11.4792369 L8.97605889,12.0881963 L8.47605866,11.6373649 C7.01623059,10.3210926 6.16984266,8.47843721 6.16984266,6.50049366 C6.16984266,6.37016072 6.17387219,6.23760574 6.18172854,6.10006083 C6.18573707,6.041858 6.18573707,6.041858 6.19004864,5.99385074 C6.19223665,5.96938437 6.19223665,5.96938437 6.19415596,5.94631549 C6.19556287,5.92946329 6.19556287,5.92946329 6.19698653,5.91228141 C6.20505008,5.81483384 6.20941584,5.76687462 6.21645692,5.70574322 C6.2249496,5.63886214 6.2249496,5.63886214 6.23336677,5.58030006 C6.23437687,5.57326458 6.23437687,5.57326458 6.23536729,5.56635496 C6.23827425,5.54600211 6.23827425,5.54600211 6.24139091,5.5236241 C6.24272809,5.51433045 6.24272809,5.51433045 6.24408056,5.50492214 C6.2519105,5.45051277 6.2519105,5.45051277 6.26081856,5.39225939 C6.26643854,5.35707776 6.26643854,5.35707776 6.27252612,5.32180907 C6.28073539,5.27463659 6.28808348,5.23684643 6.30341476,5.16078863 C6.30710994,5.14244919 6.30710994,5.14244919 6.311077,5.12267322 C6.32856908,5.03769972 6.33656222,5.00036673 6.34880968,4.94780029 C6.36388502,4.88293331 6.38017578,4.81781745 6.40233223,4.73281546 C6.42236278,4.65878731 6.43046342,4.63000838 6.44340395,4.58716496 C6.46871551,4.49995506 6.49147328,4.42549011 6.51469143,4.35498182 C6.52542015,4.3227145 6.52542015,4.3227145 6.53531884,4.29433285 C6.54099098,4.27820062 6.54099098,4.27820062 6.54622683,4.26336535 C6.54958749,4.25382145 6.54958749,4.25382145 6.55234302,4.24594464 C6.58619722,4.14804765 6.61674385,4.06443982 6.65062212,3.97888818 L6.65167706,3.97632967 C6.6567973,3.96400848 6.6567973,3.96400848 6.6620907,3.95130283 C6.66747225,3.93841808 6.66747225,3.93841808 6.67006668,3.93239146 C7.09040078,2.89128133 7.76127813,1.96605932 8.61974185,1.23250302 Z M10.0001254,1.22641832 C10.029224,1.22641832 10.0581462,1.19819336 10.058325,1.15306304 C10.0581901,1.11100448 10.0297092,1.08322099 9.99911778,1.08316347 C9.97024848,1.08322164 9.94185486,1.11094179 9.94167697,1.15680105 C9.94185366,1.19819979 9.97078073,1.22641832 10.0001254,1.22641832 Z" transform="translate(1400 726)"/>
  </g>
</svg>
